<?xml version="1.0" standalone="no"?>
<!DOCTYPE svg PUBLIC "-//W3C//DTD SVG 1.1//EN" "http://www.w3.org/Graphics/SVG/1.1/DTD/svg11.dtd" >
<svg xmlns="http://www.w3.org/2000/svg" xmlns:xlink="http://www.w3.org/1999/xlink" version="1.1">
<metadata>
Created by FontForge 20170731 at Thu May 18 14:24:37 2023
 By Aleksey,,,
Hook J
</metadata>
<defs>
<font id="FONTSPRINGDEMO-SpanThinRegular" horiz-adv-x="1224" >
  <font-face 
    font-family="FSP DEMO - Span Thin"
    font-weight="200"
    font-stretch="normal"
    units-per-em="2048"
    panose-1="0 0 3 0 0 0 0 0 0 0"
    ascent="1505"
    descent="-543"
    x-height="993"
    cap-height="1434"
    bbox="-127 -543 2157 1505"
    underline-thickness="102"
    underline-position="-307"
    unicode-range="U+0020-007E"
  />
<missing-glyph 
d="M207 403q-13 0 -19 -2v-200q4 -2 19 -2q37 0 50 25t13 77q0 54 -13 78t-50 24zM518 330v-49h-82v-78h96v-49h-155v297h155v-52h-96v-69h82zM203 150q-47 0 -74 4v292q61 9 76 9q67 0 96 -37.5t29 -116.5t-29.5 -115t-97.5 -36zM586 451h80l39 -164l38 164h82
q3 -45 13 -297h-60q0 108 -6 213l-41 -168h-55l-41 168h-2q-4 -140 -4 -213h-58q3 156 15 297zM987 150q-60 0 -84 35.5t-24 115.5q0 81 24 117.5t84 36.5t85.5 -37t25.5 -117q0 -79 -25.5 -115t-85.5 -36zM987 403q-29 0 -39 -23.5t-10 -78.5q0 -54 10 -78t39 -24
q30 0 40.5 24t10.5 78q0 55 -10 78.5t-41 23.5zM967 1016q49 0 79.5 -24.5t39 -51t8.5 -53.5q0 -43 -34.5 -72.5t-72.5 -34.5q-213 -23 -340 -147q3 8 9 22t25 53.5t39 75.5t50 80.5t59.5 76t66 53.5t71.5 22zM285 909q39 0 78 -21t69.5 -55t58.5 -74.5t48 -81.5t35 -75
t22 -55l8 -21q-117 148 -319 148q-49 0 -88 30t-39 76q0 53 33.5 91t93.5 38zM643 1214q38 -37 48.5 -102t-2.5 -131t-31.5 -126.5t-35.5 -98.5l-18 -39q20 191 -125 330q-35 35 -42 81.5t24 83.5q23 23 53 34t65 3.5t64 -35.5z" />
    <glyph glyph-name=".notdef" 
d="M207 403q-13 0 -19 -2v-200q4 -2 19 -2q37 0 50 25t13 77q0 54 -13 78t-50 24zM518 330v-49h-82v-78h96v-49h-155v297h155v-52h-96v-69h82zM203 150q-47 0 -74 4v292q61 9 76 9q67 0 96 -37.5t29 -116.5t-29.5 -115t-97.5 -36zM586 451h80l39 -164l38 164h82
q3 -45 13 -297h-60q0 108 -6 213l-41 -168h-55l-41 168h-2q-4 -140 -4 -213h-58q3 156 15 297zM987 150q-60 0 -84 35.5t-24 115.5q0 81 24 117.5t84 36.5t85.5 -37t25.5 -117q0 -79 -25.5 -115t-85.5 -36zM987 403q-29 0 -39 -23.5t-10 -78.5q0 -54 10 -78t39 -24
q30 0 40.5 24t10.5 78q0 55 -10 78.5t-41 23.5zM967 1016q49 0 79.5 -24.5t39 -51t8.5 -53.5q0 -43 -34.5 -72.5t-72.5 -34.5q-213 -23 -340 -147q3 8 9 22t25 53.5t39 75.5t50 80.5t59.5 76t66 53.5t71.5 22zM285 909q39 0 78 -21t69.5 -55t58.5 -74.5t48 -81.5t35 -75
t22 -55l8 -21q-117 148 -319 148q-49 0 -88 30t-39 76q0 53 33.5 91t93.5 38zM643 1214q38 -37 48.5 -102t-2.5 -131t-31.5 -126.5t-35.5 -98.5l-18 -39q20 191 -125 330q-35 35 -42 81.5t24 83.5q23 23 53 34t65 3.5t64 -35.5z" />
    <glyph glyph-name=".null" horiz-adv-x="0" 
 />
    <glyph glyph-name="nonmarkingreturn" horiz-adv-x="682" 
 />
    <glyph glyph-name="space" unicode=" " horiz-adv-x="395" 
 />
    <glyph glyph-name="exclam" unicode="!" 
d="M207 403q-13 0 -19 -2v-200q4 -2 19 -2q37 0 50 25t13 77q0 54 -13 78t-50 24zM518 330v-49h-82v-78h96v-49h-155v297h155v-52h-96v-69h82zM203 150q-47 0 -74 4v292q61 9 76 9q67 0 96 -37.5t29 -116.5t-29.5 -115t-97.5 -36zM586 451h80l39 -164l38 164h82
q3 -45 13 -297h-60q0 108 -6 213l-41 -168h-55l-41 168h-2q-4 -140 -4 -213h-58q3 156 15 297zM987 150q-60 0 -84 35.5t-24 115.5q0 81 24 117.5t84 36.5t85.5 -37t25.5 -117q0 -79 -25.5 -115t-85.5 -36zM987 403q-29 0 -39 -23.5t-10 -78.5q0 -54 10 -78t39 -24
q30 0 40.5 24t10.5 78q0 55 -10 78.5t-41 23.5zM967 1016q49 0 79.5 -24.5t39 -51t8.5 -53.5q0 -43 -34.5 -72.5t-72.5 -34.5q-213 -23 -340 -147q3 8 9 22t25 53.5t39 75.5t50 80.5t59.5 76t66 53.5t71.5 22zM285 909q39 0 78 -21t69.5 -55t58.5 -74.5t48 -81.5t35 -75
t22 -55l8 -21q-117 148 -319 148q-49 0 -88 30t-39 76q0 53 33.5 91t93.5 38zM643 1214q38 -37 48.5 -102t-2.5 -131t-31.5 -126.5t-35.5 -98.5l-18 -39q20 191 -125 330q-35 35 -42 81.5t24 83.5q23 23 53 34t65 3.5t64 -35.5z" />
    <glyph glyph-name="quotedbl" unicode="&#x22;" 
d="M207 403q-13 0 -19 -2v-200q4 -2 19 -2q37 0 50 25t13 77q0 54 -13 78t-50 24zM518 330v-49h-82v-78h96v-49h-155v297h155v-52h-96v-69h82zM203 150q-47 0 -74 4v292q61 9 76 9q67 0 96 -37.5t29 -116.5t-29.5 -115t-97.5 -36zM586 451h80l39 -164l38 164h82
q3 -45 13 -297h-60q0 108 -6 213l-41 -168h-55l-41 168h-2q-4 -140 -4 -213h-58q3 156 15 297zM987 150q-60 0 -84 35.5t-24 115.5q0 81 24 117.5t84 36.5t85.5 -37t25.5 -117q0 -79 -25.5 -115t-85.5 -36zM987 403q-29 0 -39 -23.5t-10 -78.5q0 -54 10 -78t39 -24
q30 0 40.5 24t10.5 78q0 55 -10 78.5t-41 23.5zM967 1016q49 0 79.5 -24.5t39 -51t8.5 -53.5q0 -43 -34.5 -72.5t-72.5 -34.5q-213 -23 -340 -147q3 8 9 22t25 53.5t39 75.5t50 80.5t59.5 76t66 53.5t71.5 22zM285 909q39 0 78 -21t69.5 -55t58.5 -74.5t48 -81.5t35 -75
t22 -55l8 -21q-117 148 -319 148q-49 0 -88 30t-39 76q0 53 33.5 91t93.5 38zM643 1214q38 -37 48.5 -102t-2.5 -131t-31.5 -126.5t-35.5 -98.5l-18 -39q20 191 -125 330q-35 35 -42 81.5t24 83.5q23 23 53 34t65 3.5t64 -35.5z" />
    <glyph glyph-name="numbersign" unicode="#" 
d="M207 403q-13 0 -19 -2v-200q4 -2 19 -2q37 0 50 25t13 77q0 54 -13 78t-50 24zM518 330v-49h-82v-78h96v-49h-155v297h155v-52h-96v-69h82zM203 150q-47 0 -74 4v292q61 9 76 9q67 0 96 -37.5t29 -116.5t-29.5 -115t-97.5 -36zM586 451h80l39 -164l38 164h82
q3 -45 13 -297h-60q0 108 -6 213l-41 -168h-55l-41 168h-2q-4 -140 -4 -213h-58q3 156 15 297zM987 150q-60 0 -84 35.5t-24 115.5q0 81 24 117.5t84 36.5t85.5 -37t25.5 -117q0 -79 -25.5 -115t-85.5 -36zM987 403q-29 0 -39 -23.5t-10 -78.5q0 -54 10 -78t39 -24
q30 0 40.5 24t10.5 78q0 55 -10 78.5t-41 23.5zM967 1016q49 0 79.5 -24.5t39 -51t8.5 -53.5q0 -43 -34.5 -72.5t-72.5 -34.5q-213 -23 -340 -147q3 8 9 22t25 53.5t39 75.5t50 80.5t59.5 76t66 53.5t71.5 22zM285 909q39 0 78 -21t69.5 -55t58.5 -74.5t48 -81.5t35 -75
t22 -55l8 -21q-117 148 -319 148q-49 0 -88 30t-39 76q0 53 33.5 91t93.5 38zM643 1214q38 -37 48.5 -102t-2.5 -131t-31.5 -126.5t-35.5 -98.5l-18 -39q20 191 -125 330q-35 35 -42 81.5t24 83.5q23 23 53 34t65 3.5t64 -35.5z" />
    <glyph glyph-name="dollar" unicode="$" 
d="M207 403q-13 0 -19 -2v-200q4 -2 19 -2q37 0 50 25t13 77q0 54 -13 78t-50 24zM518 330v-49h-82v-78h96v-49h-155v297h155v-52h-96v-69h82zM203 150q-47 0 -74 4v292q61 9 76 9q67 0 96 -37.5t29 -116.5t-29.5 -115t-97.5 -36zM586 451h80l39 -164l38 164h82
q3 -45 13 -297h-60q0 108 -6 213l-41 -168h-55l-41 168h-2q-4 -140 -4 -213h-58q3 156 15 297zM987 150q-60 0 -84 35.5t-24 115.5q0 81 24 117.5t84 36.5t85.5 -37t25.5 -117q0 -79 -25.5 -115t-85.5 -36zM987 403q-29 0 -39 -23.5t-10 -78.5q0 -54 10 -78t39 -24
q30 0 40.5 24t10.5 78q0 55 -10 78.5t-41 23.5zM967 1016q49 0 79.5 -24.5t39 -51t8.5 -53.5q0 -43 -34.5 -72.5t-72.5 -34.5q-213 -23 -340 -147q3 8 9 22t25 53.5t39 75.5t50 80.5t59.5 76t66 53.5t71.5 22zM285 909q39 0 78 -21t69.5 -55t58.5 -74.5t48 -81.5t35 -75
t22 -55l8 -21q-117 148 -319 148q-49 0 -88 30t-39 76q0 53 33.5 91t93.5 38zM643 1214q38 -37 48.5 -102t-2.5 -131t-31.5 -126.5t-35.5 -98.5l-18 -39q20 191 -125 330q-35 35 -42 81.5t24 83.5q23 23 53 34t65 3.5t64 -35.5z" />
    <glyph glyph-name="percent" unicode="%" 
d="M207 403q-13 0 -19 -2v-200q4 -2 19 -2q37 0 50 25t13 77q0 54 -13 78t-50 24zM518 330v-49h-82v-78h96v-49h-155v297h155v-52h-96v-69h82zM203 150q-47 0 -74 4v292q61 9 76 9q67 0 96 -37.5t29 -116.5t-29.5 -115t-97.5 -36zM586 451h80l39 -164l38 164h82
q3 -45 13 -297h-60q0 108 -6 213l-41 -168h-55l-41 168h-2q-4 -140 -4 -213h-58q3 156 15 297zM987 150q-60 0 -84 35.5t-24 115.5q0 81 24 117.5t84 36.5t85.5 -37t25.5 -117q0 -79 -25.5 -115t-85.5 -36zM987 403q-29 0 -39 -23.5t-10 -78.5q0 -54 10 -78t39 -24
q30 0 40.5 24t10.5 78q0 55 -10 78.5t-41 23.5zM967 1016q49 0 79.5 -24.5t39 -51t8.5 -53.5q0 -43 -34.5 -72.5t-72.5 -34.5q-213 -23 -340 -147q3 8 9 22t25 53.5t39 75.5t50 80.5t59.5 76t66 53.5t71.5 22zM285 909q39 0 78 -21t69.5 -55t58.5 -74.5t48 -81.5t35 -75
t22 -55l8 -21q-117 148 -319 148q-49 0 -88 30t-39 76q0 53 33.5 91t93.5 38zM643 1214q38 -37 48.5 -102t-2.5 -131t-31.5 -126.5t-35.5 -98.5l-18 -39q20 191 -125 330q-35 35 -42 81.5t24 83.5q23 23 53 34t65 3.5t64 -35.5z" />
    <glyph glyph-name="ampersand" unicode="&#x26;" 
d="M207 403q-13 0 -19 -2v-200q4 -2 19 -2q37 0 50 25t13 77q0 54 -13 78t-50 24zM518 330v-49h-82v-78h96v-49h-155v297h155v-52h-96v-69h82zM203 150q-47 0 -74 4v292q61 9 76 9q67 0 96 -37.5t29 -116.5t-29.5 -115t-97.5 -36zM586 451h80l39 -164l38 164h82
q3 -45 13 -297h-60q0 108 -6 213l-41 -168h-55l-41 168h-2q-4 -140 -4 -213h-58q3 156 15 297zM987 150q-60 0 -84 35.5t-24 115.5q0 81 24 117.5t84 36.5t85.5 -37t25.5 -117q0 -79 -25.5 -115t-85.5 -36zM987 403q-29 0 -39 -23.5t-10 -78.5q0 -54 10 -78t39 -24
q30 0 40.5 24t10.5 78q0 55 -10 78.5t-41 23.5zM967 1016q49 0 79.5 -24.5t39 -51t8.5 -53.5q0 -43 -34.5 -72.5t-72.5 -34.5q-213 -23 -340 -147q3 8 9 22t25 53.5t39 75.5t50 80.5t59.5 76t66 53.5t71.5 22zM285 909q39 0 78 -21t69.5 -55t58.5 -74.5t48 -81.5t35 -75
t22 -55l8 -21q-117 148 -319 148q-49 0 -88 30t-39 76q0 53 33.5 91t93.5 38zM643 1214q38 -37 48.5 -102t-2.5 -131t-31.5 -126.5t-35.5 -98.5l-18 -39q20 191 -125 330q-35 35 -42 81.5t24 83.5q23 23 53 34t65 3.5t64 -35.5z" />
    <glyph glyph-name="quotesingle" unicode="'" 
d="M207 403q-13 0 -19 -2v-200q4 -2 19 -2q37 0 50 25t13 77q0 54 -13 78t-50 24zM518 330v-49h-82v-78h96v-49h-155v297h155v-52h-96v-69h82zM203 150q-47 0 -74 4v292q61 9 76 9q67 0 96 -37.5t29 -116.5t-29.5 -115t-97.5 -36zM586 451h80l39 -164l38 164h82
q3 -45 13 -297h-60q0 108 -6 213l-41 -168h-55l-41 168h-2q-4 -140 -4 -213h-58q3 156 15 297zM987 150q-60 0 -84 35.5t-24 115.5q0 81 24 117.5t84 36.5t85.5 -37t25.5 -117q0 -79 -25.5 -115t-85.5 -36zM987 403q-29 0 -39 -23.5t-10 -78.5q0 -54 10 -78t39 -24
q30 0 40.5 24t10.5 78q0 55 -10 78.5t-41 23.5zM967 1016q49 0 79.5 -24.5t39 -51t8.5 -53.5q0 -43 -34.5 -72.5t-72.5 -34.5q-213 -23 -340 -147q3 8 9 22t25 53.5t39 75.5t50 80.5t59.5 76t66 53.5t71.5 22zM285 909q39 0 78 -21t69.5 -55t58.5 -74.5t48 -81.5t35 -75
t22 -55l8 -21q-117 148 -319 148q-49 0 -88 30t-39 76q0 53 33.5 91t93.5 38zM643 1214q38 -37 48.5 -102t-2.5 -131t-31.5 -126.5t-35.5 -98.5l-18 -39q20 191 -125 330q-35 35 -42 81.5t24 83.5q23 23 53 34t65 3.5t64 -35.5z" />
    <glyph glyph-name="parenleft" unicode="(" 
d="M207 403q-13 0 -19 -2v-200q4 -2 19 -2q37 0 50 25t13 77q0 54 -13 78t-50 24zM518 330v-49h-82v-78h96v-49h-155v297h155v-52h-96v-69h82zM203 150q-47 0 -74 4v292q61 9 76 9q67 0 96 -37.5t29 -116.5t-29.5 -115t-97.5 -36zM586 451h80l39 -164l38 164h82
q3 -45 13 -297h-60q0 108 -6 213l-41 -168h-55l-41 168h-2q-4 -140 -4 -213h-58q3 156 15 297zM987 150q-60 0 -84 35.5t-24 115.5q0 81 24 117.5t84 36.5t85.5 -37t25.5 -117q0 -79 -25.5 -115t-85.5 -36zM987 403q-29 0 -39 -23.5t-10 -78.5q0 -54 10 -78t39 -24
q30 0 40.5 24t10.5 78q0 55 -10 78.5t-41 23.5zM967 1016q49 0 79.5 -24.5t39 -51t8.5 -53.5q0 -43 -34.5 -72.5t-72.5 -34.5q-213 -23 -340 -147q3 8 9 22t25 53.5t39 75.5t50 80.5t59.5 76t66 53.5t71.5 22zM285 909q39 0 78 -21t69.5 -55t58.5 -74.5t48 -81.5t35 -75
t22 -55l8 -21q-117 148 -319 148q-49 0 -88 30t-39 76q0 53 33.5 91t93.5 38zM643 1214q38 -37 48.5 -102t-2.5 -131t-31.5 -126.5t-35.5 -98.5l-18 -39q20 191 -125 330q-35 35 -42 81.5t24 83.5q23 23 53 34t65 3.5t64 -35.5z" />
    <glyph glyph-name="parenright" unicode=")" 
d="M207 403q-13 0 -19 -2v-200q4 -2 19 -2q37 0 50 25t13 77q0 54 -13 78t-50 24zM518 330v-49h-82v-78h96v-49h-155v297h155v-52h-96v-69h82zM203 150q-47 0 -74 4v292q61 9 76 9q67 0 96 -37.5t29 -116.5t-29.5 -115t-97.5 -36zM586 451h80l39 -164l38 164h82
q3 -45 13 -297h-60q0 108 -6 213l-41 -168h-55l-41 168h-2q-4 -140 -4 -213h-58q3 156 15 297zM987 150q-60 0 -84 35.5t-24 115.5q0 81 24 117.5t84 36.5t85.5 -37t25.5 -117q0 -79 -25.5 -115t-85.5 -36zM987 403q-29 0 -39 -23.5t-10 -78.5q0 -54 10 -78t39 -24
q30 0 40.5 24t10.5 78q0 55 -10 78.5t-41 23.5zM967 1016q49 0 79.5 -24.5t39 -51t8.5 -53.5q0 -43 -34.5 -72.5t-72.5 -34.5q-213 -23 -340 -147q3 8 9 22t25 53.5t39 75.5t50 80.5t59.5 76t66 53.5t71.5 22zM285 909q39 0 78 -21t69.5 -55t58.5 -74.5t48 -81.5t35 -75
t22 -55l8 -21q-117 148 -319 148q-49 0 -88 30t-39 76q0 53 33.5 91t93.5 38zM643 1214q38 -37 48.5 -102t-2.5 -131t-31.5 -126.5t-35.5 -98.5l-18 -39q20 191 -125 330q-35 35 -42 81.5t24 83.5q23 23 53 34t65 3.5t64 -35.5z" />
    <glyph glyph-name="asterisk" unicode="*" 
d="M207 403q-13 0 -19 -2v-200q4 -2 19 -2q37 0 50 25t13 77q0 54 -13 78t-50 24zM518 330v-49h-82v-78h96v-49h-155v297h155v-52h-96v-69h82zM203 150q-47 0 -74 4v292q61 9 76 9q67 0 96 -37.5t29 -116.5t-29.5 -115t-97.5 -36zM586 451h80l39 -164l38 164h82
q3 -45 13 -297h-60q0 108 -6 213l-41 -168h-55l-41 168h-2q-4 -140 -4 -213h-58q3 156 15 297zM987 150q-60 0 -84 35.5t-24 115.5q0 81 24 117.5t84 36.5t85.5 -37t25.5 -117q0 -79 -25.5 -115t-85.5 -36zM987 403q-29 0 -39 -23.5t-10 -78.5q0 -54 10 -78t39 -24
q30 0 40.5 24t10.5 78q0 55 -10 78.5t-41 23.5zM967 1016q49 0 79.5 -24.5t39 -51t8.5 -53.5q0 -43 -34.5 -72.5t-72.5 -34.5q-213 -23 -340 -147q3 8 9 22t25 53.5t39 75.5t50 80.5t59.5 76t66 53.5t71.5 22zM285 909q39 0 78 -21t69.5 -55t58.5 -74.5t48 -81.5t35 -75
t22 -55l8 -21q-117 148 -319 148q-49 0 -88 30t-39 76q0 53 33.5 91t93.5 38zM643 1214q38 -37 48.5 -102t-2.5 -131t-31.5 -126.5t-35.5 -98.5l-18 -39q20 191 -125 330q-35 35 -42 81.5t24 83.5q23 23 53 34t65 3.5t64 -35.5z" />
    <glyph glyph-name="plus" unicode="+" 
d="M207 403q-13 0 -19 -2v-200q4 -2 19 -2q37 0 50 25t13 77q0 54 -13 78t-50 24zM518 330v-49h-82v-78h96v-49h-155v297h155v-52h-96v-69h82zM203 150q-47 0 -74 4v292q61 9 76 9q67 0 96 -37.5t29 -116.5t-29.5 -115t-97.5 -36zM586 451h80l39 -164l38 164h82
q3 -45 13 -297h-60q0 108 -6 213l-41 -168h-55l-41 168h-2q-4 -140 -4 -213h-58q3 156 15 297zM987 150q-60 0 -84 35.5t-24 115.5q0 81 24 117.5t84 36.5t85.5 -37t25.5 -117q0 -79 -25.5 -115t-85.5 -36zM987 403q-29 0 -39 -23.5t-10 -78.5q0 -54 10 -78t39 -24
q30 0 40.5 24t10.5 78q0 55 -10 78.5t-41 23.5zM967 1016q49 0 79.5 -24.5t39 -51t8.5 -53.5q0 -43 -34.5 -72.5t-72.5 -34.5q-213 -23 -340 -147q3 8 9 22t25 53.5t39 75.5t50 80.5t59.5 76t66 53.5t71.5 22zM285 909q39 0 78 -21t69.5 -55t58.5 -74.5t48 -81.5t35 -75
t22 -55l8 -21q-117 148 -319 148q-49 0 -88 30t-39 76q0 53 33.5 91t93.5 38zM643 1214q38 -37 48.5 -102t-2.5 -131t-31.5 -126.5t-35.5 -98.5l-18 -39q20 191 -125 330q-35 35 -42 81.5t24 83.5q23 23 53 34t65 3.5t64 -35.5z" />
    <glyph glyph-name="comma" unicode="," horiz-adv-x="423" 
d="M59 -205q74 44 100.5 84.5t26.5 87.5q0 55 -31 87t-77 34l-6 21q47 27 137 73q42 -23 66 -64.5t24 -88.5q0 -65 -62 -136.5t-165 -123.5z" />
    <glyph glyph-name="hyphen" unicode="-" 
d="M207 403q-13 0 -19 -2v-200q4 -2 19 -2q37 0 50 25t13 77q0 54 -13 78t-50 24zM518 330v-49h-82v-78h96v-49h-155v297h155v-52h-96v-69h82zM203 150q-47 0 -74 4v292q61 9 76 9q67 0 96 -37.5t29 -116.5t-29.5 -115t-97.5 -36zM586 451h80l39 -164l38 164h82
q3 -45 13 -297h-60q0 108 -6 213l-41 -168h-55l-41 168h-2q-4 -140 -4 -213h-58q3 156 15 297zM987 150q-60 0 -84 35.5t-24 115.5q0 81 24 117.5t84 36.5t85.5 -37t25.5 -117q0 -79 -25.5 -115t-85.5 -36zM987 403q-29 0 -39 -23.5t-10 -78.5q0 -54 10 -78t39 -24
q30 0 40.5 24t10.5 78q0 55 -10 78.5t-41 23.5zM967 1016q49 0 79.5 -24.5t39 -51t8.5 -53.5q0 -43 -34.5 -72.5t-72.5 -34.5q-213 -23 -340 -147q3 8 9 22t25 53.5t39 75.5t50 80.5t59.5 76t66 53.5t71.5 22zM285 909q39 0 78 -21t69.5 -55t58.5 -74.5t48 -81.5t35 -75
t22 -55l8 -21q-117 148 -319 148q-49 0 -88 30t-39 76q0 53 33.5 91t93.5 38zM643 1214q38 -37 48.5 -102t-2.5 -131t-31.5 -126.5t-35.5 -98.5l-18 -39q20 191 -125 330q-35 35 -42 81.5t24 83.5q23 23 53 34t65 3.5t64 -35.5z" />
    <glyph glyph-name="period" unicode="." horiz-adv-x="442" 
d="M221 -16q-41 0 -68.5 27.5t-27.5 68.5q0 40 27.5 68t68.5 28q40 0 68 -28t28 -68q0 -41 -28 -68.5t-68 -27.5z" />
    <glyph glyph-name="slash" unicode="/" 
d="M207 403q-13 0 -19 -2v-200q4 -2 19 -2q37 0 50 25t13 77q0 54 -13 78t-50 24zM518 330v-49h-82v-78h96v-49h-155v297h155v-52h-96v-69h82zM203 150q-47 0 -74 4v292q61 9 76 9q67 0 96 -37.5t29 -116.5t-29.5 -115t-97.5 -36zM586 451h80l39 -164l38 164h82
q3 -45 13 -297h-60q0 108 -6 213l-41 -168h-55l-41 168h-2q-4 -140 -4 -213h-58q3 156 15 297zM987 150q-60 0 -84 35.5t-24 115.5q0 81 24 117.5t84 36.5t85.5 -37t25.5 -117q0 -79 -25.5 -115t-85.5 -36zM987 403q-29 0 -39 -23.5t-10 -78.5q0 -54 10 -78t39 -24
q30 0 40.5 24t10.5 78q0 55 -10 78.5t-41 23.5zM967 1016q49 0 79.5 -24.5t39 -51t8.5 -53.5q0 -43 -34.5 -72.5t-72.5 -34.5q-213 -23 -340 -147q3 8 9 22t25 53.5t39 75.5t50 80.5t59.5 76t66 53.5t71.5 22zM285 909q39 0 78 -21t69.5 -55t58.5 -74.5t48 -81.5t35 -75
t22 -55l8 -21q-117 148 -319 148q-49 0 -88 30t-39 76q0 53 33.5 91t93.5 38zM643 1214q38 -37 48.5 -102t-2.5 -131t-31.5 -126.5t-35.5 -98.5l-18 -39q20 191 -125 330q-35 35 -42 81.5t24 83.5q23 23 53 34t65 3.5t64 -35.5z" />
    <glyph glyph-name="zero" unicode="0" horiz-adv-x="1308" 
d="M655 -27q-104 0 -199 53t-166.5 146.5t-114 232t-42.5 300.5q0 161 42.5 299.5t114 231.5t166.5 145.5t199 52.5t199 -52.5t167 -145.5t114.5 -231.5t42.5 -299.5t-42.5 -300t-114.5 -232.5t-167 -146.5t-199 -53zM657 18q65 0 122.5 25t107 79t85 133.5t55.5 194.5
t20 255t-20 254.5t-55.5 193.5t-84.5 132.5t-106.5 78.5t-123.5 25q-83 0 -153.5 -40.5t-125 -121.5t-85.5 -214.5t-31 -307.5t31 -308t85.5 -215.5t125 -122.5t153.5 -41z" />
    <glyph glyph-name="one" unicode="1" horiz-adv-x="696" 
d="M76 0v27q54 11 92.5 26t74 40.5t54 67t18.5 97.5v903q0 96 -49.5 129t-189.5 33v27q181 33 330 92v-1184q0 -111 48.5 -158t174.5 -73v-27q-122 10 -285 10q-158 0 -268 -10z" />
    <glyph glyph-name="two" unicode="2" horiz-adv-x="1107" 
d="M934 360h29q-4 -135 -23 -360q-214 6 -451 6q-211 0 -423 -6v27l503 577q115 131 178.5 243t63.5 234q0 136 -79.5 224t-201.5 88q-133 0 -219.5 -96.5t-126.5 -268.5h-28q-4 86 -4 154q0 23 1 57.5t1 48.5q60 66 165.5 106t210.5 40q79 0 153 -23.5t133.5 -66t95.5 -109
t36 -145.5q0 -55 -18.5 -113.5t-45 -107t-70.5 -106t-80 -98.5t-89 -96l-461 -473q118 -4 316 -4q127 0 184 4t90 13.5t63.5 37.5t52 77.5t44.5 135.5z" />
    <glyph glyph-name="three" unicode="3" horiz-adv-x="1087" 
d="M475 -25q-119 0 -212 30.5t-148 84.5q-6 135 0 270h24q77 -342 346 -342q53 0 103 13t95.5 42t80 69.5t54.5 100t20 130.5q0 166 -102 260t-292 94h-79v47h100q145 0 239.5 81.5t94.5 229.5q0 76 -26 136.5t-69.5 97t-96 55.5t-109.5 19q-125 0 -210.5 -92t-121.5 -242
h-27q-6 122 0 250q61 59 159 92t198 33q109 0 204.5 -39t159.5 -120t64 -188q0 -122 -82 -209.5t-224 -119.5q117 -23 198 -82.5t117 -136.5t36 -166q0 -80 -31.5 -151t-91 -126.5t-155.5 -88t-216 -32.5z" />
    <glyph glyph-name="four" unicode="4" 
d="M207 403q-13 0 -19 -2v-200q4 -2 19 -2q37 0 50 25t13 77q0 54 -13 78t-50 24zM518 330v-49h-82v-78h96v-49h-155v297h155v-52h-96v-69h82zM203 150q-47 0 -74 4v292q61 9 76 9q67 0 96 -37.5t29 -116.5t-29.5 -115t-97.5 -36zM586 451h80l39 -164l38 164h82
q3 -45 13 -297h-60q0 108 -6 213l-41 -168h-55l-41 168h-2q-4 -140 -4 -213h-58q3 156 15 297zM987 150q-60 0 -84 35.5t-24 115.5q0 81 24 117.5t84 36.5t85.5 -37t25.5 -117q0 -79 -25.5 -115t-85.5 -36zM987 403q-29 0 -39 -23.5t-10 -78.5q0 -54 10 -78t39 -24
q30 0 40.5 24t10.5 78q0 55 -10 78.5t-41 23.5zM967 1016q49 0 79.5 -24.5t39 -51t8.5 -53.5q0 -43 -34.5 -72.5t-72.5 -34.5q-213 -23 -340 -147q3 8 9 22t25 53.5t39 75.5t50 80.5t59.5 76t66 53.5t71.5 22zM285 909q39 0 78 -21t69.5 -55t58.5 -74.5t48 -81.5t35 -75
t22 -55l8 -21q-117 148 -319 148q-49 0 -88 30t-39 76q0 53 33.5 91t93.5 38zM643 1214q38 -37 48.5 -102t-2.5 -131t-31.5 -126.5t-35.5 -98.5l-18 -39q20 191 -125 330q-35 35 -42 81.5t24 83.5q23 23 53 34t65 3.5t64 -35.5z" />
    <glyph glyph-name="five" unicode="5" horiz-adv-x="1097" 
d="M553 932q199 0 322.5 -133.5t123.5 -343.5q0 -215 -129 -347.5t-340 -132.5q-98 0 -207 31t-171 82q-10 141 -7 272h29q26 -147 123 -245.5t231 -98.5q62 0 119.5 24.5t107 74t79.5 136.5t30 200q0 194 -89.5 311t-246.5 117q-103 0 -184.5 -53t-126.5 -154h-39l19 735
h530q78 0 126 16t73 58h26q-11 -51 -41 -168h-657l-16 -518q50 65 132 101t183 36z" />
    <glyph glyph-name="six" unicode="6" horiz-adv-x="1185" 
d="M627 862q192 0 321 -118.5t129 -315.5q0 -125 -54.5 -227.5t-162.5 -165t-252 -62.5q-108 0 -191 34.5t-136 94t-87 147t-47.5 186t-13.5 218.5q0 177 31 315.5t81 224.5t118.5 141.5t138 77.5t145.5 22q94 0 189 -31.5t161 -81.5q10 -145 7 -266h-29q-30 162 -125.5 251
t-222.5 89q-126 0 -212 -95.5t-126 -264t-41 -404.5q53 117 152.5 174t226.5 57zM612 12q153 0 245.5 119.5t92.5 292.5q0 175 -97.5 282t-248.5 107q-154 0 -250 -108t-96 -275q0 -171 98.5 -294.5t255.5 -123.5z" />
    <glyph glyph-name="seven" unicode="7" horiz-adv-x="1038" 
d="M147 1409q425 -11 850 0v-27q-268 -506 -402 -828t-192 -554h-161l-4 20l653 1291h-426q-166 0 -231.5 -35.5t-102.5 -140.5h-29q17 112 45 274z" />
    <glyph glyph-name="eight" unicode="8" horiz-adv-x="1171" 
d="M588 -27q-195 0 -332 111.5t-137 284.5q0 144 96.5 253t249.5 146q-132 32 -210.5 122.5t-78.5 201.5q0 98 58.5 177.5t152 122t201.5 42.5q166 0 287.5 -96t121.5 -246q0 -114 -78.5 -204t-209.5 -120q158 -41 251 -151t93 -248q0 -115 -64 -206.5t-170 -140.5t-231 -49
zM586 786q46 0 95.5 21.5t92.5 59t70.5 96.5t27.5 127q0 149 -79.5 226t-204.5 77q-126 0 -206.5 -78t-80.5 -230q0 -69 27.5 -127.5t70 -95t91.5 -56.5t96 -20zM588 14q145 0 240.5 94t95.5 273q0 84 -31.5 155t-81.5 116.5t-108.5 70.5t-114.5 25q-57 0 -116.5 -25
t-109.5 -70.5t-82 -116.5t-32 -155q0 -178 97 -272.5t243 -94.5z" />
    <glyph glyph-name="nine" unicode="9" horiz-adv-x="1181" 
d="M567 1434q223 0 352.5 -176t129.5 -513q0 -181 -40 -329.5t-108 -244t-156 -147t-186 -51.5q-97 0 -196 35t-158 84q-13 134 -10 270h28q38 -148 125.5 -247t206.5 -99q72 0 133.5 35t105 96t75 141.5t46.5 172t15 188.5v80q-67 -89 -167.5 -139.5t-213.5 -50.5
q-116 0 -213 53.5t-156 156.5t-59 236q0 196 124.5 322.5t321.5 126.5zM563 584q68 0 132.5 28.5t115 79.5t81 128t30.5 167q0 172 -99.5 289t-247.5 117q-149 0 -242 -116.5t-93 -295.5q0 -174 91 -285.5t232 -111.5z" />
    <glyph glyph-name="colon" unicode=":" horiz-adv-x="442" 
d="M221 782q-41 0 -68.5 28.5t-27.5 68.5t27.5 68t68.5 28q40 0 68 -28t28 -68t-28 -68.5t-68 -28.5zM221 -16q-41 0 -68.5 27.5t-27.5 68.5q0 40 27.5 68t68.5 28q40 0 68 -28t28 -68q0 -41 -28 -68.5t-68 -27.5z" />
    <glyph glyph-name="semicolon" unicode=";" horiz-adv-x="423" 
d="M199 782q-40 0 -68.5 28.5t-28.5 68.5t28.5 68t68.5 28t68 -28t28 -68t-28 -68.5t-68 -28.5zM59 -205q74 44 100.5 84.5t26.5 87.5q0 55 -31 87t-77 34l-6 21q47 27 137 73q42 -23 66 -64.5t24 -88.5q0 -65 -62 -136.5t-165 -123.5z" />
    <glyph glyph-name="less" unicode="&#x3c;" 
d="M207 403q-13 0 -19 -2v-200q4 -2 19 -2q37 0 50 25t13 77q0 54 -13 78t-50 24zM518 330v-49h-82v-78h96v-49h-155v297h155v-52h-96v-69h82zM203 150q-47 0 -74 4v292q61 9 76 9q67 0 96 -37.5t29 -116.5t-29.5 -115t-97.5 -36zM586 451h80l39 -164l38 164h82
q3 -45 13 -297h-60q0 108 -6 213l-41 -168h-55l-41 168h-2q-4 -140 -4 -213h-58q3 156 15 297zM987 150q-60 0 -84 35.5t-24 115.5q0 81 24 117.5t84 36.5t85.5 -37t25.5 -117q0 -79 -25.5 -115t-85.5 -36zM987 403q-29 0 -39 -23.5t-10 -78.5q0 -54 10 -78t39 -24
q30 0 40.5 24t10.5 78q0 55 -10 78.5t-41 23.5zM967 1016q49 0 79.5 -24.5t39 -51t8.5 -53.5q0 -43 -34.5 -72.5t-72.5 -34.5q-213 -23 -340 -147q3 8 9 22t25 53.5t39 75.5t50 80.5t59.5 76t66 53.5t71.5 22zM285 909q39 0 78 -21t69.5 -55t58.5 -74.5t48 -81.5t35 -75
t22 -55l8 -21q-117 148 -319 148q-49 0 -88 30t-39 76q0 53 33.5 91t93.5 38zM643 1214q38 -37 48.5 -102t-2.5 -131t-31.5 -126.5t-35.5 -98.5l-18 -39q20 191 -125 330q-35 35 -42 81.5t24 83.5q23 23 53 34t65 3.5t64 -35.5z" />
    <glyph glyph-name="equal" unicode="=" 
d="M207 403q-13 0 -19 -2v-200q4 -2 19 -2q37 0 50 25t13 77q0 54 -13 78t-50 24zM518 330v-49h-82v-78h96v-49h-155v297h155v-52h-96v-69h82zM203 150q-47 0 -74 4v292q61 9 76 9q67 0 96 -37.5t29 -116.5t-29.5 -115t-97.5 -36zM586 451h80l39 -164l38 164h82
q3 -45 13 -297h-60q0 108 -6 213l-41 -168h-55l-41 168h-2q-4 -140 -4 -213h-58q3 156 15 297zM987 150q-60 0 -84 35.5t-24 115.5q0 81 24 117.5t84 36.5t85.5 -37t25.5 -117q0 -79 -25.5 -115t-85.5 -36zM987 403q-29 0 -39 -23.5t-10 -78.5q0 -54 10 -78t39 -24
q30 0 40.5 24t10.5 78q0 55 -10 78.5t-41 23.5zM967 1016q49 0 79.5 -24.5t39 -51t8.5 -53.5q0 -43 -34.5 -72.5t-72.5 -34.5q-213 -23 -340 -147q3 8 9 22t25 53.5t39 75.5t50 80.5t59.5 76t66 53.5t71.5 22zM285 909q39 0 78 -21t69.5 -55t58.5 -74.5t48 -81.5t35 -75
t22 -55l8 -21q-117 148 -319 148q-49 0 -88 30t-39 76q0 53 33.5 91t93.5 38zM643 1214q38 -37 48.5 -102t-2.5 -131t-31.5 -126.5t-35.5 -98.5l-18 -39q20 191 -125 330q-35 35 -42 81.5t24 83.5q23 23 53 34t65 3.5t64 -35.5z" />
    <glyph glyph-name="greater" unicode="&#x3e;" 
d="M207 403q-13 0 -19 -2v-200q4 -2 19 -2q37 0 50 25t13 77q0 54 -13 78t-50 24zM518 330v-49h-82v-78h96v-49h-155v297h155v-52h-96v-69h82zM203 150q-47 0 -74 4v292q61 9 76 9q67 0 96 -37.5t29 -116.5t-29.5 -115t-97.5 -36zM586 451h80l39 -164l38 164h82
q3 -45 13 -297h-60q0 108 -6 213l-41 -168h-55l-41 168h-2q-4 -140 -4 -213h-58q3 156 15 297zM987 150q-60 0 -84 35.5t-24 115.5q0 81 24 117.5t84 36.5t85.5 -37t25.5 -117q0 -79 -25.5 -115t-85.5 -36zM987 403q-29 0 -39 -23.5t-10 -78.5q0 -54 10 -78t39 -24
q30 0 40.5 24t10.5 78q0 55 -10 78.5t-41 23.5zM967 1016q49 0 79.5 -24.5t39 -51t8.5 -53.5q0 -43 -34.5 -72.5t-72.5 -34.5q-213 -23 -340 -147q3 8 9 22t25 53.5t39 75.5t50 80.5t59.5 76t66 53.5t71.5 22zM285 909q39 0 78 -21t69.5 -55t58.5 -74.5t48 -81.5t35 -75
t22 -55l8 -21q-117 148 -319 148q-49 0 -88 30t-39 76q0 53 33.5 91t93.5 38zM643 1214q38 -37 48.5 -102t-2.5 -131t-31.5 -126.5t-35.5 -98.5l-18 -39q20 191 -125 330q-35 35 -42 81.5t24 83.5q23 23 53 34t65 3.5t64 -35.5z" />
    <glyph glyph-name="question" unicode="?" horiz-adv-x="942" 
d="M340 326v123q0 59 20 113.5t52 97.5t70.5 85t77 85t70.5 87.5t52 102.5t20 121q0 75 -25 135.5t-82.5 100.5t-139.5 40q-62 0 -111.5 -28.5t-86.5 -82.5t-63 -117t-49 -147h-30q-13 159 -13 295q64 57 153 90t185 33q179 0 282 -86.5t103 -230.5q0 -73 -23.5 -139
t-61 -115.5t-83 -96t-91 -89t-83 -85.5t-61 -94.5t-23.5 -107.5v-90h-59zM377 -16q-40 0 -68 27.5t-28 68.5q0 40 28 68t68 28q41 0 68.5 -28t27.5 -68q0 -41 -27.5 -68.5t-68.5 -27.5z" />
    <glyph glyph-name="at" unicode="@" 
d="M207 403q-13 0 -19 -2v-200q4 -2 19 -2q37 0 50 25t13 77q0 54 -13 78t-50 24zM518 330v-49h-82v-78h96v-49h-155v297h155v-52h-96v-69h82zM203 150q-47 0 -74 4v292q61 9 76 9q67 0 96 -37.5t29 -116.5t-29.5 -115t-97.5 -36zM586 451h80l39 -164l38 164h82
q3 -45 13 -297h-60q0 108 -6 213l-41 -168h-55l-41 168h-2q-4 -140 -4 -213h-58q3 156 15 297zM987 150q-60 0 -84 35.5t-24 115.5q0 81 24 117.5t84 36.5t85.5 -37t25.5 -117q0 -79 -25.5 -115t-85.5 -36zM987 403q-29 0 -39 -23.5t-10 -78.5q0 -54 10 -78t39 -24
q30 0 40.5 24t10.5 78q0 55 -10 78.5t-41 23.5zM967 1016q49 0 79.5 -24.5t39 -51t8.5 -53.5q0 -43 -34.5 -72.5t-72.5 -34.5q-213 -23 -340 -147q3 8 9 22t25 53.5t39 75.5t50 80.5t59.5 76t66 53.5t71.5 22zM285 909q39 0 78 -21t69.5 -55t58.5 -74.5t48 -81.5t35 -75
t22 -55l8 -21q-117 148 -319 148q-49 0 -88 30t-39 76q0 53 33.5 91t93.5 38zM643 1214q38 -37 48.5 -102t-2.5 -131t-31.5 -126.5t-35.5 -98.5l-18 -39q20 191 -125 330q-35 35 -42 81.5t24 83.5q23 23 53 34t65 3.5t64 -35.5z" />
    <glyph glyph-name="A" unicode="A" horiz-adv-x="1437" 
d="M1184 371q66 -168 98 -220q54 -88 140 -117q13 -4 26 -7v-27q-95 10 -234 10q-138 0 -243 -10v27q113 25 139.5 91t-23.5 193l-71 183h-645l-47 -111q-33 -77 -45.5 -135.5t-3.5 -105.5t47.5 -76t107.5 -39v-27q-126 12 -242 12q-110 0 -198 -12v27q74 21 132.5 97
t123.5 232l471 1098h31zM391 541h608l-290 749z" />
    <glyph glyph-name="B" unicode="B" horiz-adv-x="1269" 
d="M795 762q176 -33 259 -132.5t83 -230.5q0 -121 -73 -213.5t-192.5 -139t-265.5 -46.5h-538v27q51 10 85 29t55 44.5t32 68t14.5 87.5t3.5 117v706q0 126 -15.5 190t-53 94.5t-115.5 43.5v27h518q133 0 239.5 -38.5t173 -120t66.5 -194.5q0 -119 -73 -203.5t-203 -115.5z
M557 1389q-82 0 -201 -7v-604h267q144 0 233.5 80t89.5 227q0 149 -98.5 226.5t-290.5 77.5zM874 119q132 96 132 280q0 159 -104 245.5t-298 86.5h-248v-500q0 -102 37 -147q20 -23 57 -31t103 -8q214 0 321 74z" />
    <glyph glyph-name="C" unicode="C" horiz-adv-x="1396" 
d="M801 -25q-148 0 -278 56t-223.5 154t-147.5 236.5t-54 297.5q0 210 90.5 379t251 264.5t359.5 95.5q108 0 233.5 -32t216.5 -91q9 -179 6 -360h-28q-18 87 -54 163.5t-91.5 139.5t-137.5 100t-180 37q-112 0 -208.5 -46.5t-168.5 -133.5t-113 -220.5t-41 -297.5
q0 -163 43.5 -296.5t119 -220t175.5 -133.5t215 -47q107 0 202.5 58t157 150.5t81.5 199.5h28q3 -166 -6 -332q-92 -61 -217 -91t-231 -30z" />
    <glyph glyph-name="D" unicode="D" horiz-adv-x="1454" 
d="M68 0v27q110 15 150 93t40 253v688q0 44 -0.5 70t-3 62t-7.5 57t-13.5 47t-22 41.5t-32.5 31t-45.5 24.5t-59.5 13v27q96 -2 260 -2q37 0 134 1t165 1q169 0 306 -52.5t228 -147t140 -226.5t49 -291q0 -152 -54 -285.5t-147 -228t-223.5 -149t-278.5 -54.5q-41 0 -176 1
t-211 1q-141 0 -198 -2zM668 49q113 2 212.5 47.5t175 127.5t119.5 209t44 282q0 333 -156 501t-451 168q-126 0 -252 -6v-1011q0 -149 36.5 -227t121.5 -85q70 -6 150 -6z" />
    <glyph glyph-name="E" unicode="E" horiz-adv-x="1200" 
d="M1057 362h28q-3 -200 -14 -362q-228 6 -438 6q-251 0 -565 -6v27q111 14 150.5 92t39.5 254v688q0 46 -0.5 70.5t-2.5 61.5t-7 57.5t-13.5 47.5t-22 42t-32.5 31t-45.5 24t-60.5 12v27q226 -7 415 -7q192 0 558 7q6 -170 6 -340h-29q-27 96 -57.5 153t-77.5 88t-100.5 40
t-143.5 9q-199 0 -285 -6v-606h279q89 0 139 66t62 166h28q-6 -99 -6 -250q0 -152 6 -254h-28q-12 98 -62 161.5t-139 63.5h-279v-342q0 -179 43 -255.5t168 -76.5q113 0 183 -2q113 -3 189.5 80.5t113.5 232.5z" />
    <glyph glyph-name="F" unicode="F" horiz-adv-x="1120" 
d="M1006 1434q6 -170 6 -340h-29q-27 91 -58.5 148.5t-76 88t-92.5 41t-121 10.5q-143 0 -275 -6v-637h261q89 0 138.5 66t61.5 166h29q-6 -99 -6 -252q0 -150 6 -252h-29q-12 98 -61.5 161.5t-138.5 63.5h-261v-319q0 -162 57.5 -247t176.5 -99v-27q-122 10 -264 10
t-262 -10v27q112 13 151 92.5t39 253.5v688q0 75 -1.5 110t-10.5 86.5t-27.5 75.5t-54.5 45.5t-90 28.5v27q15 0 165.5 -3.5t252.5 -3.5q148 0 514 7z" />
    <glyph glyph-name="G" unicode="G" horiz-adv-x="1501" 
d="M809 -25q-145 0 -275.5 56t-226.5 153t-152.5 237t-56.5 300q0 156 53.5 293.5t146 234.5t221.5 153t276 56q110 0 237.5 -31.5t220.5 -89.5q10 -196 7 -362h-29q-18 87 -54.5 162.5t-92.5 139t-138 100t-182 36.5q-233 0 -379.5 -190t-146.5 -500q0 -166 44 -300.5
t121 -221.5t179.5 -134t220.5 -47q113 0 217.5 42t175.5 118v170q0 75 -25.5 128t-73 81t-100.5 41t-123 16v29h586v-29q-95 -8 -129.5 -49.5t-34.5 -154.5v-267q-99 -78 -225 -124t-262 -46z" />
    <glyph glyph-name="H" unicode="H" horiz-adv-x="1511" 
d="M1255 375q0 -174 40.5 -255t150.5 -93v-27q-110 10 -238 10q-132 0 -239 -10v27q186 23 186 350v348h-797v-348q0 -327 185 -350v-27q-107 10 -236 10q-131 0 -239 -10v27q109 12 149.5 93t40.5 255v682q0 193 -35.5 265t-148.5 85v27q154 -11 233 -11q76 0 230 11v-27
q-54 -7 -90 -33t-55 -73.5t-26.5 -105.5t-7.5 -140v-283h797v283q0 167 -38 253t-142 99v27q154 -11 233 -11q74 0 232 11v-27q-113 -13 -149 -85t-36 -265v-682z" />
    <glyph glyph-name="I" unicode="I" horiz-adv-x="618" 
d="M68 0v27q111 13 150.5 93t39.5 253v688q0 191 -35 262t-149 84v27q154 -11 235 -11q118 0 236 11v-27q-113 -13 -149 -84.5t-36 -261.5v-688q0 -173 40 -253t151 -93v-27q-107 10 -242 10q-131 0 -241 -10z" />
    <glyph glyph-name="J" unicode="J" horiz-adv-x="620" 
d="M-55 -389l-11 18q77 38 135.5 89t106.5 126.5t73 184.5t25 247v785q0 47 -1 74.5t-5 67.5t-11.5 64t-22.5 52t-36 44t-53 28.5t-73 15.5v27q161 -11 241 -11q81 0 246 11v-27q-112 -12 -147 -82.5t-35 -263.5v-828q0 -75 -9.5 -143t-38.5 -145.5t-75 -139t-125.5 -114
t-183.5 -80.5z" />
    <glyph glyph-name="K" unicode="K" horiz-adv-x="1400" 
d="M1057 285q69 -103 142 -167t171 -91v-27q-82 6 -162 6q-100 0 -153 -6q-45 138 -133 270l-340 512l-226 -227v-182q0 -165 46 -247t151 -99v-27q-97 10 -227 10q-136 0 -258 -10v27q110 13 150 93t40 253v686q0 190 -36 262.5t-148 85.5v27q154 -11 231 -11q116 0 234 11
v-27q-112 -13 -147.5 -84.5t-35.5 -263.5v-436l422 424q168 174 168 251q0 40 -38 70.5t-93 38.5v27q124 -9 229 -9q116 0 226 9v-27q-58 -21 -108 -53.5t-67.5 -49t-58.5 -57.5l-374 -383z" />
    <glyph glyph-name="L" unicode="L" horiz-adv-x="1107" 
d="M68 0v27q113 15 153.5 92.5t40.5 253.5v688q0 75 -1.5 110t-10.5 86.5t-27.5 75.5t-54.5 45.5t-90 28.5v27q154 -11 233 -11q71 0 236 11v-27q-111 -12 -146.5 -84t-35.5 -262v-723q0 -146 46 -215.5t160 -69.5q150 0 201 9t109 51q52 38 94.5 109.5t60.5 160.5h29
q-3 -211 -14 -383q-228 6 -416 6q-247 0 -567 -6z" />
    <glyph glyph-name="M" unicode="M" horiz-adv-x="1855" 
d="M1599 373q0 -172 40.5 -252.5t148.5 -93.5v-27q-115 10 -244 10q-123 0 -213 -10v27q95 13 134.5 96t39.5 254v936l-557 -1319h-28l-592 1290v-842q0 -391 221 -415v-27q-100 10 -250 10q-146 0 -231 -10v27q59 7 99.5 40.5t62.5 92t31 126t9 156.5v658q0 144 -42 218
t-142 89v27q72 -7 150 -7q70 0 145 7l582 -1266l524 1266q65 -7 125 -7q67 0 170 7v-27q-111 -12 -147 -83.5t-36 -262.5v-688z" />
    <glyph glyph-name="N" unicode="N" horiz-adv-x="1511" 
d="M1239 1423q95 0 223 11v-27q-115 -13 -155.5 -108.5t-40.5 -297.5v-1015h-33l-905 1292v-848q0 -73 4.5 -126t18 -106t37 -86.5t64.5 -56.5t97 -28v-27q-87 10 -250 10q-160 0 -231 -10v27q112 13 157 117t45 286v561q0 198 -45.5 301t-156.5 115v27q119 -7 163 -7
q58 0 123 7l854 -1211v778q0 198 -48 296.5t-171 109.5v27q161 -11 250 -11z" />
    <glyph glyph-name="O" unicode="O" horiz-adv-x="1525" 
d="M762 -25q-138 0 -259.5 53.5t-211 148.5t-141.5 235t-52 305q0 164 52 303.5t141.5 235t211 149t259.5 53.5q136 0 257.5 -53.5t211 -149t142 -235t52.5 -303.5q0 -165 -52.5 -305t-142 -235t-211 -148.5t-257.5 -53.5zM762 18q79 0 153.5 25.5t142.5 81t119 135.5
t81 198t30 259t-30 259t-81 198t-119 135t-142.5 80.5t-153.5 25.5q-78 0 -152 -25.5t-142 -80.5t-119 -135t-81 -198t-30 -259t30 -259t81 -198t119 -135.5t142 -81t152 -25.5z" />
    <glyph glyph-name="P" unicode="P" horiz-adv-x="1159" 
d="M565 651h-207v-278q0 -319 226 -346v-27q-115 10 -256 10q-140 0 -260 -10v27q111 14 150.5 92t39.5 254v729q0 162 -38 225t-146 80v27h530q129 0 235.5 -43.5t173 -132t66.5 -207.5q0 -176 -141.5 -288t-372.5 -112zM590 1389q-150 0 -232 -7v-684h230q166 0 265 98.5
t99 254.5q0 158 -101.5 248t-260.5 90z" />
    <glyph glyph-name="Q" unicode="Q" horiz-adv-x="1525" 
d="M1475 -231l14 -23q-113 -118 -256 -229q-163 67 -291.5 187t-200.5 271q-134 4 -252 59.5t-204.5 150.5t-136.5 232.5t-50 299.5q0 164 52 303.5t141.5 235t211 149t259.5 53.5q136 0 257.5 -53.5t211 -149t142 -235t52.5 -303.5q0 -159 -49 -295.5t-134 -231.5
t-199.5 -151.5t-243.5 -63.5q69 -122 189.5 -201t248.5 -79q120 0 238 74zM238 717q0 -141 30 -259t81 -198t119 -135.5t142 -81t152 -25.5q79 0 153.5 25.5t142.5 81t119 135.5t81 198t30 259t-30 259t-81 198t-119 135t-142.5 80.5t-153.5 25.5q-78 0 -152 -25.5
t-142 -80.5t-119 -135t-81 -198t-30 -259z" />
    <glyph glyph-name="R" unicode="R" horiz-adv-x="1275" 
d="M983 313q178 -243 313 -288v-25q-86 6 -139 6q-79 0 -141 -6q-14 51 -57.5 140.5t-81.5 140.5l-213 299q-44 60 -77.5 79t-86.5 21h-144v-307q0 -181 43.5 -257.5t141.5 -88.5v-27q-103 10 -234 10t-239 -10v27q110 13 150 93t40 253v706q0 123 -16.5 188t-54.5 96
t-113 44v27h499q134 0 243.5 -41t178 -126t68.5 -200q0 -135 -101 -237.5t-255 -135.5zM356 727h224q164 0 260 96t96 240q0 155 -105 240.5t-272 85.5q-100 0 -203 -7v-655z" />
    <glyph glyph-name="S" unicode="S" horiz-adv-x="1017" 
d="M471 -25q-114 0 -219 24t-162 62q-11 176 -8 322h29q42 -181 131.5 -274t251.5 -93q147 0 234 86t87 201q0 76 -39 137.5t-101 103.5t-137 81t-150 81.5t-137 92.5t-101 125.5t-39 169.5q0 73 25.5 135t67.5 103.5t96.5 70.5t111 42t112.5 13q80 0 172 -22t154 -62
q9 -142 6 -303h-29q-41 159 -125 252.5t-198 93.5q-127 0 -209 -85t-82 -218q0 -62 24.5 -114t65.5 -89.5t94.5 -70.5t112.5 -62t117.5 -58.5t112 -66t94.5 -78.5t65.5 -101t24.5 -130q0 -161 -120.5 -265t-332.5 -104z" />
    <glyph glyph-name="T" unicode="T" horiz-adv-x="1280" 
d="M1171 1434l33 -359h-26q-54 168 -128.5 239.5t-211.5 71.5q-50 0 -148 -4l2 -942q0 -63 2 -106t9 -93t21.5 -83t37 -63t58 -46.5t83.5 -21.5v-27q-117 10 -264 10q-145 0 -262 -10v27q48 5 83.5 21.5t58 46.5t37 63t21.5 83t9 93t2 106l2 942q-98 4 -148 4
q-137 0 -211.5 -71.5t-128.5 -239.5h-28l32 359h1065z" />
    <glyph glyph-name="U" unicode="U" horiz-adv-x="1533" 
d="M1274 408q0 -185 50.5 -267.5t148.5 -95.5v-27q-188 -3 -281 -30q-31 105 -31 274q0 72 6 133q-28 -81 -70.5 -151.5t-104.5 -133t-149 -99t-188 -36.5q-225 0 -340 154q-92 124 -92 479v453q0 80 -6 134t-23 102.5t-50.5 75.5t-84.5 34v27q139 -11 215 -11q113 0 218 11
v-27q-95 -12 -129.5 -90t-34.5 -264v-445q0 -350 104 -467q93 -108 246 -108q91 0 172.5 42t139.5 109.5t100.5 151.5t63 168t20.5 158v389q0 68 -4 116.5t-15 93.5t-30 73.5t-51 47.5t-77 25v27q147 -11 234 -11q104 0 225 11v-27q-107 -12 -144.5 -87t-37.5 -263v-649z
" />
    <glyph glyph-name="V" unicode="V" horiz-adv-x="1484" 
d="M1270 1425q81 0 209 9v-27q-32 -6 -57 -15.5t-46 -28t-36 -35.5t-33 -52t-30 -62t-34 -79l-483 -1164h-31l-467 1114q-65 154 -94 202q-64 104 -157 119q-4 1 -7 1v27q167 -9 232 -9q58 0 243 9v-27q-145 -33 -145 -160q0 -55 28 -125l410 -972l371 899q47 108 47 196
q0 145 -148 162v27q158 -9 228 -9z" />
    <glyph glyph-name="W" unicode="W" horiz-adv-x="2160" 
d="M1931 1425q111 0 226 9v-27q-91 -14 -138 -72.5t-98 -199.5l-420 -1162h-31l-380 1076l-396 -1076h-30l-398 1112q-51 137 -81 188q-70 118 -181 134v27q175 -9 242 -9q58 0 252 9v-27q-154 -33 -154 -168q0 -57 23 -119l342 -954l346 977q-47 129 -92.5 191t-126.5 73
v27q180 -9 237 -9q51 0 236 9v-27q-78 -13 -117 -57t-39 -113q0 -50 25 -117l335 -954l310 883q41 118 41 198q0 71 -39.5 110.5t-126.5 49.5v27q128 -9 233 -9z" />
    <glyph glyph-name="X" unicode="X" horiz-adv-x="1427" 
d="M1100 291q160 -233 323 -264v-27q-137 10 -247 10q-108 0 -258 -10v27q54 16 82 42.5t30 63.5t-15.5 80t-53.5 96l-281 408l-279 -416q-142 -214 48 -274v-27q-120 10 -220 10q-104 0 -206 -10v27q155 41 299 254l325 485l-270 391q-144 211 -293 250v27q189 -9 219 -9
q29 0 223 9v-27q-87 -22 -88.5 -87t82.5 -185l213 -310l223 328q47 71 56.5 121.5t-18 83t-93.5 49.5v27q171 -9 205 -9q36 0 207 9v-27q-76 -16 -145.5 -72t-143.5 -168l-260 -389z" />
    <glyph glyph-name="Y" unicode="Y" horiz-adv-x="1292" 
d="M1096 1425q97 0 207 9v-27q-50 -13 -80.5 -34.5t-65.5 -68t-102 -153.5l-346 -555v-223q0 -174 38.5 -253.5t147.5 -92.5v-27q-150 10 -240 10q-94 0 -237 -10v27q108 13 148 93.5t40 252.5v221l-330 539q-55 90 -86.5 137t-62 78t-53.5 41.5t-60 17.5v27q148 -9 217 -9
q81 0 234 9v-27q-129 -30 -129 -119q0 -61 59 -153l293 -484l305 508q37 61 37 115q0 53 -35 88t-100 45v27q115 -9 201 -9z" />
    <glyph glyph-name="Z" unicode="Z" horiz-adv-x="1255" 
d="M1128 383h29q-4 -252 -10 -383q-53 1 -146 2.5t-172 2.5t-155 1q-4 0 -574 -6v27l879 1347q-166 6 -393 6q-73 0 -121 -6t-95 -24t-78.5 -52t-58.5 -89.5t-49 -137.5h-28q0 121 8 363q287 -7 510 -7q254 0 459 7v-27l-881 -1350q82 -2 248 -2q214 0 331 4q99 3 181 86.5
t116 237.5z" />
    <glyph glyph-name="bracketleft" unicode="[" 
d="M207 403q-13 0 -19 -2v-200q4 -2 19 -2q37 0 50 25t13 77q0 54 -13 78t-50 24zM518 330v-49h-82v-78h96v-49h-155v297h155v-52h-96v-69h82zM203 150q-47 0 -74 4v292q61 9 76 9q67 0 96 -37.5t29 -116.5t-29.5 -115t-97.5 -36zM586 451h80l39 -164l38 164h82
q3 -45 13 -297h-60q0 108 -6 213l-41 -168h-55l-41 168h-2q-4 -140 -4 -213h-58q3 156 15 297zM987 150q-60 0 -84 35.5t-24 115.5q0 81 24 117.5t84 36.5t85.5 -37t25.5 -117q0 -79 -25.5 -115t-85.5 -36zM987 403q-29 0 -39 -23.5t-10 -78.5q0 -54 10 -78t39 -24
q30 0 40.5 24t10.5 78q0 55 -10 78.5t-41 23.5zM967 1016q49 0 79.5 -24.5t39 -51t8.5 -53.5q0 -43 -34.5 -72.5t-72.5 -34.5q-213 -23 -340 -147q3 8 9 22t25 53.5t39 75.5t50 80.5t59.5 76t66 53.5t71.5 22zM285 909q39 0 78 -21t69.5 -55t58.5 -74.5t48 -81.5t35 -75
t22 -55l8 -21q-117 148 -319 148q-49 0 -88 30t-39 76q0 53 33.5 91t93.5 38zM643 1214q38 -37 48.5 -102t-2.5 -131t-31.5 -126.5t-35.5 -98.5l-18 -39q20 191 -125 330q-35 35 -42 81.5t24 83.5q23 23 53 34t65 3.5t64 -35.5z" />
    <glyph glyph-name="backslash" unicode="\" 
d="M207 403q-13 0 -19 -2v-200q4 -2 19 -2q37 0 50 25t13 77q0 54 -13 78t-50 24zM518 330v-49h-82v-78h96v-49h-155v297h155v-52h-96v-69h82zM203 150q-47 0 -74 4v292q61 9 76 9q67 0 96 -37.5t29 -116.5t-29.5 -115t-97.5 -36zM586 451h80l39 -164l38 164h82
q3 -45 13 -297h-60q0 108 -6 213l-41 -168h-55l-41 168h-2q-4 -140 -4 -213h-58q3 156 15 297zM987 150q-60 0 -84 35.5t-24 115.5q0 81 24 117.5t84 36.5t85.5 -37t25.5 -117q0 -79 -25.5 -115t-85.5 -36zM987 403q-29 0 -39 -23.5t-10 -78.5q0 -54 10 -78t39 -24
q30 0 40.5 24t10.5 78q0 55 -10 78.5t-41 23.5zM967 1016q49 0 79.5 -24.5t39 -51t8.5 -53.5q0 -43 -34.5 -72.5t-72.5 -34.5q-213 -23 -340 -147q3 8 9 22t25 53.5t39 75.5t50 80.5t59.5 76t66 53.5t71.5 22zM285 909q39 0 78 -21t69.5 -55t58.5 -74.5t48 -81.5t35 -75
t22 -55l8 -21q-117 148 -319 148q-49 0 -88 30t-39 76q0 53 33.5 91t93.5 38zM643 1214q38 -37 48.5 -102t-2.5 -131t-31.5 -126.5t-35.5 -98.5l-18 -39q20 191 -125 330q-35 35 -42 81.5t24 83.5q23 23 53 34t65 3.5t64 -35.5z" />
    <glyph glyph-name="bracketright" unicode="]" 
d="M207 403q-13 0 -19 -2v-200q4 -2 19 -2q37 0 50 25t13 77q0 54 -13 78t-50 24zM518 330v-49h-82v-78h96v-49h-155v297h155v-52h-96v-69h82zM203 150q-47 0 -74 4v292q61 9 76 9q67 0 96 -37.5t29 -116.5t-29.5 -115t-97.5 -36zM586 451h80l39 -164l38 164h82
q3 -45 13 -297h-60q0 108 -6 213l-41 -168h-55l-41 168h-2q-4 -140 -4 -213h-58q3 156 15 297zM987 150q-60 0 -84 35.5t-24 115.5q0 81 24 117.5t84 36.5t85.5 -37t25.5 -117q0 -79 -25.5 -115t-85.5 -36zM987 403q-29 0 -39 -23.5t-10 -78.5q0 -54 10 -78t39 -24
q30 0 40.5 24t10.5 78q0 55 -10 78.5t-41 23.5zM967 1016q49 0 79.5 -24.5t39 -51t8.5 -53.5q0 -43 -34.5 -72.5t-72.5 -34.5q-213 -23 -340 -147q3 8 9 22t25 53.5t39 75.5t50 80.5t59.5 76t66 53.5t71.5 22zM285 909q39 0 78 -21t69.5 -55t58.5 -74.5t48 -81.5t35 -75
t22 -55l8 -21q-117 148 -319 148q-49 0 -88 30t-39 76q0 53 33.5 91t93.5 38zM643 1214q38 -37 48.5 -102t-2.5 -131t-31.5 -126.5t-35.5 -98.5l-18 -39q20 191 -125 330q-35 35 -42 81.5t24 83.5q23 23 53 34t65 3.5t64 -35.5z" />
    <glyph glyph-name="asciicircum" unicode="^" 
d="M207 403q-13 0 -19 -2v-200q4 -2 19 -2q37 0 50 25t13 77q0 54 -13 78t-50 24zM518 330v-49h-82v-78h96v-49h-155v297h155v-52h-96v-69h82zM203 150q-47 0 -74 4v292q61 9 76 9q67 0 96 -37.5t29 -116.5t-29.5 -115t-97.5 -36zM586 451h80l39 -164l38 164h82
q3 -45 13 -297h-60q0 108 -6 213l-41 -168h-55l-41 168h-2q-4 -140 -4 -213h-58q3 156 15 297zM987 150q-60 0 -84 35.5t-24 115.5q0 81 24 117.5t84 36.5t85.5 -37t25.5 -117q0 -79 -25.5 -115t-85.5 -36zM987 403q-29 0 -39 -23.5t-10 -78.5q0 -54 10 -78t39 -24
q30 0 40.5 24t10.5 78q0 55 -10 78.5t-41 23.5zM967 1016q49 0 79.5 -24.5t39 -51t8.5 -53.5q0 -43 -34.5 -72.5t-72.5 -34.5q-213 -23 -340 -147q3 8 9 22t25 53.5t39 75.5t50 80.5t59.5 76t66 53.5t71.5 22zM285 909q39 0 78 -21t69.5 -55t58.5 -74.5t48 -81.5t35 -75
t22 -55l8 -21q-117 148 -319 148q-49 0 -88 30t-39 76q0 53 33.5 91t93.5 38zM643 1214q38 -37 48.5 -102t-2.5 -131t-31.5 -126.5t-35.5 -98.5l-18 -39q20 191 -125 330q-35 35 -42 81.5t24 83.5q23 23 53 34t65 3.5t64 -35.5z" />
    <glyph glyph-name="underscore" unicode="_" 
d="M207 403q-13 0 -19 -2v-200q4 -2 19 -2q37 0 50 25t13 77q0 54 -13 78t-50 24zM518 330v-49h-82v-78h96v-49h-155v297h155v-52h-96v-69h82zM203 150q-47 0 -74 4v292q61 9 76 9q67 0 96 -37.5t29 -116.5t-29.5 -115t-97.5 -36zM586 451h80l39 -164l38 164h82
q3 -45 13 -297h-60q0 108 -6 213l-41 -168h-55l-41 168h-2q-4 -140 -4 -213h-58q3 156 15 297zM987 150q-60 0 -84 35.5t-24 115.5q0 81 24 117.5t84 36.5t85.5 -37t25.5 -117q0 -79 -25.5 -115t-85.5 -36zM987 403q-29 0 -39 -23.5t-10 -78.5q0 -54 10 -78t39 -24
q30 0 40.5 24t10.5 78q0 55 -10 78.5t-41 23.5zM967 1016q49 0 79.5 -24.5t39 -51t8.5 -53.5q0 -43 -34.5 -72.5t-72.5 -34.5q-213 -23 -340 -147q3 8 9 22t25 53.5t39 75.5t50 80.5t59.5 76t66 53.5t71.5 22zM285 909q39 0 78 -21t69.5 -55t58.5 -74.5t48 -81.5t35 -75
t22 -55l8 -21q-117 148 -319 148q-49 0 -88 30t-39 76q0 53 33.5 91t93.5 38zM643 1214q38 -37 48.5 -102t-2.5 -131t-31.5 -126.5t-35.5 -98.5l-18 -39q20 191 -125 330q-35 35 -42 81.5t24 83.5q23 23 53 34t65 3.5t64 -35.5z" />
    <glyph glyph-name="grave" unicode="`" 
d="M207 403q-13 0 -19 -2v-200q4 -2 19 -2q37 0 50 25t13 77q0 54 -13 78t-50 24zM518 330v-49h-82v-78h96v-49h-155v297h155v-52h-96v-69h82zM203 150q-47 0 -74 4v292q61 9 76 9q67 0 96 -37.5t29 -116.5t-29.5 -115t-97.5 -36zM586 451h80l39 -164l38 164h82
q3 -45 13 -297h-60q0 108 -6 213l-41 -168h-55l-41 168h-2q-4 -140 -4 -213h-58q3 156 15 297zM987 150q-60 0 -84 35.5t-24 115.5q0 81 24 117.5t84 36.5t85.5 -37t25.5 -117q0 -79 -25.5 -115t-85.5 -36zM987 403q-29 0 -39 -23.5t-10 -78.5q0 -54 10 -78t39 -24
q30 0 40.5 24t10.5 78q0 55 -10 78.5t-41 23.5zM967 1016q49 0 79.5 -24.5t39 -51t8.5 -53.5q0 -43 -34.5 -72.5t-72.5 -34.5q-213 -23 -340 -147q3 8 9 22t25 53.5t39 75.5t50 80.5t59.5 76t66 53.5t71.5 22zM285 909q39 0 78 -21t69.5 -55t58.5 -74.5t48 -81.5t35 -75
t22 -55l8 -21q-117 148 -319 148q-49 0 -88 30t-39 76q0 53 33.5 91t93.5 38zM643 1214q38 -37 48.5 -102t-2.5 -131t-31.5 -126.5t-35.5 -98.5l-18 -39q20 191 -125 330q-35 35 -42 81.5t24 83.5q23 23 53 34t65 3.5t64 -35.5z" />
    <glyph glyph-name="a" unicode="a" horiz-adv-x="999" 
d="M805 270q0 -123 32 -180.5t103 -62.5v-27q-122 3 -225 -12q-19 120 -19 200q0 47 6 82q-46 -122 -143 -206t-217 -84q-108 0 -184 62t-76 175q0 73 34.5 131.5t92 97t137.5 64.5t166.5 38t183.5 13v109q0 61 -11 114t-35.5 100t-69.5 74t-107 27q-112 0 -171.5 -85
t-68.5 -241l-28 -6q-43 82 -72 170q44 94 137 144.5t217 50.5q159 0 238.5 -85.5t79.5 -262.5v-400zM367 27q76 0 154 60.5t126.5 147.5t48.5 162v129q-262 -7 -375.5 -78t-113.5 -221q0 -97 42 -148.5t118 -51.5z" />
    <glyph glyph-name="b" unicode="b" horiz-adv-x="1118" 
d="M612 1018q81 0 154 -32.5t130.5 -93t91.5 -157.5t34 -217q0 -126 -36.5 -229.5t-98.5 -170t-140.5 -102.5t-164.5 -36q-91 0 -163.5 37.5t-117.5 105.5v-2q-69 -83 -168 -146l-16 19q86 113 86 266v967q0 127 -31 176t-109 55v27q125 0 238 20v-559q0 -61 -8 -110
q52 85 135.5 133.5t183.5 48.5zM580 18q149 0 234 131t85 347q0 123 -26.5 216.5t-72 147.5t-100 80.5t-116.5 26.5q-91 0 -166.5 -54t-116.5 -139v-387q0 -163 73 -266t206 -103z" />
    <glyph glyph-name="c" unicode="c" horiz-adv-x="997" 
d="M516 -20q-186 0 -303 141.5t-117 357.5q0 241 129.5 390t321.5 149q124 0 203 -43t137 -117q-13 -90 -47 -205h-29q-39 156 -106.5 240t-176.5 84q-60 0 -113 -27t-97.5 -82.5t-70.5 -151.5t-26 -222q0 -217 80.5 -338t226.5 -121q32 0 65.5 6.5t73.5 24.5t73.5 46
t64.5 75.5t49 109.5l39 -10q-30 -143 -133.5 -225t-243.5 -82z" />
    <glyph glyph-name="d" unicode="d" horiz-adv-x="1120" 
d="M913 256q0 -115 35.5 -169t112.5 -60v-27q-138 0 -223 -16q-17 90 -17 198q0 26 4 92q-42 -127 -127.5 -210.5t-205.5 -83.5q-78 0 -149 35t-126.5 99.5t-88 164t-32.5 219.5q0 103 27.5 191t72.5 147.5t102.5 101.5t117 61t116.5 19q76 0 154.5 -38.5t134.5 -105.5
q-6 58 -6 119v234q0 127 -31 176t-106 55v27q118 0 235 20v-1249zM487 23q74 0 137 41t104 107.5t64 148t23 165.5v316q-102 168 -276 168q-154 0 -236 -126t-82 -347q0 -225 69.5 -349t196.5 -124z" />
    <glyph glyph-name="e" unicode="e" horiz-adv-x="1009" 
d="M551 41q101 0 186 61.5t133 196.5l39 -8q-37 -141 -142.5 -228.5t-240.5 -87.5q-82 0 -157.5 33t-137 95.5t-98.5 164t-37 226.5q0 233 119.5 378.5t306.5 145.5q55 0 107.5 -13t105.5 -46.5t93 -84t65.5 -132.5t26.5 -185h-697v-47q0 -217 89 -343t239 -126zM520 983
q-60 0 -109.5 -24.5t-82 -63.5t-55.5 -91t-34 -103t-14 -103h553q-6 181 -70 283t-188 102z" />
    <glyph glyph-name="f" unicode="f" horiz-adv-x="661" 
d="M557 1505q137 0 205 -104q-11 -82 -37 -184h-27q-61 239 -188 239q-78 0 -122 -91.5t-44 -277.5v-104h258v-43h-258v-678q0 -115 43.5 -163.5t147.5 -71.5v-27q-93 10 -220 10q-123 0 -213 -10v27q80 14 109 58t29 159v696h-140v43h140v70q0 206 87 329t230 123z" />
    <glyph glyph-name="g" unicode="g" horiz-adv-x="1087" 
d="M987 1026q-53 0 -98 -36t-68 -103q78 -91 78 -221q0 -158 -109.5 -256.5t-271.5 -98.5q-100 0 -184 41q-56 -24 -90.5 -62t-34.5 -89q0 -45 36.5 -77t104.5 -32h213q193 0 313.5 -85t120.5 -224q0 -101 -65.5 -176t-175 -112.5t-246.5 -37.5q-205 0 -339 82t-134 207
q0 89 75 160.5t179 103.5q-75 24 -115.5 71t-40.5 99q0 32 17 63.5t44.5 56t53 41.5t51.5 30q-75 45 -118.5 122t-43.5 173q0 157 109.5 254.5t271.5 97.5q172 0 279 -107q27 75 83 144t128 114q28 -41 86 -159l-19 -17q-44 33 -90 33zM518 346q122 0 191 86.5t69 235.5
q0 146 -68.5 230.5t-189.5 84.5q-122 0 -191 -84.5t-69 -230.5q0 -149 68.5 -235.5t189.5 -86.5zM553 -6h-141q-24 0 -60 4q-93 -23 -144.5 -93.5t-51.5 -150.5q0 -115 94 -185.5t256 -70.5q106 0 194.5 29t145.5 90.5t57 146.5q0 109 -100.5 169.5t-249.5 60.5z" />
    <glyph glyph-name="h" unicode="h" horiz-adv-x="1177" 
d="M983 244q0 -101 26.5 -153.5t98.5 -70.5v-26q-71 10 -182 10q-116 0 -203 -10v26q71 12 112.5 71t41.5 153v358q0 40 -2 72t-8 77.5t-19.5 79t-34.5 65t-56 48.5t-81 17q-85 0 -170 -56.5t-138 -144.5t-53 -174v-353q0 -110 33 -153.5t113 -59.5v-26q-79 10 -195 10
q-111 0 -196 -10v26q78 11 110.5 57t32.5 156v994q0 126 -33 175.5t-108 55.5v27q150 0 243 20v-645q0 -73 -14 -145q57 131 170 217t242 86q52 0 96.5 -17t85.5 -55.5t64.5 -111t23.5 -172.5v-418z" />
    <glyph glyph-name="i" unicode="i" horiz-adv-x="573" 
d="M276 1206q-38 0 -65 26.5t-27 63.5q0 38 27 65.5t65 27.5q37 0 64 -27.5t27 -65.5q0 -37 -27 -63.5t-64 -26.5zM94 0v27q69 13 107.5 63t38.5 158v479q0 112 -34.5 166.5t-107.5 62.5v27q130 0 234 23v-758q0 -114 33 -159.5t114 -61.5v-27q-92 10 -192 10
q-98 0 -193 -10z" />
    <glyph glyph-name="j" unicode="j" horiz-adv-x="534" 
d="M268 1206q-37 0 -63.5 26.5t-26.5 63.5q0 38 26.5 65.5t63.5 27.5t64.5 -27.5t27.5 -65.5q0 -37 -27.5 -63.5t-64.5 -26.5zM-53 -526q-43 112 -74 237l25 10q87 -145 186 -145q156 0 156 369v784q0 110 -39.5 164.5t-122.5 62.5v27q134 0 260 23v-1010q0 -241 -98.5 -375
t-292.5 -147z" />
    <glyph glyph-name="k" unicode="k" horiz-adv-x="1056" 
d="M766 260q31 -43 48.5 -64.5t56 -62.5t80.5 -67.5t89 -40.5v-25q-98 4 -137 4q-63 0 -129 -4q-34 129 -110 231l-232 316l-121 -115v-184q0 -112 33.5 -158.5t112.5 -62.5v-27q-79 10 -193 10q-109 0 -194 -10v27q69 13 108 63.5t39 157.5v981q0 215 -143 227v27
q124 0 237 22v-1020l267 254q48 44 72 79.5t24 74.5q0 31 -20 48t-66 26v26q84 -8 178 -8q97 0 170 8v-26q-35 -6 -75 -31t-68 -50t-78 -73l-211 -199z" />
    <glyph glyph-name="l" unicode="l" horiz-adv-x="518" 
d="M70 0v27q70 13 108.5 63t38.5 158v981q0 112 -34.5 166.5t-108.5 60.5v27q134 0 239 22v-1257q0 -78 16.5 -123.5t46.5 -66t83 -31.5v-27q-85 10 -199 10t-190 -10z" />
    <glyph glyph-name="m" unicode="m" horiz-adv-x="1738" 
d="M1524 256q0 -61 11 -104t32.5 -67.5t44.5 -37t57 -20.5v-27q-83 12 -188 12q-112 0 -232 -12v27q87 11 130.5 64.5t43.5 158.5v387q0 324 -145 324q-59 0 -121 -34t-109 -87.5t-77.5 -122t-30.5 -133.5v-328q0 -61 11 -104t32.5 -67.5t45 -37t58.5 -20.5v-27
q-89 12 -186 12q-103 0 -211 -12v27q154 19 154 223v385q0 326 -146 326q-57 0 -121 -35.5t-115 -91t-84.5 -129t-33.5 -144.5v-303q0 -83 16 -130.5t46.5 -68.5t85.5 -32v-27q-82 10 -197 10t-197 -10v27q80 11 113 57t33 158v493q0 119 -31.5 168.5t-110.5 52.5v27
q154 4 248 23v-136q0 -79 -16 -161q53 132 168 220.5t239 88.5q189 0 199 -260q56 114 162.5 187t220.5 73q201 0 201 -289v-473z" />
    <glyph glyph-name="n" unicode="n" horiz-adv-x="1204" 
d="M1012 254q0 -106 26 -157.5t97 -69.5v-27q-71 10 -181 10q-114 0 -204 -10v27q72 14 113.5 72t41.5 155v348q0 34 -1 61t-5.5 66t-12.5 69t-23 62t-35.5 53t-52 34.5t-70.5 13.5q-87 0 -172 -56t-138 -144t-53 -175v-342q0 -113 33 -158.5t110 -58.5v-27q-79 10 -192 10
t-195 -10v27q78 11 110 57.5t32 159.5v487q0 119 -28.5 168.5t-113.5 56.5v27q123 0 244 23v-162q0 -61 -14 -129q57 131 169.5 217t241.5 86q41 0 78 -10t73.5 -35.5t63 -64.5t42.5 -101.5t16 -142.5v-410z" />
    <glyph glyph-name="o" unicode="o" horiz-adv-x="1071" 
d="M537 -20q-202 0 -321.5 145.5t-119.5 372.5q0 226 120 373t321 147q200 0 319 -147t119 -373q0 -227 -119 -372.5t-319 -145.5zM537 14q148 0 230.5 125.5t82.5 358.5q0 234 -82.5 359.5t-230.5 125.5q-149 0 -232.5 -125.5t-83.5 -359.5q0 -233 83.5 -358.5
t232.5 -125.5z" />
    <glyph glyph-name="p" unicode="p" horiz-adv-x="1136" 
d="M635 1018q78 0 150 -32.5t129.5 -93.5t91.5 -158.5t34 -217.5q0 -125 -37 -228t-99.5 -169.5t-142.5 -102.5t-167 -36q-178 0 -272 133v-361q0 -108 36 -165.5t136 -73.5v-27q-113 10 -205 10t-205 -10v27q79 15 109 60.5t30 156.5v968q0 152 -25 200t-114 58v27
q133 0 242 23v-95q0 -41 -9 -82q47 84 130.5 136.5t187.5 52.5zM594 18q154 0 239 130t85 348q0 121 -27.5 214t-74 146.5t-101.5 80t-115 26.5q-102 0 -176.5 -68.5t-101.5 -161.5v-373q0 -145 70 -243.5t202 -98.5z" />
    <glyph glyph-name="q" unicode="q" horiz-adv-x="1107" 
d="M1137 -399q-148 -71 -316 -131v790q-41 -125 -124.5 -202.5t-204.5 -77.5q-166 0 -281 147.5t-115 372.5q0 129 40.5 231t107 163t144.5 92.5t159 31.5q82 0 159.5 -31t135.5 -84q50 58 151 117l13 -16q-51 -53 -69.5 -134.5t-18.5 -220.5v-882v-31.5t2 -30.5t5.5 -31.5
t11 -26t18 -23t27 -13.5t38.5 -6q46 0 104 22zM500 29q74 0 136.5 41t101 107.5t60 145.5t21.5 158v267q-38 112 -110 169.5t-172 57.5q-153 0 -234.5 -127.5t-81.5 -351.5q0 -213 73 -340t206 -127z" />
    <glyph glyph-name="r" unicode="r" horiz-adv-x="835" 
d="M643 1018q44 0 89 -19t77 -55q-3 -56 -23 -223h-28q-13 98 -63 157.5t-107 59.5q-87 0 -171.5 -120.5t-84.5 -276.5v-279q0 -53 6.5 -87.5t26.5 -65t57.5 -50t97.5 -32.5v-27q-90 10 -213 10q-119 0 -209 -10v27q77 14 106 59t29 158v491q0 119 -25 166.5t-110 54.5v27
q125 0 234 23v-158q0 -69 -10 -141q44 129 136 220t185 91z" />
    <glyph glyph-name="s" unicode="s" horiz-adv-x="843" 
d="M383 -20q-186 0 -289 83q-4 142 4 240h29q39 -149 99.5 -219t168.5 -70q100 0 170 55t70 148q0 56 -28.5 99t-74 71.5t-100.5 54t-110 53t-100.5 61t-74 86.5t-28.5 122q0 55 18.5 99t48.5 72.5t70 47.5t80.5 27t83.5 8q150 0 274 -84q0 -139 -10 -234h-29
q-43 145 -98.5 214t-150.5 69q-81 0 -135 -47.5t-54 -132.5q0 -60 29 -105.5t75.5 -74t102.5 -53.5t112 -51.5t102.5 -59t75.5 -84t29 -119.5q0 -129 -100.5 -202.5t-259.5 -73.5z" />
    <glyph glyph-name="t" unicode="t" horiz-adv-x="698" 
d="M645 182l33 -16q-57 -95 -136 -140.5t-153 -45.5q-151 0 -151 213v735h-179v26q51 6 95.5 38.5t75.5 83t52.5 105.5t34.5 115h29v-313h246v-43h-250v-739q0 -91 19 -128.5t75 -37.5q52 0 109.5 42.5t99.5 104.5z" />
    <glyph glyph-name="u" unicode="u" horiz-adv-x="1148" 
d="M918 352q0 -152 37.5 -225.5t123.5 -73.5v-26q-89 -2 -221 -39q-35 132 -35 215q0 15 4 61q-51 -129 -145 -206.5t-209 -77.5q-151 0 -224 98.5t-73 302.5v367q0 61 -11.5 103.5t-32.5 63t-38.5 29t-40.5 12.5v27q114 0 226 23v-654q0 -151 51.5 -236t158.5 -85
q77 0 152.5 52.5t125.5 147t50 203.5v271q0 133 -32 195.5t-115 62.5v26q141 0 248 17v-654z" />
    <glyph glyph-name="v" unicode="v" horiz-adv-x="1040" 
d="M881 983q79 0 157 10v-26q-55 -18 -96.5 -64.5t-77.5 -134.5l-321 -788h-27l-358 817q-36 83 -69.5 121t-94.5 49v26q98 -10 188 -10t217 10v-26q-74 -9 -107.5 -33.5t-33.5 -67.5q0 -38 33 -116l270 -613l238 596q24 61 24 109q0 108 -133 125v26q117 -10 191 -10z" />
    <glyph glyph-name="w" unicode="w" horiz-adv-x="1599" 
d="M1407 983q76 0 186 10v-26q-134 -38 -198 -219l-262 -768h-31l-328 833l-295 -833h-33l-247 720q-35 104 -86 182t-111 85v26q120 -10 199 -10t192 10v-26q-68 -12 -96.5 -37t-28.5 -70q0 -43 25 -123l196 -581l297 837h31l328 -841l184 553q21 59 21 112q0 130 -129 150
v26q110 -10 186 -10z" />
    <glyph glyph-name="x" unicode="x" horiz-adv-x="1085" 
d="M831 188q52 -71 97 -111t102 -50v-27q-71 8 -184 8q-115 0 -203 -8v27q113 17 113 67q0 35 -72 129l-180 238l-176 -242q-64 -85 -64 -123q0 -55 107 -69v-27q-84 8 -168 8q-83 0 -156 -8v27q42 12 101 55t98 98l229 320l-229 303q-33 43 -49.5 62.5t-42 46t-48 39
t-47.5 16.5v26q98 -8 170 -8q67 0 189 8v-26q-80 -15 -80 -76q0 -45 43 -107l160 -211l151 213q43 55 43 103q0 60 -69 78v26q85 -6 161 -6q75 0 148 6v-26q-60 -12 -109 -49t-102 -109l-195 -272z" />
    <glyph glyph-name="y" unicode="y" horiz-adv-x="1056" 
d="M895 983q82 0 160 10v-26q-63 -21 -97 -64.5t-75 -134.5l-348 -793q-75 -171 -154.5 -293t-181.5 -225q-105 105 -187 240l21 20q45 -42 80.5 -63t76.5 -21q38 0 76 23.5t66.5 56.5t61.5 89t53.5 99t50.5 109l14 33l-322 705q-26 57 -41.5 86t-39 62t-49.5 49t-60 22v26
q113 -10 207 -10q90 0 203 10v-26q-76 -12 -110 -36t-34 -63q0 -35 29 -98l274 -606l246 569q27 61 27 109q0 107 -135 125v26q117 -10 188 -10z" />
    <glyph glyph-name="z" unicode="z" horiz-adv-x="978" 
d="M811 330h29q0 -228 -4 -330q-123 4 -394 4q-261 0 -372 -4l2 27l626 923h-286q-126 0 -188.5 -44t-78.5 -169h-28q-3 99 4 256q238 -4 350 -4q120 0 350 4v-28l-624 -920h311q136 0 207.5 71t95.5 214z" />
    <glyph glyph-name="braceleft" unicode="{" 
d="M207 403q-13 0 -19 -2v-200q4 -2 19 -2q37 0 50 25t13 77q0 54 -13 78t-50 24zM518 330v-49h-82v-78h96v-49h-155v297h155v-52h-96v-69h82zM203 150q-47 0 -74 4v292q61 9 76 9q67 0 96 -37.5t29 -116.5t-29.5 -115t-97.5 -36zM586 451h80l39 -164l38 164h82
q3 -45 13 -297h-60q0 108 -6 213l-41 -168h-55l-41 168h-2q-4 -140 -4 -213h-58q3 156 15 297zM987 150q-60 0 -84 35.5t-24 115.5q0 81 24 117.5t84 36.5t85.5 -37t25.5 -117q0 -79 -25.5 -115t-85.5 -36zM987 403q-29 0 -39 -23.5t-10 -78.5q0 -54 10 -78t39 -24
q30 0 40.5 24t10.5 78q0 55 -10 78.5t-41 23.5zM967 1016q49 0 79.5 -24.5t39 -51t8.5 -53.5q0 -43 -34.5 -72.5t-72.5 -34.5q-213 -23 -340 -147q3 8 9 22t25 53.5t39 75.5t50 80.5t59.5 76t66 53.5t71.5 22zM285 909q39 0 78 -21t69.5 -55t58.5 -74.5t48 -81.5t35 -75
t22 -55l8 -21q-117 148 -319 148q-49 0 -88 30t-39 76q0 53 33.5 91t93.5 38zM643 1214q38 -37 48.5 -102t-2.5 -131t-31.5 -126.5t-35.5 -98.5l-18 -39q20 191 -125 330q-35 35 -42 81.5t24 83.5q23 23 53 34t65 3.5t64 -35.5z" />
    <glyph glyph-name="bar" unicode="|" 
d="M207 403q-13 0 -19 -2v-200q4 -2 19 -2q37 0 50 25t13 77q0 54 -13 78t-50 24zM518 330v-49h-82v-78h96v-49h-155v297h155v-52h-96v-69h82zM203 150q-47 0 -74 4v292q61 9 76 9q67 0 96 -37.5t29 -116.5t-29.5 -115t-97.5 -36zM586 451h80l39 -164l38 164h82
q3 -45 13 -297h-60q0 108 -6 213l-41 -168h-55l-41 168h-2q-4 -140 -4 -213h-58q3 156 15 297zM987 150q-60 0 -84 35.5t-24 115.5q0 81 24 117.5t84 36.5t85.5 -37t25.5 -117q0 -79 -25.5 -115t-85.5 -36zM987 403q-29 0 -39 -23.5t-10 -78.5q0 -54 10 -78t39 -24
q30 0 40.5 24t10.5 78q0 55 -10 78.5t-41 23.5zM967 1016q49 0 79.5 -24.5t39 -51t8.5 -53.5q0 -43 -34.5 -72.5t-72.5 -34.5q-213 -23 -340 -147q3 8 9 22t25 53.5t39 75.5t50 80.5t59.5 76t66 53.5t71.5 22zM285 909q39 0 78 -21t69.5 -55t58.5 -74.5t48 -81.5t35 -75
t22 -55l8 -21q-117 148 -319 148q-49 0 -88 30t-39 76q0 53 33.5 91t93.5 38zM643 1214q38 -37 48.5 -102t-2.5 -131t-31.5 -126.5t-35.5 -98.5l-18 -39q20 191 -125 330q-35 35 -42 81.5t24 83.5q23 23 53 34t65 3.5t64 -35.5z" />
    <glyph glyph-name="braceright" unicode="}" 
d="M207 403q-13 0 -19 -2v-200q4 -2 19 -2q37 0 50 25t13 77q0 54 -13 78t-50 24zM518 330v-49h-82v-78h96v-49h-155v297h155v-52h-96v-69h82zM203 150q-47 0 -74 4v292q61 9 76 9q67 0 96 -37.5t29 -116.5t-29.5 -115t-97.5 -36zM586 451h80l39 -164l38 164h82
q3 -45 13 -297h-60q0 108 -6 213l-41 -168h-55l-41 168h-2q-4 -140 -4 -213h-58q3 156 15 297zM987 150q-60 0 -84 35.5t-24 115.5q0 81 24 117.5t84 36.5t85.5 -37t25.5 -117q0 -79 -25.5 -115t-85.5 -36zM987 403q-29 0 -39 -23.5t-10 -78.5q0 -54 10 -78t39 -24
q30 0 40.5 24t10.5 78q0 55 -10 78.5t-41 23.5zM967 1016q49 0 79.5 -24.5t39 -51t8.5 -53.5q0 -43 -34.5 -72.5t-72.5 -34.5q-213 -23 -340 -147q3 8 9 22t25 53.5t39 75.5t50 80.5t59.5 76t66 53.5t71.5 22zM285 909q39 0 78 -21t69.5 -55t58.5 -74.5t48 -81.5t35 -75
t22 -55l8 -21q-117 148 -319 148q-49 0 -88 30t-39 76q0 53 33.5 91t93.5 38zM643 1214q38 -37 48.5 -102t-2.5 -131t-31.5 -126.5t-35.5 -98.5l-18 -39q20 191 -125 330q-35 35 -42 81.5t24 83.5q23 23 53 34t65 3.5t64 -35.5z" />
    <glyph glyph-name="asciitilde" unicode="~" 
d="M207 403q-13 0 -19 -2v-200q4 -2 19 -2q37 0 50 25t13 77q0 54 -13 78t-50 24zM518 330v-49h-82v-78h96v-49h-155v297h155v-52h-96v-69h82zM203 150q-47 0 -74 4v292q61 9 76 9q67 0 96 -37.5t29 -116.5t-29.5 -115t-97.5 -36zM586 451h80l39 -164l38 164h82
q3 -45 13 -297h-60q0 108 -6 213l-41 -168h-55l-41 168h-2q-4 -140 -4 -213h-58q3 156 15 297zM987 150q-60 0 -84 35.5t-24 115.5q0 81 24 117.5t84 36.5t85.5 -37t25.5 -117q0 -79 -25.5 -115t-85.5 -36zM987 403q-29 0 -39 -23.5t-10 -78.5q0 -54 10 -78t39 -24
q30 0 40.5 24t10.5 78q0 55 -10 78.5t-41 23.5zM967 1016q49 0 79.5 -24.5t39 -51t8.5 -53.5q0 -43 -34.5 -72.5t-72.5 -34.5q-213 -23 -340 -147q3 8 9 22t25 53.5t39 75.5t50 80.5t59.5 76t66 53.5t71.5 22zM285 909q39 0 78 -21t69.5 -55t58.5 -74.5t48 -81.5t35 -75
t22 -55l8 -21q-117 148 -319 148q-49 0 -88 30t-39 76q0 53 33.5 91t93.5 38zM643 1214q38 -37 48.5 -102t-2.5 -131t-31.5 -126.5t-35.5 -98.5l-18 -39q20 191 -125 330q-35 35 -42 81.5t24 83.5q23 23 53 34t65 3.5t64 -35.5z" />
    </font>
</defs>
</svg>
