<?xml version="1.0" standalone="no"?>
<!DOCTYPE svg PUBLIC "-//W3C//DTD SVG 1.1//EN" "http://www.w3.org/Graphics/SVG/1.1/DTD/svg11.dtd" >
<svg xmlns="http://www.w3.org/2000/svg" xmlns:xlink="http://www.w3.org/1999/xlink" version="1.1">
<metadata>
Created by FontForge 20170731 at Thu May 18 14:24:37 2023
 By Aleksey,,,
Hook J
</metadata>
<defs>
<font id="FONTSPRINGDEMO-SpanItalic" horiz-adv-x="1224" >
  <font-face 
    font-family="FSP DEMO - Span"
    font-weight="400"
    font-style="italic"
    font-stretch="normal"
    units-per-em="2048"
    panose-1="0 0 5 0 0 0 0 0 0 0"
    ascent="1505"
    descent="-543"
    x-height="993"
    cap-height="1434"
    bbox="-487 -543 2046 1505"
    underline-thickness="102"
    underline-position="-307"
    slope="-12"
    unicode-range="U+0020-007E"
  />
<missing-glyph 
d="M207 403q-13 0 -19 -2v-200q4 -2 19 -2q37 0 50 25t13 77q0 54 -13 78t-50 24zM518 330v-49h-82v-78h96v-49h-155v297h155v-52h-96v-69h82zM203 150q-47 0 -74 4v292q61 9 76 9q67 0 96 -37.5t29 -116.5t-29.5 -115t-97.5 -36zM586 451h80l39 -164l38 164h82
q3 -45 13 -297h-60q0 108 -6 213l-41 -168h-55l-41 168h-2q-4 -140 -4 -213h-58q3 156 15 297zM987 150q-60 0 -84 35.5t-24 115.5q0 81 24 117.5t84 36.5t85.5 -37t25.5 -117q0 -79 -25.5 -115t-85.5 -36zM987 403q-29 0 -39 -23.5t-10 -78.5q0 -54 10 -78t39 -24
q30 0 40.5 24t10.5 78q0 55 -10 78.5t-41 23.5zM967 1016q49 0 79.5 -24.5t39 -51t8.5 -53.5q0 -43 -34.5 -72.5t-72.5 -34.5q-213 -23 -340 -147q3 8 9 22t25 53.5t39 75.5t50 80.5t59.5 76t66 53.5t71.5 22zM285 909q39 0 78 -21t69.5 -55t58.5 -74.5t48 -81.5t35 -75
t22 -55l8 -21q-117 148 -319 148q-49 0 -88 30t-39 76q0 53 33.5 91t93.5 38zM643 1214q38 -37 48.5 -102t-2.5 -131t-31.5 -126.5t-35.5 -98.5l-18 -39q20 191 -125 330q-35 35 -42 81.5t24 83.5q23 23 53 34t65 3.5t64 -35.5z" />
    <glyph glyph-name=".notdef" 
d="M207 403q-13 0 -19 -2v-200q4 -2 19 -2q37 0 50 25t13 77q0 54 -13 78t-50 24zM518 330v-49h-82v-78h96v-49h-155v297h155v-52h-96v-69h82zM203 150q-47 0 -74 4v292q61 9 76 9q67 0 96 -37.5t29 -116.5t-29.5 -115t-97.5 -36zM586 451h80l39 -164l38 164h82
q3 -45 13 -297h-60q0 108 -6 213l-41 -168h-55l-41 168h-2q-4 -140 -4 -213h-58q3 156 15 297zM987 150q-60 0 -84 35.5t-24 115.5q0 81 24 117.5t84 36.5t85.5 -37t25.5 -117q0 -79 -25.5 -115t-85.5 -36zM987 403q-29 0 -39 -23.5t-10 -78.5q0 -54 10 -78t39 -24
q30 0 40.5 24t10.5 78q0 55 -10 78.5t-41 23.5zM967 1016q49 0 79.5 -24.5t39 -51t8.5 -53.5q0 -43 -34.5 -72.5t-72.5 -34.5q-213 -23 -340 -147q3 8 9 22t25 53.5t39 75.5t50 80.5t59.5 76t66 53.5t71.5 22zM285 909q39 0 78 -21t69.5 -55t58.5 -74.5t48 -81.5t35 -75
t22 -55l8 -21q-117 148 -319 148q-49 0 -88 30t-39 76q0 53 33.5 91t93.5 38zM643 1214q38 -37 48.5 -102t-2.5 -131t-31.5 -126.5t-35.5 -98.5l-18 -39q20 191 -125 330q-35 35 -42 81.5t24 83.5q23 23 53 34t65 3.5t64 -35.5z" />
    <glyph glyph-name=".null" horiz-adv-x="0" 
 />
    <glyph glyph-name="nonmarkingreturn" horiz-adv-x="682" 
 />
    <glyph glyph-name="space" unicode=" " horiz-adv-x="368" 
 />
    <glyph glyph-name="exclam" unicode="!" 
d="M207 403q-13 0 -19 -2v-200q4 -2 19 -2q37 0 50 25t13 77q0 54 -13 78t-50 24zM518 330v-49h-82v-78h96v-49h-155v297h155v-52h-96v-69h82zM203 150q-47 0 -74 4v292q61 9 76 9q67 0 96 -37.5t29 -116.5t-29.5 -115t-97.5 -36zM586 451h80l39 -164l38 164h82
q3 -45 13 -297h-60q0 108 -6 213l-41 -168h-55l-41 168h-2q-4 -140 -4 -213h-58q3 156 15 297zM987 150q-60 0 -84 35.5t-24 115.5q0 81 24 117.5t84 36.5t85.5 -37t25.5 -117q0 -79 -25.5 -115t-85.5 -36zM987 403q-29 0 -39 -23.5t-10 -78.5q0 -54 10 -78t39 -24
q30 0 40.5 24t10.5 78q0 55 -10 78.5t-41 23.5zM967 1016q49 0 79.5 -24.5t39 -51t8.5 -53.5q0 -43 -34.5 -72.5t-72.5 -34.5q-213 -23 -340 -147q3 8 9 22t25 53.5t39 75.5t50 80.5t59.5 76t66 53.5t71.5 22zM285 909q39 0 78 -21t69.5 -55t58.5 -74.5t48 -81.5t35 -75
t22 -55l8 -21q-117 148 -319 148q-49 0 -88 30t-39 76q0 53 33.5 91t93.5 38zM643 1214q38 -37 48.5 -102t-2.5 -131t-31.5 -126.5t-35.5 -98.5l-18 -39q20 191 -125 330q-35 35 -42 81.5t24 83.5q23 23 53 34t65 3.5t64 -35.5z" />
    <glyph glyph-name="quotedbl" unicode="&#x22;" 
d="M207 403q-13 0 -19 -2v-200q4 -2 19 -2q37 0 50 25t13 77q0 54 -13 78t-50 24zM518 330v-49h-82v-78h96v-49h-155v297h155v-52h-96v-69h82zM203 150q-47 0 -74 4v292q61 9 76 9q67 0 96 -37.5t29 -116.5t-29.5 -115t-97.5 -36zM586 451h80l39 -164l38 164h82
q3 -45 13 -297h-60q0 108 -6 213l-41 -168h-55l-41 168h-2q-4 -140 -4 -213h-58q3 156 15 297zM987 150q-60 0 -84 35.5t-24 115.5q0 81 24 117.5t84 36.5t85.5 -37t25.5 -117q0 -79 -25.5 -115t-85.5 -36zM987 403q-29 0 -39 -23.5t-10 -78.5q0 -54 10 -78t39 -24
q30 0 40.5 24t10.5 78q0 55 -10 78.5t-41 23.5zM967 1016q49 0 79.5 -24.5t39 -51t8.5 -53.5q0 -43 -34.5 -72.5t-72.5 -34.5q-213 -23 -340 -147q3 8 9 22t25 53.5t39 75.5t50 80.5t59.5 76t66 53.5t71.5 22zM285 909q39 0 78 -21t69.5 -55t58.5 -74.5t48 -81.5t35 -75
t22 -55l8 -21q-117 148 -319 148q-49 0 -88 30t-39 76q0 53 33.5 91t93.5 38zM643 1214q38 -37 48.5 -102t-2.5 -131t-31.5 -126.5t-35.5 -98.5l-18 -39q20 191 -125 330q-35 35 -42 81.5t24 83.5q23 23 53 34t65 3.5t64 -35.5z" />
    <glyph glyph-name="numbersign" unicode="#" 
d="M207 403q-13 0 -19 -2v-200q4 -2 19 -2q37 0 50 25t13 77q0 54 -13 78t-50 24zM518 330v-49h-82v-78h96v-49h-155v297h155v-52h-96v-69h82zM203 150q-47 0 -74 4v292q61 9 76 9q67 0 96 -37.5t29 -116.5t-29.5 -115t-97.5 -36zM586 451h80l39 -164l38 164h82
q3 -45 13 -297h-60q0 108 -6 213l-41 -168h-55l-41 168h-2q-4 -140 -4 -213h-58q3 156 15 297zM987 150q-60 0 -84 35.5t-24 115.5q0 81 24 117.5t84 36.5t85.5 -37t25.5 -117q0 -79 -25.5 -115t-85.5 -36zM987 403q-29 0 -39 -23.5t-10 -78.5q0 -54 10 -78t39 -24
q30 0 40.5 24t10.5 78q0 55 -10 78.5t-41 23.5zM967 1016q49 0 79.5 -24.5t39 -51t8.5 -53.5q0 -43 -34.5 -72.5t-72.5 -34.5q-213 -23 -340 -147q3 8 9 22t25 53.5t39 75.5t50 80.5t59.5 76t66 53.5t71.5 22zM285 909q39 0 78 -21t69.5 -55t58.5 -74.5t48 -81.5t35 -75
t22 -55l8 -21q-117 148 -319 148q-49 0 -88 30t-39 76q0 53 33.5 91t93.5 38zM643 1214q38 -37 48.5 -102t-2.5 -131t-31.5 -126.5t-35.5 -98.5l-18 -39q20 191 -125 330q-35 35 -42 81.5t24 83.5q23 23 53 34t65 3.5t64 -35.5z" />
    <glyph glyph-name="dollar" unicode="$" 
d="M207 403q-13 0 -19 -2v-200q4 -2 19 -2q37 0 50 25t13 77q0 54 -13 78t-50 24zM518 330v-49h-82v-78h96v-49h-155v297h155v-52h-96v-69h82zM203 150q-47 0 -74 4v292q61 9 76 9q67 0 96 -37.5t29 -116.5t-29.5 -115t-97.5 -36zM586 451h80l39 -164l38 164h82
q3 -45 13 -297h-60q0 108 -6 213l-41 -168h-55l-41 168h-2q-4 -140 -4 -213h-58q3 156 15 297zM987 150q-60 0 -84 35.5t-24 115.5q0 81 24 117.5t84 36.5t85.5 -37t25.5 -117q0 -79 -25.5 -115t-85.5 -36zM987 403q-29 0 -39 -23.5t-10 -78.5q0 -54 10 -78t39 -24
q30 0 40.5 24t10.5 78q0 55 -10 78.5t-41 23.5zM967 1016q49 0 79.5 -24.5t39 -51t8.5 -53.5q0 -43 -34.5 -72.5t-72.5 -34.5q-213 -23 -340 -147q3 8 9 22t25 53.5t39 75.5t50 80.5t59.5 76t66 53.5t71.5 22zM285 909q39 0 78 -21t69.5 -55t58.5 -74.5t48 -81.5t35 -75
t22 -55l8 -21q-117 148 -319 148q-49 0 -88 30t-39 76q0 53 33.5 91t93.5 38zM643 1214q38 -37 48.5 -102t-2.5 -131t-31.5 -126.5t-35.5 -98.5l-18 -39q20 191 -125 330q-35 35 -42 81.5t24 83.5q23 23 53 34t65 3.5t64 -35.5z" />
    <glyph glyph-name="percent" unicode="%" 
d="M207 403q-13 0 -19 -2v-200q4 -2 19 -2q37 0 50 25t13 77q0 54 -13 78t-50 24zM518 330v-49h-82v-78h96v-49h-155v297h155v-52h-96v-69h82zM203 150q-47 0 -74 4v292q61 9 76 9q67 0 96 -37.5t29 -116.5t-29.5 -115t-97.5 -36zM586 451h80l39 -164l38 164h82
q3 -45 13 -297h-60q0 108 -6 213l-41 -168h-55l-41 168h-2q-4 -140 -4 -213h-58q3 156 15 297zM987 150q-60 0 -84 35.5t-24 115.5q0 81 24 117.5t84 36.5t85.5 -37t25.5 -117q0 -79 -25.5 -115t-85.5 -36zM987 403q-29 0 -39 -23.5t-10 -78.5q0 -54 10 -78t39 -24
q30 0 40.5 24t10.5 78q0 55 -10 78.5t-41 23.5zM967 1016q49 0 79.5 -24.5t39 -51t8.5 -53.5q0 -43 -34.5 -72.5t-72.5 -34.5q-213 -23 -340 -147q3 8 9 22t25 53.5t39 75.5t50 80.5t59.5 76t66 53.5t71.5 22zM285 909q39 0 78 -21t69.5 -55t58.5 -74.5t48 -81.5t35 -75
t22 -55l8 -21q-117 148 -319 148q-49 0 -88 30t-39 76q0 53 33.5 91t93.5 38zM643 1214q38 -37 48.5 -102t-2.5 -131t-31.5 -126.5t-35.5 -98.5l-18 -39q20 191 -125 330q-35 35 -42 81.5t24 83.5q23 23 53 34t65 3.5t64 -35.5z" />
    <glyph glyph-name="ampersand" unicode="&#x26;" 
d="M207 403q-13 0 -19 -2v-200q4 -2 19 -2q37 0 50 25t13 77q0 54 -13 78t-50 24zM518 330v-49h-82v-78h96v-49h-155v297h155v-52h-96v-69h82zM203 150q-47 0 -74 4v292q61 9 76 9q67 0 96 -37.5t29 -116.5t-29.5 -115t-97.5 -36zM586 451h80l39 -164l38 164h82
q3 -45 13 -297h-60q0 108 -6 213l-41 -168h-55l-41 168h-2q-4 -140 -4 -213h-58q3 156 15 297zM987 150q-60 0 -84 35.5t-24 115.5q0 81 24 117.5t84 36.5t85.5 -37t25.5 -117q0 -79 -25.5 -115t-85.5 -36zM987 403q-29 0 -39 -23.5t-10 -78.5q0 -54 10 -78t39 -24
q30 0 40.5 24t10.5 78q0 55 -10 78.5t-41 23.5zM967 1016q49 0 79.5 -24.5t39 -51t8.5 -53.5q0 -43 -34.5 -72.5t-72.5 -34.5q-213 -23 -340 -147q3 8 9 22t25 53.5t39 75.5t50 80.5t59.5 76t66 53.5t71.5 22zM285 909q39 0 78 -21t69.5 -55t58.5 -74.5t48 -81.5t35 -75
t22 -55l8 -21q-117 148 -319 148q-49 0 -88 30t-39 76q0 53 33.5 91t93.5 38zM643 1214q38 -37 48.5 -102t-2.5 -131t-31.5 -126.5t-35.5 -98.5l-18 -39q20 191 -125 330q-35 35 -42 81.5t24 83.5q23 23 53 34t65 3.5t64 -35.5z" />
    <glyph glyph-name="quotesingle" unicode="'" 
d="M207 403q-13 0 -19 -2v-200q4 -2 19 -2q37 0 50 25t13 77q0 54 -13 78t-50 24zM518 330v-49h-82v-78h96v-49h-155v297h155v-52h-96v-69h82zM203 150q-47 0 -74 4v292q61 9 76 9q67 0 96 -37.5t29 -116.5t-29.5 -115t-97.5 -36zM586 451h80l39 -164l38 164h82
q3 -45 13 -297h-60q0 108 -6 213l-41 -168h-55l-41 168h-2q-4 -140 -4 -213h-58q3 156 15 297zM987 150q-60 0 -84 35.5t-24 115.5q0 81 24 117.5t84 36.5t85.5 -37t25.5 -117q0 -79 -25.5 -115t-85.5 -36zM987 403q-29 0 -39 -23.5t-10 -78.5q0 -54 10 -78t39 -24
q30 0 40.5 24t10.5 78q0 55 -10 78.5t-41 23.5zM967 1016q49 0 79.5 -24.5t39 -51t8.5 -53.5q0 -43 -34.5 -72.5t-72.5 -34.5q-213 -23 -340 -147q3 8 9 22t25 53.5t39 75.5t50 80.5t59.5 76t66 53.5t71.5 22zM285 909q39 0 78 -21t69.5 -55t58.5 -74.5t48 -81.5t35 -75
t22 -55l8 -21q-117 148 -319 148q-49 0 -88 30t-39 76q0 53 33.5 91t93.5 38zM643 1214q38 -37 48.5 -102t-2.5 -131t-31.5 -126.5t-35.5 -98.5l-18 -39q20 191 -125 330q-35 35 -42 81.5t24 83.5q23 23 53 34t65 3.5t64 -35.5z" />
    <glyph glyph-name="parenleft" unicode="(" 
d="M207 403q-13 0 -19 -2v-200q4 -2 19 -2q37 0 50 25t13 77q0 54 -13 78t-50 24zM518 330v-49h-82v-78h96v-49h-155v297h155v-52h-96v-69h82zM203 150q-47 0 -74 4v292q61 9 76 9q67 0 96 -37.5t29 -116.5t-29.5 -115t-97.5 -36zM586 451h80l39 -164l38 164h82
q3 -45 13 -297h-60q0 108 -6 213l-41 -168h-55l-41 168h-2q-4 -140 -4 -213h-58q3 156 15 297zM987 150q-60 0 -84 35.5t-24 115.5q0 81 24 117.5t84 36.5t85.5 -37t25.5 -117q0 -79 -25.5 -115t-85.5 -36zM987 403q-29 0 -39 -23.5t-10 -78.5q0 -54 10 -78t39 -24
q30 0 40.5 24t10.5 78q0 55 -10 78.5t-41 23.5zM967 1016q49 0 79.5 -24.5t39 -51t8.5 -53.5q0 -43 -34.5 -72.5t-72.5 -34.5q-213 -23 -340 -147q3 8 9 22t25 53.5t39 75.5t50 80.5t59.5 76t66 53.5t71.5 22zM285 909q39 0 78 -21t69.5 -55t58.5 -74.5t48 -81.5t35 -75
t22 -55l8 -21q-117 148 -319 148q-49 0 -88 30t-39 76q0 53 33.5 91t93.5 38zM643 1214q38 -37 48.5 -102t-2.5 -131t-31.5 -126.5t-35.5 -98.5l-18 -39q20 191 -125 330q-35 35 -42 81.5t24 83.5q23 23 53 34t65 3.5t64 -35.5z" />
    <glyph glyph-name="parenright" unicode=")" 
d="M207 403q-13 0 -19 -2v-200q4 -2 19 -2q37 0 50 25t13 77q0 54 -13 78t-50 24zM518 330v-49h-82v-78h96v-49h-155v297h155v-52h-96v-69h82zM203 150q-47 0 -74 4v292q61 9 76 9q67 0 96 -37.5t29 -116.5t-29.5 -115t-97.5 -36zM586 451h80l39 -164l38 164h82
q3 -45 13 -297h-60q0 108 -6 213l-41 -168h-55l-41 168h-2q-4 -140 -4 -213h-58q3 156 15 297zM987 150q-60 0 -84 35.5t-24 115.5q0 81 24 117.5t84 36.5t85.5 -37t25.5 -117q0 -79 -25.5 -115t-85.5 -36zM987 403q-29 0 -39 -23.5t-10 -78.5q0 -54 10 -78t39 -24
q30 0 40.5 24t10.5 78q0 55 -10 78.5t-41 23.5zM967 1016q49 0 79.5 -24.5t39 -51t8.5 -53.5q0 -43 -34.5 -72.5t-72.5 -34.5q-213 -23 -340 -147q3 8 9 22t25 53.5t39 75.5t50 80.5t59.5 76t66 53.5t71.5 22zM285 909q39 0 78 -21t69.5 -55t58.5 -74.5t48 -81.5t35 -75
t22 -55l8 -21q-117 148 -319 148q-49 0 -88 30t-39 76q0 53 33.5 91t93.5 38zM643 1214q38 -37 48.5 -102t-2.5 -131t-31.5 -126.5t-35.5 -98.5l-18 -39q20 191 -125 330q-35 35 -42 81.5t24 83.5q23 23 53 34t65 3.5t64 -35.5z" />
    <glyph glyph-name="asterisk" unicode="*" 
d="M207 403q-13 0 -19 -2v-200q4 -2 19 -2q37 0 50 25t13 77q0 54 -13 78t-50 24zM518 330v-49h-82v-78h96v-49h-155v297h155v-52h-96v-69h82zM203 150q-47 0 -74 4v292q61 9 76 9q67 0 96 -37.5t29 -116.5t-29.5 -115t-97.5 -36zM586 451h80l39 -164l38 164h82
q3 -45 13 -297h-60q0 108 -6 213l-41 -168h-55l-41 168h-2q-4 -140 -4 -213h-58q3 156 15 297zM987 150q-60 0 -84 35.5t-24 115.5q0 81 24 117.5t84 36.5t85.5 -37t25.5 -117q0 -79 -25.5 -115t-85.5 -36zM987 403q-29 0 -39 -23.5t-10 -78.5q0 -54 10 -78t39 -24
q30 0 40.5 24t10.5 78q0 55 -10 78.5t-41 23.5zM967 1016q49 0 79.5 -24.5t39 -51t8.5 -53.5q0 -43 -34.5 -72.5t-72.5 -34.5q-213 -23 -340 -147q3 8 9 22t25 53.5t39 75.5t50 80.5t59.5 76t66 53.5t71.5 22zM285 909q39 0 78 -21t69.5 -55t58.5 -74.5t48 -81.5t35 -75
t22 -55l8 -21q-117 148 -319 148q-49 0 -88 30t-39 76q0 53 33.5 91t93.5 38zM643 1214q38 -37 48.5 -102t-2.5 -131t-31.5 -126.5t-35.5 -98.5l-18 -39q20 191 -125 330q-35 35 -42 81.5t24 83.5q23 23 53 34t65 3.5t64 -35.5z" />
    <glyph glyph-name="plus" unicode="+" 
d="M207 403q-13 0 -19 -2v-200q4 -2 19 -2q37 0 50 25t13 77q0 54 -13 78t-50 24zM518 330v-49h-82v-78h96v-49h-155v297h155v-52h-96v-69h82zM203 150q-47 0 -74 4v292q61 9 76 9q67 0 96 -37.5t29 -116.5t-29.5 -115t-97.5 -36zM586 451h80l39 -164l38 164h82
q3 -45 13 -297h-60q0 108 -6 213l-41 -168h-55l-41 168h-2q-4 -140 -4 -213h-58q3 156 15 297zM987 150q-60 0 -84 35.5t-24 115.5q0 81 24 117.5t84 36.5t85.5 -37t25.5 -117q0 -79 -25.5 -115t-85.5 -36zM987 403q-29 0 -39 -23.5t-10 -78.5q0 -54 10 -78t39 -24
q30 0 40.5 24t10.5 78q0 55 -10 78.5t-41 23.5zM967 1016q49 0 79.5 -24.5t39 -51t8.5 -53.5q0 -43 -34.5 -72.5t-72.5 -34.5q-213 -23 -340 -147q3 8 9 22t25 53.5t39 75.5t50 80.5t59.5 76t66 53.5t71.5 22zM285 909q39 0 78 -21t69.5 -55t58.5 -74.5t48 -81.5t35 -75
t22 -55l8 -21q-117 148 -319 148q-49 0 -88 30t-39 76q0 53 33.5 91t93.5 38zM643 1214q38 -37 48.5 -102t-2.5 -131t-31.5 -126.5t-35.5 -98.5l-18 -39q20 191 -125 330q-35 35 -42 81.5t24 83.5q23 23 53 34t65 3.5t64 -35.5z" />
    <glyph glyph-name="comma" unicode="," horiz-adv-x="423" 
d="M-199 -248l-16 29q188 103 188 239q0 82 -67 91l-12 22q72 39 161 78q31 -17 49.5 -52t18.5 -73q0 -97 -86.5 -182t-235.5 -152z" />
    <glyph glyph-name="hyphen" unicode="-" 
d="M207 403q-13 0 -19 -2v-200q4 -2 19 -2q37 0 50 25t13 77q0 54 -13 78t-50 24zM518 330v-49h-82v-78h96v-49h-155v297h155v-52h-96v-69h82zM203 150q-47 0 -74 4v292q61 9 76 9q67 0 96 -37.5t29 -116.5t-29.5 -115t-97.5 -36zM586 451h80l39 -164l38 164h82
q3 -45 13 -297h-60q0 108 -6 213l-41 -168h-55l-41 168h-2q-4 -140 -4 -213h-58q3 156 15 297zM987 150q-60 0 -84 35.5t-24 115.5q0 81 24 117.5t84 36.5t85.5 -37t25.5 -117q0 -79 -25.5 -115t-85.5 -36zM987 403q-29 0 -39 -23.5t-10 -78.5q0 -54 10 -78t39 -24
q30 0 40.5 24t10.5 78q0 55 -10 78.5t-41 23.5zM967 1016q49 0 79.5 -24.5t39 -51t8.5 -53.5q0 -43 -34.5 -72.5t-72.5 -34.5q-213 -23 -340 -147q3 8 9 22t25 53.5t39 75.5t50 80.5t59.5 76t66 53.5t71.5 22zM285 909q39 0 78 -21t69.5 -55t58.5 -74.5t48 -81.5t35 -75
t22 -55l8 -21q-117 148 -319 148q-49 0 -88 30t-39 76q0 53 33.5 91t93.5 38zM643 1214q38 -37 48.5 -102t-2.5 -131t-31.5 -126.5t-35.5 -98.5l-18 -39q20 191 -125 330q-35 35 -42 81.5t24 83.5q23 23 53 34t65 3.5t64 -35.5z" />
    <glyph glyph-name="period" unicode="." horiz-adv-x="421" 
d="M0 -14q-41 0 -67.5 26t-26.5 66q0 50 36.5 89.5t82.5 39.5q40 0 66 -26t26 -66q0 -51 -35.5 -90t-81.5 -39z" />
    <glyph glyph-name="slash" unicode="/" 
d="M207 403q-13 0 -19 -2v-200q4 -2 19 -2q37 0 50 25t13 77q0 54 -13 78t-50 24zM518 330v-49h-82v-78h96v-49h-155v297h155v-52h-96v-69h82zM203 150q-47 0 -74 4v292q61 9 76 9q67 0 96 -37.5t29 -116.5t-29.5 -115t-97.5 -36zM586 451h80l39 -164l38 164h82
q3 -45 13 -297h-60q0 108 -6 213l-41 -168h-55l-41 168h-2q-4 -140 -4 -213h-58q3 156 15 297zM987 150q-60 0 -84 35.5t-24 115.5q0 81 24 117.5t84 36.5t85.5 -37t25.5 -117q0 -79 -25.5 -115t-85.5 -36zM987 403q-29 0 -39 -23.5t-10 -78.5q0 -54 10 -78t39 -24
q30 0 40.5 24t10.5 78q0 55 -10 78.5t-41 23.5zM967 1016q49 0 79.5 -24.5t39 -51t8.5 -53.5q0 -43 -34.5 -72.5t-72.5 -34.5q-213 -23 -340 -147q3 8 9 22t25 53.5t39 75.5t50 80.5t59.5 76t66 53.5t71.5 22zM285 909q39 0 78 -21t69.5 -55t58.5 -74.5t48 -81.5t35 -75
t22 -55l8 -21q-117 148 -319 148q-49 0 -88 30t-39 76q0 53 33.5 91t93.5 38zM643 1214q38 -37 48.5 -102t-2.5 -131t-31.5 -126.5t-35.5 -98.5l-18 -39q20 191 -125 330q-35 35 -42 81.5t24 83.5q23 23 53 34t65 3.5t64 -35.5z" />
    <glyph glyph-name="zero" unicode="0" horiz-adv-x="1173" 
d="M375 -27q-166 0 -264.5 123.5t-98.5 341.5q0 117 30 252.5t89.5 266.5t137.5 238t183 173t218 66q166 0 264 -123.5t98 -341.5q0 -97 -22 -208.5t-61.5 -222.5t-99 -213t-130 -180.5t-160.5 -125t-184 -46.5zM362 16q78 0 150 61t125.5 159.5t97.5 219t71.5 244
t42.5 230.5t15 182q0 279 -182 279q-77 0 -149 -61t-125.5 -159.5t-97.5 -219t-72 -244t-43 -230.5t-15 -182q0 -137 47 -208t135 -71z" />
    <glyph glyph-name="one" unicode="1" horiz-adv-x="702" 
d="M-131 0l6 31q114 25 175.5 81.5t84.5 161.5l180 846q9 38 9 66q0 61 -47.5 85.5t-167.5 24.5l6 29q241 48 415 113l-245 -1168q-13 -60 -13 -94q0 -60 33.5 -92.5t116.5 -52.5l-6 -31q-112 10 -281 10q-164 0 -266 -10z" />
    <glyph glyph-name="two" unicode="2" horiz-adv-x="989" 
d="M336 135q112 0 170.5 17t105 65.5t109.5 159.5h27q-37 -134 -107 -379q-161 8 -403 8q-197 0 -400 -6l-2 27l537 587q178 196 250.5 335t72.5 280q0 76 -33 120t-94 44q-106 0 -217 -110t-202 -279h-29q38 204 59 286q70 67 167.5 105.5t199.5 38.5q146 0 241 -73
t95 -198q0 -124 -89 -252t-321 -342l-463 -432q22 0 127 -1t199 -1z" />
    <glyph glyph-name="three" unicode="3" horiz-adv-x="970" 
d="M193 -25q-104 0 -184 30t-118 79q20 152 60 295h24q6 -83 19 -144.5t36 -112.5t61 -77.5t91 -26.5q65 0 125 29.5t105.5 79.5t80 112t52.5 129t18 130q0 111 -61.5 170t-179.5 59h-68l8 49h66q103 0 187 68t127.5 169t43.5 206q0 84 -40 129t-103 45q-94 0 -197.5 -99
t-193.5 -258h-29q19 133 59 271q68 59 158 93t180 34q92 0 168.5 -29.5t126 -92t49.5 -147.5t-41 -166t-125 -147t-196 -92q122 -30 184 -107.5t62 -181.5q0 -61 -20.5 -126.5t-65.5 -132t-108 -119t-157 -85.5t-204 -33z" />
    <glyph glyph-name="four" unicode="4" 
d="M207 403q-13 0 -19 -2v-200q4 -2 19 -2q37 0 50 25t13 77q0 54 -13 78t-50 24zM518 330v-49h-82v-78h96v-49h-155v297h155v-52h-96v-69h82zM203 150q-47 0 -74 4v292q61 9 76 9q67 0 96 -37.5t29 -116.5t-29.5 -115t-97.5 -36zM586 451h80l39 -164l38 164h82
q3 -45 13 -297h-60q0 108 -6 213l-41 -168h-55l-41 168h-2q-4 -140 -4 -213h-58q3 156 15 297zM987 150q-60 0 -84 35.5t-24 115.5q0 81 24 117.5t84 36.5t85.5 -37t25.5 -117q0 -79 -25.5 -115t-85.5 -36zM987 403q-29 0 -39 -23.5t-10 -78.5q0 -54 10 -78t39 -24
q30 0 40.5 24t10.5 78q0 55 -10 78.5t-41 23.5zM967 1016q49 0 79.5 -24.5t39 -51t8.5 -53.5q0 -43 -34.5 -72.5t-72.5 -34.5q-213 -23 -340 -147q3 8 9 22t25 53.5t39 75.5t50 80.5t59.5 76t66 53.5t71.5 22zM285 909q39 0 78 -21t69.5 -55t58.5 -74.5t48 -81.5t35 -75
t22 -55l8 -21q-117 148 -319 148q-49 0 -88 30t-39 76q0 53 33.5 91t93.5 38zM643 1214q38 -37 48.5 -102t-2.5 -131t-31.5 -126.5t-35.5 -98.5l-18 -39q20 191 -125 330q-35 35 -42 81.5t24 83.5q23 23 53 34t65 3.5t64 -35.5z" />
    <glyph glyph-name="five" unicode="5" horiz-adv-x="958" 
d="M858 1276l-584 2l-120 -473q121 115 280 115q150 0 244 -90t94 -246q0 -81 -23.5 -166t-72 -164t-114.5 -141.5t-157.5 -100t-195.5 -37.5q-97 0 -179 30t-126 79q27 165 61 293h25q6 -361 198 -361q71 0 136 41t111.5 107t81.5 147.5t52 165.5t17 158q0 111 -45 171
t-131 60q-79 0 -158.5 -45.5t-140.5 -130.5h-37l178 717h434q158 0 223 80h29q-28 -91 -80 -211z" />
    <glyph glyph-name="six" unicode="6" horiz-adv-x="1067" 
d="M684 1434q92 0 175 -33t124 -82q-27 -114 -84 -281h-27q-10 157 -58 256t-132 99q-144 0 -261.5 -186.5t-205.5 -540.5q128 200 338 200q138 0 227.5 -83t89.5 -228q0 -95 -38.5 -196t-106.5 -187.5t-173.5 -142.5t-225.5 -56q-165 0 -246.5 99t-81.5 282
q0 117 26.5 256.5t83.5 285.5t135.5 265.5t194 196t246.5 76.5zM520 811q-70 0 -133.5 -38t-108 -99t-78 -135.5t-49.5 -149t-16 -139.5q0 -110 44 -174t126 -64q60 0 114.5 28.5t95.5 76t75 108t55.5 125t33 126t11.5 112.5q0 107 -45.5 165t-124.5 58z" />
    <glyph glyph-name="seven" unicode="7" horiz-adv-x="919" 
d="M973 1409l14 -31q-352 -530 -535 -842.5t-286 -537.5l-219 2l-6 25l907 1241h-402q-77 0 -126.5 -19.5t-87.5 -61t-89 -126.5h-28q53 216 94 352q225 -6 412 -6q98 0 352 4z" />
    <glyph glyph-name="eight" unicode="8" horiz-adv-x="1062" 
d="M322 -27q-167 0 -269 85t-102 229q0 156 111 295.5t292 185.5q-82 29 -136 99t-54 159q0 68 32.5 139.5t89 131.5t144 98.5t186.5 38.5q145 0 239.5 -76.5t94.5 -202.5q0 -123 -92 -234.5t-244 -152.5q101 -35 164.5 -119t63.5 -196q0 -64 -22 -131t-67 -129.5
t-106 -111.5t-145.5 -78.5t-179.5 -29.5zM479 786q78 0 149.5 68t111.5 165.5t40 190.5q0 89 -40.5 136t-110.5 47q-69 0 -127 -40.5t-93 -103t-54 -132t-19 -132.5q0 -91 42 -145t101 -54zM309 14q82 0 152 48t113 122.5t66.5 158t23.5 159.5q0 113 -51 179.5t-126 66.5
q-96 0 -180.5 -81.5t-131 -198.5t-46.5 -230q0 -109 47.5 -166.5t132.5 -57.5z" />
    <glyph glyph-name="nine" unicode="9" horiz-adv-x="1064" 
d="M602 1434q159 0 246.5 -101.5t87.5 -300.5q0 -83 -15 -179.5t-45 -198.5t-72.5 -200t-101 -185.5t-125.5 -153t-152 -104t-175 -38.5q-92 0 -174.5 33.5t-116.5 75.5q36 159 80 299h24q0 -180 41 -273.5t136 -93.5q63 0 121.5 32t105 88t86.5 122.5t71 145t52 145.5
t37 133q-153 -139 -330 -139q-137 0 -218 85.5t-81 231.5q0 102 38 204t103.5 185t165 135t211.5 52zM408 592q82 0 157 56.5t125 142t79.5 185t29.5 187.5q0 107 -45.5 168.5t-122.5 61.5q-58 0 -111 -27.5t-93 -74t-73 -105.5t-54 -123.5t-32.5 -127t-11.5 -116.5
q0 -107 40 -167t112 -60z" />
    <glyph glyph-name="colon" unicode=":" horiz-adv-x="421" 
d="M160 725q-41 0 -67.5 26.5t-26.5 67.5q0 50 35.5 89.5t82.5 39.5q40 0 66 -26.5t26 -67.5q0 -50 -35.5 -89.5t-80.5 -39.5zM0 -14q-41 0 -67.5 26t-26.5 66q0 50 36.5 89.5t82.5 39.5q40 0 66 -26t26 -66q0 -51 -35.5 -90t-81.5 -39z" />
    <glyph glyph-name="semicolon" unicode=";" horiz-adv-x="434" 
d="M147 725q-40 0 -66 26.5t-26 67.5q0 50 35.5 89.5t81.5 39.5q41 0 67.5 -26.5t26.5 -67.5q0 -50 -36 -89.5t-83 -39.5zM-199 -248l-16 29q188 103 188 239q0 82 -67 91l-12 22q72 39 161 78q31 -17 49.5 -52t18.5 -73q0 -97 -86.5 -182t-235.5 -152z" />
    <glyph glyph-name="less" unicode="&#x3c;" 
d="M207 403q-13 0 -19 -2v-200q4 -2 19 -2q37 0 50 25t13 77q0 54 -13 78t-50 24zM518 330v-49h-82v-78h96v-49h-155v297h155v-52h-96v-69h82zM203 150q-47 0 -74 4v292q61 9 76 9q67 0 96 -37.5t29 -116.5t-29.5 -115t-97.5 -36zM586 451h80l39 -164l38 164h82
q3 -45 13 -297h-60q0 108 -6 213l-41 -168h-55l-41 168h-2q-4 -140 -4 -213h-58q3 156 15 297zM987 150q-60 0 -84 35.5t-24 115.5q0 81 24 117.5t84 36.5t85.5 -37t25.5 -117q0 -79 -25.5 -115t-85.5 -36zM987 403q-29 0 -39 -23.5t-10 -78.5q0 -54 10 -78t39 -24
q30 0 40.5 24t10.5 78q0 55 -10 78.5t-41 23.5zM967 1016q49 0 79.5 -24.5t39 -51t8.5 -53.5q0 -43 -34.5 -72.5t-72.5 -34.5q-213 -23 -340 -147q3 8 9 22t25 53.5t39 75.5t50 80.5t59.5 76t66 53.5t71.5 22zM285 909q39 0 78 -21t69.5 -55t58.5 -74.5t48 -81.5t35 -75
t22 -55l8 -21q-117 148 -319 148q-49 0 -88 30t-39 76q0 53 33.5 91t93.5 38zM643 1214q38 -37 48.5 -102t-2.5 -131t-31.5 -126.5t-35.5 -98.5l-18 -39q20 191 -125 330q-35 35 -42 81.5t24 83.5q23 23 53 34t65 3.5t64 -35.5z" />
    <glyph glyph-name="equal" unicode="=" 
d="M207 403q-13 0 -19 -2v-200q4 -2 19 -2q37 0 50 25t13 77q0 54 -13 78t-50 24zM518 330v-49h-82v-78h96v-49h-155v297h155v-52h-96v-69h82zM203 150q-47 0 -74 4v292q61 9 76 9q67 0 96 -37.5t29 -116.5t-29.5 -115t-97.5 -36zM586 451h80l39 -164l38 164h82
q3 -45 13 -297h-60q0 108 -6 213l-41 -168h-55l-41 168h-2q-4 -140 -4 -213h-58q3 156 15 297zM987 150q-60 0 -84 35.5t-24 115.5q0 81 24 117.5t84 36.5t85.5 -37t25.5 -117q0 -79 -25.5 -115t-85.5 -36zM987 403q-29 0 -39 -23.5t-10 -78.5q0 -54 10 -78t39 -24
q30 0 40.5 24t10.5 78q0 55 -10 78.5t-41 23.5zM967 1016q49 0 79.5 -24.5t39 -51t8.5 -53.5q0 -43 -34.5 -72.5t-72.5 -34.5q-213 -23 -340 -147q3 8 9 22t25 53.5t39 75.5t50 80.5t59.5 76t66 53.5t71.5 22zM285 909q39 0 78 -21t69.5 -55t58.5 -74.5t48 -81.5t35 -75
t22 -55l8 -21q-117 148 -319 148q-49 0 -88 30t-39 76q0 53 33.5 91t93.5 38zM643 1214q38 -37 48.5 -102t-2.5 -131t-31.5 -126.5t-35.5 -98.5l-18 -39q20 191 -125 330q-35 35 -42 81.5t24 83.5q23 23 53 34t65 3.5t64 -35.5z" />
    <glyph glyph-name="greater" unicode="&#x3e;" 
d="M207 403q-13 0 -19 -2v-200q4 -2 19 -2q37 0 50 25t13 77q0 54 -13 78t-50 24zM518 330v-49h-82v-78h96v-49h-155v297h155v-52h-96v-69h82zM203 150q-47 0 -74 4v292q61 9 76 9q67 0 96 -37.5t29 -116.5t-29.5 -115t-97.5 -36zM586 451h80l39 -164l38 164h82
q3 -45 13 -297h-60q0 108 -6 213l-41 -168h-55l-41 168h-2q-4 -140 -4 -213h-58q3 156 15 297zM987 150q-60 0 -84 35.5t-24 115.5q0 81 24 117.5t84 36.5t85.5 -37t25.5 -117q0 -79 -25.5 -115t-85.5 -36zM987 403q-29 0 -39 -23.5t-10 -78.5q0 -54 10 -78t39 -24
q30 0 40.5 24t10.5 78q0 55 -10 78.5t-41 23.5zM967 1016q49 0 79.5 -24.5t39 -51t8.5 -53.5q0 -43 -34.5 -72.5t-72.5 -34.5q-213 -23 -340 -147q3 8 9 22t25 53.5t39 75.5t50 80.5t59.5 76t66 53.5t71.5 22zM285 909q39 0 78 -21t69.5 -55t58.5 -74.5t48 -81.5t35 -75
t22 -55l8 -21q-117 148 -319 148q-49 0 -88 30t-39 76q0 53 33.5 91t93.5 38zM643 1214q38 -37 48.5 -102t-2.5 -131t-31.5 -126.5t-35.5 -98.5l-18 -39q20 191 -125 330q-35 35 -42 81.5t24 83.5q23 23 53 34t65 3.5t64 -35.5z" />
    <glyph glyph-name="question" unicode="?" horiz-adv-x="843" 
d="M193 360h-58l33 132q24 96 78.5 172t138.5 153q50 48 75 74t64 74t58 87t34 94.5t15 115.5q0 155 -117 155q-64 0 -138.5 -60t-135.5 -144.5t-113 -184.5l-27 2q22 162 58 307q149 123 350 123q138 0 213.5 -63t75.5 -189q0 -63 -24.5 -124.5t-55.5 -105.5t-85.5 -95
t-86 -75.5t-86.5 -64.5q-98 -70 -161 -141.5t-83 -155.5zM123 -14q-41 0 -67.5 26t-26.5 66q0 50 35.5 89.5t82.5 39.5q40 0 66.5 -26t26.5 -66q0 -51 -35.5 -90t-81.5 -39z" />
    <glyph glyph-name="at" unicode="@" 
d="M207 403q-13 0 -19 -2v-200q4 -2 19 -2q37 0 50 25t13 77q0 54 -13 78t-50 24zM518 330v-49h-82v-78h96v-49h-155v297h155v-52h-96v-69h82zM203 150q-47 0 -74 4v292q61 9 76 9q67 0 96 -37.5t29 -116.5t-29.5 -115t-97.5 -36zM586 451h80l39 -164l38 164h82
q3 -45 13 -297h-60q0 108 -6 213l-41 -168h-55l-41 168h-2q-4 -140 -4 -213h-58q3 156 15 297zM987 150q-60 0 -84 35.5t-24 115.5q0 81 24 117.5t84 36.5t85.5 -37t25.5 -117q0 -79 -25.5 -115t-85.5 -36zM987 403q-29 0 -39 -23.5t-10 -78.5q0 -54 10 -78t39 -24
q30 0 40.5 24t10.5 78q0 55 -10 78.5t-41 23.5zM967 1016q49 0 79.5 -24.5t39 -51t8.5 -53.5q0 -43 -34.5 -72.5t-72.5 -34.5q-213 -23 -340 -147q3 8 9 22t25 53.5t39 75.5t50 80.5t59.5 76t66 53.5t71.5 22zM285 909q39 0 78 -21t69.5 -55t58.5 -74.5t48 -81.5t35 -75
t22 -55l8 -21q-117 148 -319 148q-49 0 -88 30t-39 76q0 53 33.5 91t93.5 38zM643 1214q38 -37 48.5 -102t-2.5 -131t-31.5 -126.5t-35.5 -98.5l-18 -39q20 191 -125 330q-35 35 -42 81.5t24 83.5q23 23 53 34t65 3.5t64 -35.5z" />
    <glyph glyph-name="A" unicode="A" horiz-adv-x="1284" 
d="M727 1456l184 -1087q27 -155 65.5 -236.5t110.5 -103.5l-6 -29q-102 10 -239 10q-131 0 -254 -10l6 31q81 22 119.5 77.5t38.5 149.5q0 41 -11 109l-18 122h-504l-72 -127q-75 -134 -75 -215q0 -94 108 -118l-6 -29q-102 10 -205 10q-104 0 -186 -10l6 29
q78 30 149.5 112t153.5 228l606 1087h29zM612 1194l-366 -657h469z" />
    <glyph glyph-name="B" unicode="B" horiz-adv-x="1161" 
d="M698 760q128 -31 190 -105.5t62 -179.5q0 -62 -19 -125t-64 -127t-110.5 -113t-168.5 -79.5t-228 -30.5q-58 0 -172.5 3t-169.5 3q-84 0 -161 -6l6 31q93 27 141.5 103t83.5 237l145 684q27 128 27 194q0 72 -28 108t-89 48l7 29q106 -4 167 -4q58 0 178.5 2t182.5 2
q90 0 168.5 -30.5t131 -97t52.5 -157.5q0 -124 -90 -237.5t-242 -151.5zM629 1386q-111 0 -172 -4l-127 -604h184q76 0 142 39t107.5 100t65 132.5t23.5 140.5q0 96 -56.5 146t-166.5 50zM303 45q225 0 342 124.5t117 336.5q0 225 -252 225h-191l-110 -520q-10 -55 -10 -84
q0 -44 23.5 -63t80.5 -19z" />
    <glyph glyph-name="C" unicode="C" horiz-adv-x="1275" 
d="M518 -27q-234 0 -376 156t-142 408q0 101 25 208.5t71 210t116.5 194t155.5 160.5t193.5 109.5t226.5 40.5q105 0 216.5 -32t183.5 -93q-24 -171 -70 -383h-26q-3 83 -24 163t-58.5 149t-97.5 111t-134 42q-110 0 -208 -67t-166 -173.5t-117.5 -237t-73 -259.5
t-23.5 -240q0 -202 80 -313t217 -111q92 0 195 65t183.5 161t127.5 200h27q-28 -178 -72 -348q-94 -60 -216 -90.5t-214 -30.5z" />
    <glyph glyph-name="D" unicode="D" horiz-adv-x="1349" 
d="M-150 0l7 29q100 26 148 104t81 238l150 704q20 103 20 168q0 76 -27.5 114.5t-85.5 47.5l7 29q72 -2 229 -2q34 0 127 1t156 1q263 0 407.5 -145t144.5 -392q0 -124 -35.5 -252t-104.5 -243t-162 -205t-217.5 -143.5t-260.5 -53.5q-71 0 -189.5 3t-166.5 3
q-142 0 -228 -6zM330 51h96q94 0 180 43t150.5 115.5t117 166.5t85.5 198t51 207.5t18 197.5q0 407 -371 407q-25 0 -95 -1t-109 -1l-213 -1011q-25 -119 -25 -185q0 -71 27.5 -104t87.5 -33z" />
    <glyph glyph-name="E" unicode="E" horiz-adv-x="1099" 
d="M555 1425q82 0 261 3t222 4q-30 -173 -73 -361h-23q-17 174 -78.5 243.5t-195.5 69.5q-150 0 -207 -6l-129 -608h149q95 0 167.5 58.5t115.5 168.5h29q-42 -157 -62 -249q-23 -108 -47 -252h-27q-5 110 -44 167.5t-128 57.5h-163l-70 -324q-27 -129 -27 -198
q0 -77 30 -112.5t93 -35.5q120 -1 190 17.5t126 66.5q93 85 170 242h26q-44 -213 -84 -377q-133 6 -454 6q-248 0 -465 -6l6 31q94 25 144.5 110.5t84.5 251.5l139 649q29 142 29 207q0 72 -27.5 107.5t-89.5 46.5l7 31q254 -9 405 -9z" />
    <glyph glyph-name="F" unicode="F" horiz-adv-x="1030" 
d="M551 1425q80 0 245.5 3t213.5 4q-26 -162 -74 -361h-23q-12 177 -72.5 244t-185.5 67q-107 0 -196 -6l-135 -645h135q93 0 158.5 53.5t113.5 165.5h29q-29 -116 -55 -243q-33 -154 -50 -250h-28q-5 118 -39.5 171.5t-126.5 53.5h-148l-57 -268q-27 -123 -27 -197
q0 -88 36.5 -129t121.5 -55l-6 -33q-110 10 -283 10q-156 0 -241 -10l6 31q96 23 145 108t86 256l137 647q29 132 29 209q0 72 -27.5 106.5t-89.5 45.5l7 31q254 -9 401 -9z" />
    <glyph glyph-name="G" unicode="G" horiz-adv-x="1378" 
d="M537 -27q-244 0 -389.5 156.5t-145.5 409.5q0 123 35 251.5t105 248t164.5 214t223.5 151t271 56.5q118 0 231 -34.5t187 -98.5q-18 -144 -68 -381h-27q-4 120 -46 226t-121 174.5t-177 68.5q-93 0 -177 -48.5t-146.5 -129t-114 -182t-83.5 -210.5t-49 -212t-17 -189
q0 -206 85 -317t238 -111q86 0 175.5 38t156.5 104l33 145q14 57 14 109q0 85 -45 132t-139 68l8 31h541l-9 -31q-85 -21 -130.5 -86t-71.5 -186l-41 -199q-105 -76 -230 -122t-241 -46z" />
    <glyph glyph-name="H" unicode="H" horiz-adv-x="1382" 
d="M1161 1423q100 0 232 11l-7 -31q-154 -27 -219 -332l-143 -676q-25 -129 -25 -188q0 -157 107 -178l-6 -29q-85 10 -234 10q-160 0 -248 -10l7 31q90 20 146 104.5t89 241.5l74 348h-621l-73 -348q-23 -112 -23 -172q0 -152 121 -176l-6 -29q-88 10 -246 10
q-151 0 -236 -10l7 31q83 20 137.5 108t89.5 256l143 676q23 108 23 172q0 141 -107 162l7 29q115 -11 231 -11q108 0 244 11l-7 -31q-87 -17 -142 -97t-87 -225l-65 -309h620l66 309q20 110 20 164q0 73 -28.5 110.5t-90.5 49.5l7 29q121 -11 243 -11z" />
    <glyph glyph-name="I" unicode="I" horiz-adv-x="608" 
d="M-150 0l7 31q83 19 140.5 107.5t92.5 256.5l143 676q23 112 23 170q0 74 -27.5 113t-85.5 51l7 29q115 -11 233 -11q99 0 235 11l-6 -31q-161 -28 -225 -332l-143 -676q-25 -129 -25 -188q0 -157 113 -178l-6 -29q-88 10 -238 10q-153 0 -238 -10z" />
    <glyph glyph-name="J" unicode="J" horiz-adv-x="604" 
d="M-334 -383l-6 29q153 85 263.5 243.5t154.5 374.5l166 789q22 105 22 186t-32.5 118t-106.5 48l6 29q161 -11 254 -11q90 0 240 11l-6 -31q-84 -18 -135 -98.5t-83 -233.5l-159 -762q-19 -94 -44 -171t-70 -160t-105.5 -147.5t-152 -121t-206.5 -92.5z" />
    <glyph glyph-name="K" unicode="K" horiz-adv-x="1280" 
d="M1292 1434l-6 -31q-160 -53 -280 -166l-398 -371l150 -428q56 -158 121 -236.5t151 -78.5q21 0 29 2l10 -29q-150 -67 -250 -129q-95 98 -172 279q-70 172 -166 499l-196 -182l-35 -168q-25 -119 -25 -186q0 -82 30 -125t93 -55l-6 -29q-88 10 -244 10t-241 -10l6 31
q95 24 144.5 106t86.5 258l144 688q22 96 22 160q0 140 -117 160l7 31q112 -11 231 -11q104 0 240 11l-7 -31q-89 -15 -137 -88.5t-84 -243.5l-90 -424l457 426q190 174 190 256q0 60 -90 76l6 29q133 -9 219 -9q101 0 207 9z" />
    <glyph glyph-name="L" unicode="L" horiz-adv-x="1024" 
d="M-143 0l6 31q95 26 144 105.5t87 256.5l144 678q22 113 22 168q0 143 -117 164l7 31q121 -11 233 -11q102 0 238 11l-7 -31q-89 -18 -137.5 -94t-83.5 -238l-151 -719q-17 -87 -17 -141q0 -156 131 -156q167 0 271 82q116 88 198 254h27q-38 -200 -88 -391q-127 6 -449 6
q-250 0 -458 -6z" />
    <glyph glyph-name="M" unicode="M" horiz-adv-x="1679" 
d="M1507 1430q124 0 181 4l-7 -31q-42 -7 -74.5 -28.5t-54.5 -50t-41 -76.5t-31.5 -93t-27.5 -115l-135 -630q-25 -119 -25 -195q0 -162 111 -186l-6 -29q-87 10 -238 10q-145 0 -227 -10l6 31q81 17 133.5 107t87.5 257l191 891l-758 -1292h-27l-239 1231l-166 -776
q-29 -138 -29 -220q0 -178 121 -200l-6 -29q-79 10 -199 10q-124 0 -203 -10l4 29q181 40 263 424l112 532q31 148 31 229q0 172 -117 191l6 29q94 -4 166 -4q105 0 148 4l225 -1182l690 1182q86 -4 135 -4z" />
    <glyph glyph-name="N" unicode="N" horiz-adv-x="1335" 
d="M1163 1423q82 0 207 11l-6 -29q-99 -21 -157 -122t-99 -294l-213 -1003h-31l-542 1228l-162 -774q-31 -163 -31 -229q0 -160 115 -182l-6 -29q-59 10 -185 10q-131 0 -205 -10l7 29q173 36 254 415l116 557q31 148 31 220q0 164 -113 184l7 29q35 -4 131 -4q59 0 133 4
l495 -1125l150 695q28 151 28 217q0 165 -114 184l6 29q104 -11 184 -11z" />
    <glyph glyph-name="O" unicode="O" horiz-adv-x="1374" 
d="M492 -27q-220 0 -357 146t-137 401q0 127 34.5 259.5t102 254t157 217t210.5 152.5t252 57q216 0 352.5 -148t136.5 -399q0 -107 -25 -218.5t-70.5 -215.5t-113.5 -196.5t-149.5 -161t-183 -108.5t-209.5 -40zM485 14q106 0 200.5 69.5t160 179t113.5 244t71 266
t23 243.5q0 201 -80 302t-215 101q-89 0 -170 -48.5t-141.5 -129.5t-109.5 -184t-80 -215.5t-47.5 -221t-16.5 -202.5q0 -204 79 -304t213 -100z" />
    <glyph glyph-name="P" unicode="P" horiz-adv-x="1069" 
d="M150 1434h475q173 0 286 -83.5t113 -234.5q0 -139 -77 -249.5t-204.5 -170t-277.5 -59.5h-170l-51 -236q-25 -121 -25 -180q0 -84 37 -129.5t121 -60.5l-4 -31q-123 10 -267 10q-145 0 -253 -10l6 31q53 14 90 42t63.5 76.5t43 103.5t34.5 140l148 692q22 107 22 170
q0 69 -28 103t-89 45zM305 684h135q118 0 212 68t143 175.5t49 229.5q0 114 -60.5 173t-169.5 59q-96 0 -159 -5z" />
    <glyph glyph-name="Q" unicode="Q" horiz-adv-x="1374" 
d="M817 -289q134 0 264 80l19 -22q-129 -141 -279 -263q-139 66 -238 194.5t-124 272.5q-207 12 -334 157.5t-127 389.5q0 127 34.5 259.5t102 254t157 217t210.5 152.5t252 57q216 0 352.5 -148t136.5 -399q0 -127 -34.5 -259.5t-101 -252.5t-155 -215.5t-206 -153
t-244.5 -59.5q33 -119 115.5 -190.5t199.5 -71.5zM193 418q0 -204 79 -304t213 -100q106 0 200.5 69.5t160 179t113.5 244t71 266t23 243.5q0 201 -80 302t-215 101q-89 0 -170 -48.5t-141.5 -129.5t-109.5 -184t-80 -215.5t-47.5 -221t-16.5 -202.5z" />
    <glyph glyph-name="R" unicode="R" horiz-adv-x="1218" 
d="M633 711l127 -320q29 -74 51 -118t52.5 -83.5t69 -55.5t89.5 -13l10 -27q-140 -60 -244 -131q-53 66 -122 221q-56 121 -138 377q-25 79 -66 109t-114 30h-37l-63 -305q-25 -122 -25 -184q0 -83 31 -126.5t94 -55.5l-6 -29q-88 10 -242 10q-156 0 -241 -10l6 31
q92 24 142 104t89 260l140 658q26 133 26 194q0 72 -28 108t-89 50l5 29q45 -2 145 -2q60 0 181.5 1t178.5 1q174 0 284 -78.5t110 -214.5q0 -144 -122.5 -269.5t-293.5 -160.5zM457 1384l-135 -636h184q86 0 156.5 42t113 107.5t65.5 138.5t23 142q0 103 -59 158t-164 55
q-88 0 -184 -7z" />
    <glyph glyph-name="S" unicode="S" horiz-adv-x="974" 
d="M246 -25q-110 0 -204.5 26t-135.5 67q15 152 55 338h27q11 -91 29 -157.5t49.5 -120.5t80.5 -82t115 -28q70 0 130 31t98 80t59.5 105.5t21.5 109.5q0 61 -25.5 113.5t-65.5 92t-89 77t-98 77t-89 82.5t-65.5 103t-25.5 131q0 190 133 314t321 124q182 0 299 -90
q-25 -194 -55 -319h-25q-17 84 -38 148t-50.5 115t-69 78t-87.5 27q-78 0 -143.5 -51t-99.5 -124t-34 -146q0 -63 26.5 -117.5t68.5 -95.5t93 -79.5t102.5 -78.5t93.5 -83t68.5 -101.5t26.5 -126.5q0 -87 -35.5 -166.5t-99 -140t-157.5 -96.5t-205 -36z" />
    <glyph glyph-name="T" unicode="T" horiz-adv-x="1150" 
d="M70 1067l100 367h983l-53 -367h-29q-27 164 -89 241.5t-179 77.5q-49 0 -72 -2l-207 -989q-22 -102 -22 -184q0 -83 27.5 -126.5t86.5 -55.5l-6 -29q-90 10 -243 10q-157 0 -244 -10l6 31q88 18 144 107.5t92 256.5l213 989q-23 2 -64 2q-116 0 -212.5 -76.5
t-203.5 -242.5h-28z" />
    <glyph glyph-name="U" unicode="U" horiz-adv-x="1404" 
d="M840 -27q-13 80 -13 109q0 122 39 266q-94 -170 -221 -271.5t-278 -101.5q-157 0 -231.5 90t-74.5 244q0 113 35 281l105 481q22 104 22 170q0 74 -27.5 112.5t-86.5 49.5l6 31q116 -11 231 -11q104 0 240 11l-6 -31q-90 -17 -137 -89.5t-83 -242.5l-110 -516
q-37 -179 -37 -279q0 -107 47 -170t150 -63q86 0 172.5 55t153.5 141.5t116 188t70 199.5l94 444q20 97 20 162q0 78 -29.5 119t-91.5 53l7 29q116 -11 237 -11q100 0 236 11l-6 -31q-89 -20 -136 -95t-82 -237l-141 -663q-22 -105 -22 -181q0 -86 32 -126.5t99 -53.5
l-4 -29q-58 -1 -151 -15.5t-144 -29.5z" />
    <glyph glyph-name="V" unicode="V" horiz-adv-x="1300" 
d="M1182 1425q94 0 200 9l-6 -31q-87 -28 -147 -92.5t-133 -196.5l-633 -1143h-31l-190 1100q-15 81 -27.5 131.5t-32 96.5t-47 71t-65.5 35l6 29q167 -9 233 -9q83 0 258 9l-6 -29q-162 -50 -162 -238q0 -41 9 -96l141 -846l430 787q96 181 96 272q0 101 -104 121l6 29
q128 -9 205 -9z" />
    <glyph glyph-name="W" unicode="W" horiz-adv-x="1966" 
d="M1839 1425q101 0 207 9l-6 -31q-78 -25 -145.5 -94t-133.5 -197l-594 -1141h-30l-148 1037l-543 -1037h-28l-174 1096q-30 161 -68 240.5t-106 97.5l6 29q162 -9 241 -9q77 0 252 9l-6 -29q-168 -46 -168 -231q0 -32 11 -93l126 -841l443 858q-24 154 -55 222.5t-93 86.5
l7 27q166 -9 235 -9t240 9l-6 -29q-164 -38 -164 -236q0 -26 8 -108l106 -817l408 798q72 147 72 238q0 107 -103 125l6 29q106 -9 203 -9z" />
    <glyph glyph-name="X" unicode="X" horiz-adv-x="1273" 
d="M1268 1434l-6 -29q-163 -44 -338 -264l-287 -359l194 -479q97 -241 228 -274l-6 -29q-137 10 -256 10q-120 0 -267 -10l7 29q137 43 137 172q0 69 -33 151l-131 322l-274 -359q-105 -137 -105 -206q0 -56 66 -82l-7 -27q-84 8 -198 8q-115 0 -191 -8l6 31q197 74 355 274
l325 424l-170 416q-52 129 -94.5 182t-111.5 78l8 29q167 -9 233 -9q70 0 246 9l-6 -29q-125 -35 -125 -148q0 -55 35 -145l112 -276l236 294q106 132 106 199q0 55 -69 78l6 27q137 -9 182 -9q51 0 193 9z" />
    <glyph glyph-name="Y" unicode="Y" horiz-adv-x="1177" 
d="M1063 1425q79 0 207 9l-4 -29q-70 -25 -126.5 -74t-123.5 -137l-432 -567l-47 -230q-21 -108 -21 -186q0 -161 111 -182l-6 -29q-97 10 -244 10q-149 0 -236 -10l6 31q84 19 142 108.5t96 259.5l47 203l-196 557q-49 133 -80.5 183.5t-77.5 62.5l4 29q158 -9 227 -9
q70 0 250 9l-6 -29q-73 -20 -112.5 -73.5t-39.5 -127.5q0 -49 21 -114l141 -410l283 371q112 148 112 245q0 90 -98 111l4 27q119 -9 199 -9z" />
    <glyph glyph-name="Z" unicode="Z" horiz-adv-x="1146" 
d="M455 59q151 0 249 73t189 253h27q-25 -165 -80 -387q-208 6 -510 6q-195 0 -445 -4l-4 25l1014 1351q-176 4 -299 4q-152 0 -246 -67.5t-170 -233.5h-28q50 259 75 357q209 -9 482 -9q211 0 397 7l8 -27l-1012 -1346q96 -2 353 -2z" />
    <glyph glyph-name="bracketleft" unicode="[" 
d="M207 403q-13 0 -19 -2v-200q4 -2 19 -2q37 0 50 25t13 77q0 54 -13 78t-50 24zM518 330v-49h-82v-78h96v-49h-155v297h155v-52h-96v-69h82zM203 150q-47 0 -74 4v292q61 9 76 9q67 0 96 -37.5t29 -116.5t-29.5 -115t-97.5 -36zM586 451h80l39 -164l38 164h82
q3 -45 13 -297h-60q0 108 -6 213l-41 -168h-55l-41 168h-2q-4 -140 -4 -213h-58q3 156 15 297zM987 150q-60 0 -84 35.5t-24 115.5q0 81 24 117.5t84 36.5t85.5 -37t25.5 -117q0 -79 -25.5 -115t-85.5 -36zM987 403q-29 0 -39 -23.5t-10 -78.5q0 -54 10 -78t39 -24
q30 0 40.5 24t10.5 78q0 55 -10 78.5t-41 23.5zM967 1016q49 0 79.5 -24.5t39 -51t8.5 -53.5q0 -43 -34.5 -72.5t-72.5 -34.5q-213 -23 -340 -147q3 8 9 22t25 53.5t39 75.5t50 80.5t59.5 76t66 53.5t71.5 22zM285 909q39 0 78 -21t69.5 -55t58.5 -74.5t48 -81.5t35 -75
t22 -55l8 -21q-117 148 -319 148q-49 0 -88 30t-39 76q0 53 33.5 91t93.5 38zM643 1214q38 -37 48.5 -102t-2.5 -131t-31.5 -126.5t-35.5 -98.5l-18 -39q20 191 -125 330q-35 35 -42 81.5t24 83.5q23 23 53 34t65 3.5t64 -35.5z" />
    <glyph glyph-name="backslash" unicode="\" 
d="M207 403q-13 0 -19 -2v-200q4 -2 19 -2q37 0 50 25t13 77q0 54 -13 78t-50 24zM518 330v-49h-82v-78h96v-49h-155v297h155v-52h-96v-69h82zM203 150q-47 0 -74 4v292q61 9 76 9q67 0 96 -37.5t29 -116.5t-29.5 -115t-97.5 -36zM586 451h80l39 -164l38 164h82
q3 -45 13 -297h-60q0 108 -6 213l-41 -168h-55l-41 168h-2q-4 -140 -4 -213h-58q3 156 15 297zM987 150q-60 0 -84 35.5t-24 115.5q0 81 24 117.5t84 36.5t85.5 -37t25.5 -117q0 -79 -25.5 -115t-85.5 -36zM987 403q-29 0 -39 -23.5t-10 -78.5q0 -54 10 -78t39 -24
q30 0 40.5 24t10.5 78q0 55 -10 78.5t-41 23.5zM967 1016q49 0 79.5 -24.5t39 -51t8.5 -53.5q0 -43 -34.5 -72.5t-72.5 -34.5q-213 -23 -340 -147q3 8 9 22t25 53.5t39 75.5t50 80.5t59.5 76t66 53.5t71.5 22zM285 909q39 0 78 -21t69.5 -55t58.5 -74.5t48 -81.5t35 -75
t22 -55l8 -21q-117 148 -319 148q-49 0 -88 30t-39 76q0 53 33.5 91t93.5 38zM643 1214q38 -37 48.5 -102t-2.5 -131t-31.5 -126.5t-35.5 -98.5l-18 -39q20 191 -125 330q-35 35 -42 81.5t24 83.5q23 23 53 34t65 3.5t64 -35.5z" />
    <glyph glyph-name="bracketright" unicode="]" 
d="M207 403q-13 0 -19 -2v-200q4 -2 19 -2q37 0 50 25t13 77q0 54 -13 78t-50 24zM518 330v-49h-82v-78h96v-49h-155v297h155v-52h-96v-69h82zM203 150q-47 0 -74 4v292q61 9 76 9q67 0 96 -37.5t29 -116.5t-29.5 -115t-97.5 -36zM586 451h80l39 -164l38 164h82
q3 -45 13 -297h-60q0 108 -6 213l-41 -168h-55l-41 168h-2q-4 -140 -4 -213h-58q3 156 15 297zM987 150q-60 0 -84 35.5t-24 115.5q0 81 24 117.5t84 36.5t85.5 -37t25.5 -117q0 -79 -25.5 -115t-85.5 -36zM987 403q-29 0 -39 -23.5t-10 -78.5q0 -54 10 -78t39 -24
q30 0 40.5 24t10.5 78q0 55 -10 78.5t-41 23.5zM967 1016q49 0 79.5 -24.5t39 -51t8.5 -53.5q0 -43 -34.5 -72.5t-72.5 -34.5q-213 -23 -340 -147q3 8 9 22t25 53.5t39 75.5t50 80.5t59.5 76t66 53.5t71.5 22zM285 909q39 0 78 -21t69.5 -55t58.5 -74.5t48 -81.5t35 -75
t22 -55l8 -21q-117 148 -319 148q-49 0 -88 30t-39 76q0 53 33.5 91t93.5 38zM643 1214q38 -37 48.5 -102t-2.5 -131t-31.5 -126.5t-35.5 -98.5l-18 -39q20 191 -125 330q-35 35 -42 81.5t24 83.5q23 23 53 34t65 3.5t64 -35.5z" />
    <glyph glyph-name="asciicircum" unicode="^" 
d="M207 403q-13 0 -19 -2v-200q4 -2 19 -2q37 0 50 25t13 77q0 54 -13 78t-50 24zM518 330v-49h-82v-78h96v-49h-155v297h155v-52h-96v-69h82zM203 150q-47 0 -74 4v292q61 9 76 9q67 0 96 -37.5t29 -116.5t-29.5 -115t-97.5 -36zM586 451h80l39 -164l38 164h82
q3 -45 13 -297h-60q0 108 -6 213l-41 -168h-55l-41 168h-2q-4 -140 -4 -213h-58q3 156 15 297zM987 150q-60 0 -84 35.5t-24 115.5q0 81 24 117.5t84 36.5t85.5 -37t25.5 -117q0 -79 -25.5 -115t-85.5 -36zM987 403q-29 0 -39 -23.5t-10 -78.5q0 -54 10 -78t39 -24
q30 0 40.5 24t10.5 78q0 55 -10 78.5t-41 23.5zM967 1016q49 0 79.5 -24.5t39 -51t8.5 -53.5q0 -43 -34.5 -72.5t-72.5 -34.5q-213 -23 -340 -147q3 8 9 22t25 53.5t39 75.5t50 80.5t59.5 76t66 53.5t71.5 22zM285 909q39 0 78 -21t69.5 -55t58.5 -74.5t48 -81.5t35 -75
t22 -55l8 -21q-117 148 -319 148q-49 0 -88 30t-39 76q0 53 33.5 91t93.5 38zM643 1214q38 -37 48.5 -102t-2.5 -131t-31.5 -126.5t-35.5 -98.5l-18 -39q20 191 -125 330q-35 35 -42 81.5t24 83.5q23 23 53 34t65 3.5t64 -35.5z" />
    <glyph glyph-name="underscore" unicode="_" 
d="M207 403q-13 0 -19 -2v-200q4 -2 19 -2q37 0 50 25t13 77q0 54 -13 78t-50 24zM518 330v-49h-82v-78h96v-49h-155v297h155v-52h-96v-69h82zM203 150q-47 0 -74 4v292q61 9 76 9q67 0 96 -37.5t29 -116.5t-29.5 -115t-97.5 -36zM586 451h80l39 -164l38 164h82
q3 -45 13 -297h-60q0 108 -6 213l-41 -168h-55l-41 168h-2q-4 -140 -4 -213h-58q3 156 15 297zM987 150q-60 0 -84 35.5t-24 115.5q0 81 24 117.5t84 36.5t85.5 -37t25.5 -117q0 -79 -25.5 -115t-85.5 -36zM987 403q-29 0 -39 -23.5t-10 -78.5q0 -54 10 -78t39 -24
q30 0 40.5 24t10.5 78q0 55 -10 78.5t-41 23.5zM967 1016q49 0 79.5 -24.5t39 -51t8.5 -53.5q0 -43 -34.5 -72.5t-72.5 -34.5q-213 -23 -340 -147q3 8 9 22t25 53.5t39 75.5t50 80.5t59.5 76t66 53.5t71.5 22zM285 909q39 0 78 -21t69.5 -55t58.5 -74.5t48 -81.5t35 -75
t22 -55l8 -21q-117 148 -319 148q-49 0 -88 30t-39 76q0 53 33.5 91t93.5 38zM643 1214q38 -37 48.5 -102t-2.5 -131t-31.5 -126.5t-35.5 -98.5l-18 -39q20 191 -125 330q-35 35 -42 81.5t24 83.5q23 23 53 34t65 3.5t64 -35.5z" />
    <glyph glyph-name="grave" unicode="`" 
d="M207 403q-13 0 -19 -2v-200q4 -2 19 -2q37 0 50 25t13 77q0 54 -13 78t-50 24zM518 330v-49h-82v-78h96v-49h-155v297h155v-52h-96v-69h82zM203 150q-47 0 -74 4v292q61 9 76 9q67 0 96 -37.5t29 -116.5t-29.5 -115t-97.5 -36zM586 451h80l39 -164l38 164h82
q3 -45 13 -297h-60q0 108 -6 213l-41 -168h-55l-41 168h-2q-4 -140 -4 -213h-58q3 156 15 297zM987 150q-60 0 -84 35.5t-24 115.5q0 81 24 117.5t84 36.5t85.5 -37t25.5 -117q0 -79 -25.5 -115t-85.5 -36zM987 403q-29 0 -39 -23.5t-10 -78.5q0 -54 10 -78t39 -24
q30 0 40.5 24t10.5 78q0 55 -10 78.5t-41 23.5zM967 1016q49 0 79.5 -24.5t39 -51t8.5 -53.5q0 -43 -34.5 -72.5t-72.5 -34.5q-213 -23 -340 -147q3 8 9 22t25 53.5t39 75.5t50 80.5t59.5 76t66 53.5t71.5 22zM285 909q39 0 78 -21t69.5 -55t58.5 -74.5t48 -81.5t35 -75
t22 -55l8 -21q-117 148 -319 148q-49 0 -88 30t-39 76q0 53 33.5 91t93.5 38zM643 1214q38 -37 48.5 -102t-2.5 -131t-31.5 -126.5t-35.5 -98.5l-18 -39q20 191 -125 330q-35 35 -42 81.5t24 83.5q23 23 53 34t65 3.5t64 -35.5z" />
    <glyph glyph-name="a" unicode="a" horiz-adv-x="1075" 
d="M801 717l-80 -379q-23 -124 -23 -152q0 -92 74 -92q11 0 35 4l6 -26q-88 -31 -252 -101q-16 52 -16 123q0 84 24 176q-65 -135 -154 -214t-186 -79q-124 0 -201 102.5t-77 268.5q0 120 39.5 239.5t107 215t169 155.5t216.5 60q142 0 236 -103q66 44 207 101l14 -25
q-54 -41 -83.5 -98.5t-55.5 -175.5zM248 31q77 0 154.5 74.5t134.5 193.5t86 256l49 246q-22 88 -69.5 133t-102.5 45q-64 0 -121 -39t-98 -103.5t-73.5 -143.5t-52.5 -162.5t-30 -156.5t-10 -130q0 -102 33.5 -157.5t99.5 -55.5z" />
    <glyph glyph-name="b" unicode="b" horiz-adv-x="1036" 
d="M563 1018q138 0 220.5 -93t82.5 -261q0 -118 -40 -239.5t-108.5 -221t-170 -163t-213.5 -63.5q-168 0 -242 138q-91 -88 -201 -142l-14 21q53 57 81.5 120.5t53.5 174.5l185 862q16 68 16 133q0 127 -98 133l8 29q123 8 293 59l-90 -436q-15 -81 -47 -190
q125 139 284 139zM319 16q72 0 135.5 51.5t106 131.5t73.5 175.5t45.5 183.5t14.5 157q0 118 -45 184t-125 66q-63 0 -130.5 -41t-125.5 -121l-96 -465q-10 -55 -10 -105q0 -106 40 -161.5t117 -55.5z" />
    <glyph glyph-name="c" unicode="c" horiz-adv-x="925" 
d="M283 -23q-157 0 -245.5 101t-88.5 270q0 90 24 184t71 180.5t111 155t151 109.5t183 41q219 0 302 -166q-41 -115 -105 -221h-27q-13 346 -170 346q-69 0 -130.5 -52.5t-104 -134t-73.5 -179t-45.5 -188t-14.5 -161.5q0 -225 162 -225q41 0 83.5 12t91 38.5t95 79.5
t82.5 126l39 -17q-58 -138 -164.5 -218.5t-226.5 -80.5z" />
    <glyph glyph-name="d" unicode="d" horiz-adv-x="1067" 
d="M770 94q11 0 39 4l6 -26q-111 -35 -254 -101q-22 61 -22 127q0 67 14 133q-62 -120 -148 -187t-180 -67q-124 0 -200 99.5t-76 265.5q0 168 70 323.5t193.5 254t266.5 98.5q138 0 213 -113l49 217q23 126 23 158q0 134 -98 137l8 29q120 9 295 59l-254 -1192
q-17 -83 -17 -129q0 -90 72 -90zM246 27q106 0 208 131t146 329l80 355q-62 127 -184 127q-77 0 -143 -54t-109 -136.5t-73.5 -182t-44 -187t-13.5 -155.5q0 -107 34 -167t99 -60z" />
    <glyph glyph-name="e" unicode="e" horiz-adv-x="960" 
d="M791 813q0 -163 -174 -256.5t-482 -112.5q-12 -74 -12 -137q0 -130 49 -199t139 -69q99 0 194.5 66t156.5 194l38 -14q-60 -142 -171.5 -225t-241.5 -83q-146 0 -242 100t-96 275q0 89 24 181.5t73.5 179.5t117 155t162.5 109t202 41q127 0 195 -56t68 -149zM500 977
q-67 0 -128 -44t-105 -116.5t-75 -156.5t-49 -173q467 44 467 357q0 69 -26.5 101t-83.5 32z" />
    <glyph glyph-name="f" unicode="f" horiz-adv-x="661" 
d="M602 1505q75 0 130 -32.5t83 -90.5q-53 -134 -98 -211h-23q-6 125 -42 205t-97 80t-115 -84.5t-82 -245.5l-24 -141h221l-8 -43h-221l-154 -854q-53 -300 -205 -455t-383 -163q-30 148 -39 315l31 8q85 -217 195 -217q83 0 142.5 123t94.5 330l156 913h-139l10 43h135
l10 55q34 204 150 334.5t272 130.5z" />
    <glyph glyph-name="g" unicode="g" horiz-adv-x="1046" 
d="M932 1167q54 -82 92 -180l-20 -14q-28 31 -70 31q-50 0 -101 -33.5t-83 -89.5q36 -61 36 -144q0 -85 -33.5 -165t-91 -141t-141 -97.5t-176.5 -36.5q-109 0 -188 45q-55 -17 -90 -49t-35 -80q0 -38 29.5 -63.5t82.5 -36.5l232 -47q170 -34 251 -103.5t81 -183.5
q0 -80 -45.5 -143t-121.5 -101t-167.5 -58t-190.5 -20q-202 0 -318 70.5t-116 177.5q0 98 95 182t227 113q-140 51 -140 162q0 71 54 122.5t139 80.5q-100 77 -100 213q0 85 34 165t91.5 141t140.5 97.5t176 36.5q80 0 149 -27.5t111 -77.5q32 74 87.5 141.5t119.5 112.5z
M324 334q59 0 109.5 33.5t83.5 85t56.5 116t34 124.5t10.5 112q0 85 -34 131.5t-99 46.5q-73 0 -132.5 -50t-93.5 -125t-51.5 -152.5t-17.5 -143.5q0 -85 34.5 -131.5t99.5 -46.5zM539 -248q0 72 -46 116t-143 66l-213 48h-2q-102 -29 -161.5 -111.5t-59.5 -173.5t67 -145
t199 -54q99 0 179.5 28.5t130 87.5t49.5 138z" />
    <glyph glyph-name="h" unicode="h" horiz-adv-x="1107" 
d="M850 662l-74 -349q-22 -113 -22 -170q0 -51 15 -77t48 -37l-8 -29q-85 10 -180 10q-91 0 -176 -10l8 29q54 18 91 88t64 198l84 392q15 70 15 124q0 121 -92 121q-52 0 -112.5 -38t-118.5 -105.5t-108.5 -171t-78.5 -223.5l-25 -99q-24 -114 -24 -180q0 -50 15.5 -74
t47.5 -32l-8 -29q-78 10 -172 10t-189 -10l7 29q66 22 105.5 93.5t64.5 192.5l180 846q14 68 14 117q0 136 -98 139l8 29q145 13 297 59l-127 -614q-20 -103 -61 -234q89 176 204 268.5t218 92.5q94 0 148 -53t54 -166q0 -55 -14 -137z" />
    <glyph glyph-name="i" unicode="i" horiz-adv-x="528" 
d="M264 1217q-41 0 -65.5 24.5t-24.5 61.5q0 53 42 92t95 39q39 0 64.5 -24t25.5 -60q0 -53 -42.5 -93t-94.5 -40zM-143 0l8 31q116 37 170 284l78 365q14 65 14 121q0 129 -98 135l8 29q135 12 295 59l-150 -709q-24 -108 -24 -172q0 -98 61 -114l-6 -29q-78 10 -170 10
q-88 0 -186 -10z" />
    <glyph glyph-name="j" unicode="j" horiz-adv-x="526" 
d="M256 1217q-41 0 -65.5 24.5t-24.5 61.5q0 53 42 92t95 39q39 0 64.5 -24t25.5 -60q0 -53 -42.5 -93t-94.5 -40zM-449 -530q-25 119 -38 305l28 8q89 -205 187 -205q80 0 137.5 98t103.5 312l150 692q14 75 14 119q0 131 -100 137l8 29q128 9 295 59l-201 -958
q-65 -297 -218 -442.5t-366 -153.5z" />
    <glyph glyph-name="k" unicode="k" horiz-adv-x="1077" 
d="M494 489l100 -229q19 -46 33 -71.5t38 -50.5t58.5 -35.5t83.5 -10.5l8 -26q-135 -45 -252 -101q-38 65 -133 279l-96 223q-16 -2 -49 -2q-22 0 -80 4l-33 -158q-25 -118 -25 -166q0 -52 16.5 -80.5t53.5 -35.5l-8 -29q-78 10 -170 10q-96 0 -191 -10l7 31q66 25 106 90.5
t68 193.5l176 846q14 68 14 119q0 132 -96 135l6 31q85 5 291 59l-144 -694q71 96 172.5 149.5t213.5 53.5q105 0 164 -46t59 -130q0 -117 -109 -213t-282 -136zM262 506q105 0 191.5 28.5t140.5 75t83.5 103t29.5 116.5q0 62 -30.5 94.5t-88.5 32.5q-86 0 -175.5 -63
t-156.5 -172l-43 -213q14 -2 49 -2z" />
    <glyph glyph-name="l" unicode="l" horiz-adv-x="522" 
d="M-156 0l6 31q124 39 175 284l180 846q14 68 14 119q0 134 -96 137l8 29q126 11 293 59l-250 -1190q-24 -108 -24 -172q0 -54 16 -80t51 -34l-6 -29q-85 10 -176 10q-93 0 -191 -10z" />
    <glyph glyph-name="m" unicode="m" horiz-adv-x="1617" 
d="M-145 0l8 29q63 23 102.5 89.5t67.5 196.5l78 365q14 68 14 121q0 130 -98 135l8 29q147 12 295 59l-27 -143q-26 -128 -59 -226q76 173 188.5 268t216.5 95q83 0 134 -52.5t51 -164.5q0 -5 -5 -62q68 134 164.5 206.5t188.5 72.5q85 0 138.5 -53.5t53.5 -167.5
q0 -50 -16 -135l-74 -349q-22 -113 -22 -170q0 -51 15.5 -77t47.5 -37l-8 -29q-85 10 -178 10t-178 -10l6 29q56 18 93 87.5t64 198.5l84 392q17 87 17 127q0 118 -82 118q-100 0 -206 -126.5t-155 -325.5l-37 -187q-22 -102 -22 -170q0 -51 15 -77t48 -37l-8 -29
q-85 10 -180 10q-91 0 -176 -10l6 29q60 17 96 92t62 194l80 392q18 83 18 129q0 116 -80 116q-107 0 -226.5 -146t-166.5 -370l-25 -121q-26 -130 -26 -180q0 -51 15.5 -74.5t49.5 -31.5l-8 -29q-82 10 -172 10q-92 0 -190 -10z" />
    <glyph glyph-name="n" unicode="n" horiz-adv-x="1114" 
d="M-145 0l8 29q62 23 102 91t68 195l78 365q14 65 14 119q0 137 -98 137l8 29q154 16 295 59l-29 -143q-20 -120 -61 -232q84 175 202 272t224 97q204 0 204 -219q0 -69 -16 -137l-72 -349q-20 -87 -20 -159q0 -104 59 -125l-6 -29q-85 10 -180 10q-91 0 -176 -10l8 29
q56 20 90.5 83.5t65.5 202.5l84 392q16 75 16 124q0 121 -98 121q-116 0 -243 -160.5t-183 -412.5l-15 -64q-22 -113 -22 -172q0 -99 61 -114l-8 -29q-78 10 -172 10q-93 0 -188 -10z" />
    <glyph glyph-name="o" unicode="o" horiz-adv-x="1001" 
d="M291 -23q-159 0 -250.5 102t-91.5 275q0 88 23 180.5t69.5 179t109.5 154.5t150 109t184 41q157 0 248.5 -102t91.5 -275q0 -89 -22.5 -181.5t-68.5 -179t-108.5 -154t-149.5 -108.5t-185 -41zM276 14q76 0 141 54.5t107 138t72.5 184.5t43.5 191.5t13 162.5
q0 238 -157 238q-63 0 -118.5 -38t-95.5 -101t-71.5 -140.5t-50.5 -160.5t-29 -157t-10 -134q0 -238 155 -238z" />
    <glyph glyph-name="p" unicode="p" horiz-adv-x="1024" 
d="M565 1018q128 0 206.5 -91.5t78.5 -256.5q0 -92 -24.5 -189t-72.5 -187t-111.5 -161t-149.5 -113.5t-179 -42.5q-138 0 -213 97l-55 -264q-22 -117 -22 -168q0 -58 21 -87t67 -40l-7 -29q-113 10 -194 10q-103 0 -195 -10l6 29q123 51 166 252l195 921q12 64 12 115
q0 65 -27 99t-73 34l8 29q128 9 295 59l-12 -68q-3 -13 -29 -110q59 80 140.5 126t168.5 46zM301 16q60 0 115 37t95.5 98.5t73.5 137.5t53 156.5t31 153.5t11 130q0 112 -42.5 174t-117.5 62q-73 0 -147.5 -54t-130.5 -151l-84 -414q-15 -68 -15 -127q0 -96 41 -149.5
t117 -53.5z" />
    <glyph glyph-name="q" unicode="q" horiz-adv-x="1064" 
d="M715 -371q36 0 88 9l6 -31q-144 -51 -336 -150q-18 70 -18 140q0 102 41 286l88 412q-61 -149 -154 -233.5t-201 -84.5q-124 0 -200 104t-76 271q0 123 42.5 244.5t113.5 214t169 150t203 57.5q69 0 131 -30.5t107 -80.5q80 57 196 109l17 -23q-48 -48 -75.5 -115.5
t-49.5 -172.5l-172 -842q-19 -103 -19 -146q0 -88 99 -88zM252 29q111 0 215.5 144.5t148.5 346.5l60 277q-36 172 -176 172q-75 0 -140.5 -54t-108.5 -136t-74.5 -181.5t-45.5 -189t-14 -158.5q0 -221 135 -221z" />
    <glyph glyph-name="r" unicode="r" horiz-adv-x="835" 
d="M-150 0l7 29q124 49 176 286l78 365q14 65 14 121q0 129 -98 135l8 29q122 8 293 59l-23 -121q-17 -99 -51 -190q65 133 164.5 219t183.5 86q47 0 89 -25t61 -63q-25 -94 -93 -250h-28q0 112 -28 172.5t-83 60.5q-72 0 -160.5 -101.5t-121.5 -233.5l-56 -267
q-20 -95 -20 -143q0 -58 27 -91t92 -48l-9 -29q-92 10 -219 10q-124 0 -203 -10z" />
    <glyph glyph-name="s" unicode="s" horiz-adv-x="786" 
d="M129 -20q-193 0 -268 83q20 144 49 246h24q22 -151 70 -223t131 -72q98 0 160.5 74t62.5 158q0 39 -19 73.5t-48.5 60.5t-66 51t-73 52.5t-66 58t-48.5 73.5t-19 94q0 138 99.5 223.5t240.5 85.5q66 0 134 -21t116 -63q-13 -92 -51 -242h-27q-27 148 -70 218.5t-114 70.5
q-85 0 -134.5 -62.5t-49.5 -138.5q0 -43 19.5 -80.5t51.5 -65.5t70 -55t76 -54.5t70 -58t51.5 -73t19.5 -92.5q0 -140 -107.5 -230.5t-283.5 -90.5z" />
    <glyph glyph-name="t" unicode="t" horiz-adv-x="651" 
d="M541 942h-222l-149 -696q-23 -117 -23 -146q0 -61 48 -61q44 0 101.5 40t106.5 101l33 -16q-65 -93 -145 -142t-154 -49q-145 0 -145 152q0 49 12 104l148 703h-148l4 29q103 17 200 110t167 244h31l-72 -328h215z" />
    <glyph glyph-name="u" unicode="u" horiz-adv-x="1069" 
d="M561 -29q-20 56 -20 142q0 57 20 139q-65 -130 -160 -202.5t-196 -72.5q-219 0 -219 224q0 58 20 153l72 322q16 75 16 127q0 122 -94 133l8 29q140 14 289 59l-145 -713q-17 -81 -17 -139q0 -71 26 -105t81 -34q102 0 208.5 125.5t141.5 290.5l45 215q18 88 18 145
q0 60 -21 90.5t-65 36.5l6 31q116 8 283 57l-139 -705q-17 -83 -17 -116q0 -57 27.5 -82t87.5 -21l6 -26q-123 -37 -262 -103z" />
    <glyph glyph-name="v" unicode="v" horiz-adv-x="919" 
d="M698 987q82 0 146 6l-6 -30q-72 -30 -127 -197q-60 -180 -140 -340q-134 -262 -329 -451h-27l-178 777q-11 47 -20 75t-24.5 59t-38 50t-54.5 29l6 28q99 -6 190 -6q90 0 178 6l-6 -28q-82 -40 -82 -134q0 -21 15 -102l127 -586q121 147 221 348t100 326q0 60 -28 95
t-84 53l6 28q76 -6 155 -6z" />
    <glyph glyph-name="w" unicode="w" horiz-adv-x="1406" 
d="M1182 987q80 0 147 6l-4 -30q-62 -26 -123 -197q-95 -265 -185.5 -438.5t-242.5 -352.5h-24q-61 153 -101 330.5t-49 333.5q-70 -171 -180.5 -344.5t-245.5 -319.5h-31l-94 744q-15 113 -46.5 173t-98.5 73l6 28q110 -8 186 -8q71 0 193 8l-4 -28q-82 -39 -82 -158
q0 -32 4 -82l61 -561q133 174 242.5 390.5t177.5 438.5h31q2 -211 36.5 -439t96.5 -396q114 153 202.5 359.5t88.5 299.5q0 111 -117 148l6 28q74 -6 150 -6z" />
    <glyph glyph-name="x" unicode="x" horiz-adv-x="999" 
d="M885 993l-6 -32q-105 -14 -201 -148q-115 -157 -242 -295l119 -262q39 -89 78.5 -126.5t99.5 -37.5q21 0 33 2l8 -28q-97 -32 -242 -99q-54 72 -135 252l-82 182q-51 -60 -206 -221q-52 -49 -52 -94q0 -40 43 -57l-2 -29q-73 8 -166 8q-92 0 -155 -8l6 31q84 24 205 114
q149 114 309 301l-133 302q-35 79 -68.5 114t-81.5 35q-18 0 -39 -6l-10 29q113 41 221 102q60 -88 101 -180l127 -279q115 128 182 234q35 50 35 90q0 29 -17.5 50.5t-46.5 27.5l4 28q98 -8 148 -8q90 0 166 8z" />
    <glyph glyph-name="y" unicode="y" horiz-adv-x="937" 
d="M715 985q53 0 143 8l-6 -30q-40 -17 -67 -54t-60 -118q-60 -147 -109 -257.5t-108.5 -228.5t-116.5 -207.5t-128 -181t-148 -164t-170.5 -141t-202.5 -127.5q-89 136 -150 289l27 16q88 -121 184 -121q184 0 396 254q37 47 51 68l-213 755q-10 34 -13.5 45.5t-13.5 40
t-16 40t-18.5 32t-24.5 29.5t-29 19t-37 14l6 28q88 -8 193 -8q86 0 156 6l-4 -30q-60 -34 -60 -113q0 -44 19 -109l163 -589q87 141 159 289.5t104 250.5q28 92 28 148q0 58 -23 88t-75 39l6 28q110 -8 158 -8z" />
    <glyph glyph-name="z" unicode="z" horiz-adv-x="841" 
d="M-12 127h338q92 0 151 41t123 151l27 -2q-29 -154 -66 -319q-215 10 -393 10q-108 0 -342 -8l-4 27l743 837h-317q-89 0 -139 -27.5t-93 -107.5h-26q8 36 20 91.5t23.5 110t13.5 62.5q226 -8 336 -8q227 0 342 8l6 -28z" />
    <glyph glyph-name="braceleft" unicode="{" 
d="M207 403q-13 0 -19 -2v-200q4 -2 19 -2q37 0 50 25t13 77q0 54 -13 78t-50 24zM518 330v-49h-82v-78h96v-49h-155v297h155v-52h-96v-69h82zM203 150q-47 0 -74 4v292q61 9 76 9q67 0 96 -37.5t29 -116.5t-29.5 -115t-97.5 -36zM586 451h80l39 -164l38 164h82
q3 -45 13 -297h-60q0 108 -6 213l-41 -168h-55l-41 168h-2q-4 -140 -4 -213h-58q3 156 15 297zM987 150q-60 0 -84 35.5t-24 115.5q0 81 24 117.5t84 36.5t85.5 -37t25.5 -117q0 -79 -25.5 -115t-85.5 -36zM987 403q-29 0 -39 -23.5t-10 -78.5q0 -54 10 -78t39 -24
q30 0 40.5 24t10.5 78q0 55 -10 78.5t-41 23.5zM967 1016q49 0 79.5 -24.5t39 -51t8.5 -53.5q0 -43 -34.5 -72.5t-72.5 -34.5q-213 -23 -340 -147q3 8 9 22t25 53.5t39 75.5t50 80.5t59.5 76t66 53.5t71.5 22zM285 909q39 0 78 -21t69.5 -55t58.5 -74.5t48 -81.5t35 -75
t22 -55l8 -21q-117 148 -319 148q-49 0 -88 30t-39 76q0 53 33.5 91t93.5 38zM643 1214q38 -37 48.5 -102t-2.5 -131t-31.5 -126.5t-35.5 -98.5l-18 -39q20 191 -125 330q-35 35 -42 81.5t24 83.5q23 23 53 34t65 3.5t64 -35.5z" />
    <glyph glyph-name="bar" unicode="|" 
d="M207 403q-13 0 -19 -2v-200q4 -2 19 -2q37 0 50 25t13 77q0 54 -13 78t-50 24zM518 330v-49h-82v-78h96v-49h-155v297h155v-52h-96v-69h82zM203 150q-47 0 -74 4v292q61 9 76 9q67 0 96 -37.5t29 -116.5t-29.5 -115t-97.5 -36zM586 451h80l39 -164l38 164h82
q3 -45 13 -297h-60q0 108 -6 213l-41 -168h-55l-41 168h-2q-4 -140 -4 -213h-58q3 156 15 297zM987 150q-60 0 -84 35.5t-24 115.5q0 81 24 117.5t84 36.5t85.5 -37t25.5 -117q0 -79 -25.5 -115t-85.5 -36zM987 403q-29 0 -39 -23.5t-10 -78.5q0 -54 10 -78t39 -24
q30 0 40.5 24t10.5 78q0 55 -10 78.5t-41 23.5zM967 1016q49 0 79.5 -24.5t39 -51t8.5 -53.5q0 -43 -34.5 -72.5t-72.5 -34.5q-213 -23 -340 -147q3 8 9 22t25 53.5t39 75.5t50 80.5t59.5 76t66 53.5t71.5 22zM285 909q39 0 78 -21t69.5 -55t58.5 -74.5t48 -81.5t35 -75
t22 -55l8 -21q-117 148 -319 148q-49 0 -88 30t-39 76q0 53 33.5 91t93.5 38zM643 1214q38 -37 48.5 -102t-2.5 -131t-31.5 -126.5t-35.5 -98.5l-18 -39q20 191 -125 330q-35 35 -42 81.5t24 83.5q23 23 53 34t65 3.5t64 -35.5z" />
    <glyph glyph-name="braceright" unicode="}" 
d="M207 403q-13 0 -19 -2v-200q4 -2 19 -2q37 0 50 25t13 77q0 54 -13 78t-50 24zM518 330v-49h-82v-78h96v-49h-155v297h155v-52h-96v-69h82zM203 150q-47 0 -74 4v292q61 9 76 9q67 0 96 -37.5t29 -116.5t-29.5 -115t-97.5 -36zM586 451h80l39 -164l38 164h82
q3 -45 13 -297h-60q0 108 -6 213l-41 -168h-55l-41 168h-2q-4 -140 -4 -213h-58q3 156 15 297zM987 150q-60 0 -84 35.5t-24 115.5q0 81 24 117.5t84 36.5t85.5 -37t25.5 -117q0 -79 -25.5 -115t-85.5 -36zM987 403q-29 0 -39 -23.5t-10 -78.5q0 -54 10 -78t39 -24
q30 0 40.5 24t10.5 78q0 55 -10 78.5t-41 23.5zM967 1016q49 0 79.5 -24.5t39 -51t8.5 -53.5q0 -43 -34.5 -72.5t-72.5 -34.5q-213 -23 -340 -147q3 8 9 22t25 53.5t39 75.5t50 80.5t59.5 76t66 53.5t71.5 22zM285 909q39 0 78 -21t69.5 -55t58.5 -74.5t48 -81.5t35 -75
t22 -55l8 -21q-117 148 -319 148q-49 0 -88 30t-39 76q0 53 33.5 91t93.5 38zM643 1214q38 -37 48.5 -102t-2.5 -131t-31.5 -126.5t-35.5 -98.5l-18 -39q20 191 -125 330q-35 35 -42 81.5t24 83.5q23 23 53 34t65 3.5t64 -35.5z" />
    <glyph glyph-name="asciitilde" unicode="~" 
d="M207 403q-13 0 -19 -2v-200q4 -2 19 -2q37 0 50 25t13 77q0 54 -13 78t-50 24zM518 330v-49h-82v-78h96v-49h-155v297h155v-52h-96v-69h82zM203 150q-47 0 -74 4v292q61 9 76 9q67 0 96 -37.5t29 -116.5t-29.5 -115t-97.5 -36zM586 451h80l39 -164l38 164h82
q3 -45 13 -297h-60q0 108 -6 213l-41 -168h-55l-41 168h-2q-4 -140 -4 -213h-58q3 156 15 297zM987 150q-60 0 -84 35.5t-24 115.5q0 81 24 117.5t84 36.5t85.5 -37t25.5 -117q0 -79 -25.5 -115t-85.5 -36zM987 403q-29 0 -39 -23.5t-10 -78.5q0 -54 10 -78t39 -24
q30 0 40.5 24t10.5 78q0 55 -10 78.5t-41 23.5zM967 1016q49 0 79.5 -24.5t39 -51t8.5 -53.5q0 -43 -34.5 -72.5t-72.5 -34.5q-213 -23 -340 -147q3 8 9 22t25 53.5t39 75.5t50 80.5t59.5 76t66 53.5t71.5 22zM285 909q39 0 78 -21t69.5 -55t58.5 -74.5t48 -81.5t35 -75
t22 -55l8 -21q-117 148 -319 148q-49 0 -88 30t-39 76q0 53 33.5 91t93.5 38zM643 1214q38 -37 48.5 -102t-2.5 -131t-31.5 -126.5t-35.5 -98.5l-18 -39q20 191 -125 330q-35 35 -42 81.5t24 83.5q23 23 53 34t65 3.5t64 -35.5z" />
    </font>
</defs>
</svg>
