<?xml version="1.0" standalone="no"?>
<!DOCTYPE svg PUBLIC "-//W3C//DTD SVG 1.1//EN" "http://www.w3.org/Graphics/SVG/1.1/DTD/svg11.dtd" >
<svg xmlns="http://www.w3.org/2000/svg" xmlns:xlink="http://www.w3.org/1999/xlink" version="1.1">
<metadata>
Created by FontForge 20170731 at Thu May 18 14:24:36 2023
 By Aleksey,,,
Hook J
</metadata>
<defs>
<font id="FONTSPRINGDEMO-SpanSemiboldRegular" horiz-adv-x="1224" >
  <font-face 
    font-family="FSP DEMO - Span Semibold"
    font-weight="600"
    font-stretch="normal"
    units-per-em="2048"
    panose-1="0 0 7 0 0 0 0 0 0 0"
    ascent="1505"
    descent="-543"
    x-height="993"
    cap-height="1434"
    bbox="-221 -543 2269 1505"
    underline-thickness="102"
    underline-position="-307"
    unicode-range="U+0020-007E"
  />
<missing-glyph 
d="M207 403q-13 0 -19 -2v-200q4 -2 19 -2q37 0 50 25t13 77q0 54 -13 78t-50 24zM518 330v-49h-82v-78h96v-49h-155v297h155v-52h-96v-69h82zM203 150q-47 0 -74 4v292q61 9 76 9q67 0 96 -37.5t29 -116.5t-29.5 -115t-97.5 -36zM586 451h80l39 -164l38 164h82
q3 -45 13 -297h-60q0 108 -6 213l-41 -168h-55l-41 168h-2q-4 -140 -4 -213h-58q3 156 15 297zM987 150q-60 0 -84 35.5t-24 115.5q0 81 24 117.5t84 36.5t85.5 -37t25.5 -117q0 -79 -25.5 -115t-85.5 -36zM987 403q-29 0 -39 -23.5t-10 -78.5q0 -54 10 -78t39 -24
q30 0 40.5 24t10.5 78q0 55 -10 78.5t-41 23.5zM967 1016q49 0 79.5 -24.5t39 -51t8.5 -53.5q0 -43 -34.5 -72.5t-72.5 -34.5q-213 -23 -340 -147q3 8 9 22t25 53.5t39 75.5t50 80.5t59.5 76t66 53.5t71.5 22zM285 909q39 0 78 -21t69.5 -55t58.5 -74.5t48 -81.5t35 -75
t22 -55l8 -21q-117 148 -319 148q-49 0 -88 30t-39 76q0 53 33.5 91t93.5 38zM643 1214q38 -37 48.5 -102t-2.5 -131t-31.5 -126.5t-35.5 -98.5l-18 -39q20 191 -125 330q-35 35 -42 81.5t24 83.5q23 23 53 34t65 3.5t64 -35.5z" />
    <glyph glyph-name=".notdef" 
d="M207 403q-13 0 -19 -2v-200q4 -2 19 -2q37 0 50 25t13 77q0 54 -13 78t-50 24zM518 330v-49h-82v-78h96v-49h-155v297h155v-52h-96v-69h82zM203 150q-47 0 -74 4v292q61 9 76 9q67 0 96 -37.5t29 -116.5t-29.5 -115t-97.5 -36zM586 451h80l39 -164l38 164h82
q3 -45 13 -297h-60q0 108 -6 213l-41 -168h-55l-41 168h-2q-4 -140 -4 -213h-58q3 156 15 297zM987 150q-60 0 -84 35.5t-24 115.5q0 81 24 117.5t84 36.5t85.5 -37t25.5 -117q0 -79 -25.5 -115t-85.5 -36zM987 403q-29 0 -39 -23.5t-10 -78.5q0 -54 10 -78t39 -24
q30 0 40.5 24t10.5 78q0 55 -10 78.5t-41 23.5zM967 1016q49 0 79.5 -24.5t39 -51t8.5 -53.5q0 -43 -34.5 -72.5t-72.5 -34.5q-213 -23 -340 -147q3 8 9 22t25 53.5t39 75.5t50 80.5t59.5 76t66 53.5t71.5 22zM285 909q39 0 78 -21t69.5 -55t58.5 -74.5t48 -81.5t35 -75
t22 -55l8 -21q-117 148 -319 148q-49 0 -88 30t-39 76q0 53 33.5 91t93.5 38zM643 1214q38 -37 48.5 -102t-2.5 -131t-31.5 -126.5t-35.5 -98.5l-18 -39q20 191 -125 330q-35 35 -42 81.5t24 83.5q23 23 53 34t65 3.5t64 -35.5z" />
    <glyph glyph-name=".null" horiz-adv-x="0" 
 />
    <glyph glyph-name="nonmarkingreturn" horiz-adv-x="682" 
 />
    <glyph glyph-name="space" unicode=" " horiz-adv-x="376" 
 />
    <glyph glyph-name="exclam" unicode="!" 
d="M207 403q-13 0 -19 -2v-200q4 -2 19 -2q37 0 50 25t13 77q0 54 -13 78t-50 24zM518 330v-49h-82v-78h96v-49h-155v297h155v-52h-96v-69h82zM203 150q-47 0 -74 4v292q61 9 76 9q67 0 96 -37.5t29 -116.5t-29.5 -115t-97.5 -36zM586 451h80l39 -164l38 164h82
q3 -45 13 -297h-60q0 108 -6 213l-41 -168h-55l-41 168h-2q-4 -140 -4 -213h-58q3 156 15 297zM987 150q-60 0 -84 35.5t-24 115.5q0 81 24 117.5t84 36.5t85.5 -37t25.5 -117q0 -79 -25.5 -115t-85.5 -36zM987 403q-29 0 -39 -23.5t-10 -78.5q0 -54 10 -78t39 -24
q30 0 40.5 24t10.5 78q0 55 -10 78.5t-41 23.5zM967 1016q49 0 79.5 -24.5t39 -51t8.5 -53.5q0 -43 -34.5 -72.5t-72.5 -34.5q-213 -23 -340 -147q3 8 9 22t25 53.5t39 75.5t50 80.5t59.5 76t66 53.5t71.5 22zM285 909q39 0 78 -21t69.5 -55t58.5 -74.5t48 -81.5t35 -75
t22 -55l8 -21q-117 148 -319 148q-49 0 -88 30t-39 76q0 53 33.5 91t93.5 38zM643 1214q38 -37 48.5 -102t-2.5 -131t-31.5 -126.5t-35.5 -98.5l-18 -39q20 191 -125 330q-35 35 -42 81.5t24 83.5q23 23 53 34t65 3.5t64 -35.5z" />
    <glyph glyph-name="quotedbl" unicode="&#x22;" 
d="M207 403q-13 0 -19 -2v-200q4 -2 19 -2q37 0 50 25t13 77q0 54 -13 78t-50 24zM518 330v-49h-82v-78h96v-49h-155v297h155v-52h-96v-69h82zM203 150q-47 0 -74 4v292q61 9 76 9q67 0 96 -37.5t29 -116.5t-29.5 -115t-97.5 -36zM586 451h80l39 -164l38 164h82
q3 -45 13 -297h-60q0 108 -6 213l-41 -168h-55l-41 168h-2q-4 -140 -4 -213h-58q3 156 15 297zM987 150q-60 0 -84 35.5t-24 115.5q0 81 24 117.5t84 36.5t85.5 -37t25.5 -117q0 -79 -25.5 -115t-85.5 -36zM987 403q-29 0 -39 -23.5t-10 -78.5q0 -54 10 -78t39 -24
q30 0 40.5 24t10.5 78q0 55 -10 78.5t-41 23.5zM967 1016q49 0 79.5 -24.5t39 -51t8.5 -53.5q0 -43 -34.5 -72.5t-72.5 -34.5q-213 -23 -340 -147q3 8 9 22t25 53.5t39 75.5t50 80.5t59.5 76t66 53.5t71.5 22zM285 909q39 0 78 -21t69.5 -55t58.5 -74.5t48 -81.5t35 -75
t22 -55l8 -21q-117 148 -319 148q-49 0 -88 30t-39 76q0 53 33.5 91t93.5 38zM643 1214q38 -37 48.5 -102t-2.5 -131t-31.5 -126.5t-35.5 -98.5l-18 -39q20 191 -125 330q-35 35 -42 81.5t24 83.5q23 23 53 34t65 3.5t64 -35.5z" />
    <glyph glyph-name="numbersign" unicode="#" 
d="M207 403q-13 0 -19 -2v-200q4 -2 19 -2q37 0 50 25t13 77q0 54 -13 78t-50 24zM518 330v-49h-82v-78h96v-49h-155v297h155v-52h-96v-69h82zM203 150q-47 0 -74 4v292q61 9 76 9q67 0 96 -37.5t29 -116.5t-29.5 -115t-97.5 -36zM586 451h80l39 -164l38 164h82
q3 -45 13 -297h-60q0 108 -6 213l-41 -168h-55l-41 168h-2q-4 -140 -4 -213h-58q3 156 15 297zM987 150q-60 0 -84 35.5t-24 115.5q0 81 24 117.5t84 36.5t85.5 -37t25.5 -117q0 -79 -25.5 -115t-85.5 -36zM987 403q-29 0 -39 -23.5t-10 -78.5q0 -54 10 -78t39 -24
q30 0 40.5 24t10.5 78q0 55 -10 78.5t-41 23.5zM967 1016q49 0 79.5 -24.5t39 -51t8.5 -53.5q0 -43 -34.5 -72.5t-72.5 -34.5q-213 -23 -340 -147q3 8 9 22t25 53.5t39 75.5t50 80.5t59.5 76t66 53.5t71.5 22zM285 909q39 0 78 -21t69.5 -55t58.5 -74.5t48 -81.5t35 -75
t22 -55l8 -21q-117 148 -319 148q-49 0 -88 30t-39 76q0 53 33.5 91t93.5 38zM643 1214q38 -37 48.5 -102t-2.5 -131t-31.5 -126.5t-35.5 -98.5l-18 -39q20 191 -125 330q-35 35 -42 81.5t24 83.5q23 23 53 34t65 3.5t64 -35.5z" />
    <glyph glyph-name="dollar" unicode="$" 
d="M207 403q-13 0 -19 -2v-200q4 -2 19 -2q37 0 50 25t13 77q0 54 -13 78t-50 24zM518 330v-49h-82v-78h96v-49h-155v297h155v-52h-96v-69h82zM203 150q-47 0 -74 4v292q61 9 76 9q67 0 96 -37.5t29 -116.5t-29.5 -115t-97.5 -36zM586 451h80l39 -164l38 164h82
q3 -45 13 -297h-60q0 108 -6 213l-41 -168h-55l-41 168h-2q-4 -140 -4 -213h-58q3 156 15 297zM987 150q-60 0 -84 35.5t-24 115.5q0 81 24 117.5t84 36.5t85.5 -37t25.5 -117q0 -79 -25.5 -115t-85.5 -36zM987 403q-29 0 -39 -23.5t-10 -78.5q0 -54 10 -78t39 -24
q30 0 40.5 24t10.5 78q0 55 -10 78.5t-41 23.5zM967 1016q49 0 79.5 -24.5t39 -51t8.5 -53.5q0 -43 -34.5 -72.5t-72.5 -34.5q-213 -23 -340 -147q3 8 9 22t25 53.5t39 75.5t50 80.5t59.5 76t66 53.5t71.5 22zM285 909q39 0 78 -21t69.5 -55t58.5 -74.5t48 -81.5t35 -75
t22 -55l8 -21q-117 148 -319 148q-49 0 -88 30t-39 76q0 53 33.5 91t93.5 38zM643 1214q38 -37 48.5 -102t-2.5 -131t-31.5 -126.5t-35.5 -98.5l-18 -39q20 191 -125 330q-35 35 -42 81.5t24 83.5q23 23 53 34t65 3.5t64 -35.5z" />
    <glyph glyph-name="percent" unicode="%" 
d="M207 403q-13 0 -19 -2v-200q4 -2 19 -2q37 0 50 25t13 77q0 54 -13 78t-50 24zM518 330v-49h-82v-78h96v-49h-155v297h155v-52h-96v-69h82zM203 150q-47 0 -74 4v292q61 9 76 9q67 0 96 -37.5t29 -116.5t-29.5 -115t-97.5 -36zM586 451h80l39 -164l38 164h82
q3 -45 13 -297h-60q0 108 -6 213l-41 -168h-55l-41 168h-2q-4 -140 -4 -213h-58q3 156 15 297zM987 150q-60 0 -84 35.5t-24 115.5q0 81 24 117.5t84 36.5t85.5 -37t25.5 -117q0 -79 -25.5 -115t-85.5 -36zM987 403q-29 0 -39 -23.5t-10 -78.5q0 -54 10 -78t39 -24
q30 0 40.5 24t10.5 78q0 55 -10 78.5t-41 23.5zM967 1016q49 0 79.5 -24.5t39 -51t8.5 -53.5q0 -43 -34.5 -72.5t-72.5 -34.5q-213 -23 -340 -147q3 8 9 22t25 53.5t39 75.5t50 80.5t59.5 76t66 53.5t71.5 22zM285 909q39 0 78 -21t69.5 -55t58.5 -74.5t48 -81.5t35 -75
t22 -55l8 -21q-117 148 -319 148q-49 0 -88 30t-39 76q0 53 33.5 91t93.5 38zM643 1214q38 -37 48.5 -102t-2.5 -131t-31.5 -126.5t-35.5 -98.5l-18 -39q20 191 -125 330q-35 35 -42 81.5t24 83.5q23 23 53 34t65 3.5t64 -35.5z" />
    <glyph glyph-name="ampersand" unicode="&#x26;" 
d="M207 403q-13 0 -19 -2v-200q4 -2 19 -2q37 0 50 25t13 77q0 54 -13 78t-50 24zM518 330v-49h-82v-78h96v-49h-155v297h155v-52h-96v-69h82zM203 150q-47 0 -74 4v292q61 9 76 9q67 0 96 -37.5t29 -116.5t-29.5 -115t-97.5 -36zM586 451h80l39 -164l38 164h82
q3 -45 13 -297h-60q0 108 -6 213l-41 -168h-55l-41 168h-2q-4 -140 -4 -213h-58q3 156 15 297zM987 150q-60 0 -84 35.5t-24 115.5q0 81 24 117.5t84 36.5t85.5 -37t25.5 -117q0 -79 -25.5 -115t-85.5 -36zM987 403q-29 0 -39 -23.5t-10 -78.5q0 -54 10 -78t39 -24
q30 0 40.5 24t10.5 78q0 55 -10 78.5t-41 23.5zM967 1016q49 0 79.5 -24.5t39 -51t8.5 -53.5q0 -43 -34.5 -72.5t-72.5 -34.5q-213 -23 -340 -147q3 8 9 22t25 53.5t39 75.5t50 80.5t59.5 76t66 53.5t71.5 22zM285 909q39 0 78 -21t69.5 -55t58.5 -74.5t48 -81.5t35 -75
t22 -55l8 -21q-117 148 -319 148q-49 0 -88 30t-39 76q0 53 33.5 91t93.5 38zM643 1214q38 -37 48.5 -102t-2.5 -131t-31.5 -126.5t-35.5 -98.5l-18 -39q20 191 -125 330q-35 35 -42 81.5t24 83.5q23 23 53 34t65 3.5t64 -35.5z" />
    <glyph glyph-name="quotesingle" unicode="'" 
d="M207 403q-13 0 -19 -2v-200q4 -2 19 -2q37 0 50 25t13 77q0 54 -13 78t-50 24zM518 330v-49h-82v-78h96v-49h-155v297h155v-52h-96v-69h82zM203 150q-47 0 -74 4v292q61 9 76 9q67 0 96 -37.5t29 -116.5t-29.5 -115t-97.5 -36zM586 451h80l39 -164l38 164h82
q3 -45 13 -297h-60q0 108 -6 213l-41 -168h-55l-41 168h-2q-4 -140 -4 -213h-58q3 156 15 297zM987 150q-60 0 -84 35.5t-24 115.5q0 81 24 117.5t84 36.5t85.5 -37t25.5 -117q0 -79 -25.5 -115t-85.5 -36zM987 403q-29 0 -39 -23.5t-10 -78.5q0 -54 10 -78t39 -24
q30 0 40.5 24t10.5 78q0 55 -10 78.5t-41 23.5zM967 1016q49 0 79.5 -24.5t39 -51t8.5 -53.5q0 -43 -34.5 -72.5t-72.5 -34.5q-213 -23 -340 -147q3 8 9 22t25 53.5t39 75.5t50 80.5t59.5 76t66 53.5t71.5 22zM285 909q39 0 78 -21t69.5 -55t58.5 -74.5t48 -81.5t35 -75
t22 -55l8 -21q-117 148 -319 148q-49 0 -88 30t-39 76q0 53 33.5 91t93.5 38zM643 1214q38 -37 48.5 -102t-2.5 -131t-31.5 -126.5t-35.5 -98.5l-18 -39q20 191 -125 330q-35 35 -42 81.5t24 83.5q23 23 53 34t65 3.5t64 -35.5z" />
    <glyph glyph-name="parenleft" unicode="(" 
d="M207 403q-13 0 -19 -2v-200q4 -2 19 -2q37 0 50 25t13 77q0 54 -13 78t-50 24zM518 330v-49h-82v-78h96v-49h-155v297h155v-52h-96v-69h82zM203 150q-47 0 -74 4v292q61 9 76 9q67 0 96 -37.5t29 -116.5t-29.5 -115t-97.5 -36zM586 451h80l39 -164l38 164h82
q3 -45 13 -297h-60q0 108 -6 213l-41 -168h-55l-41 168h-2q-4 -140 -4 -213h-58q3 156 15 297zM987 150q-60 0 -84 35.5t-24 115.5q0 81 24 117.5t84 36.5t85.5 -37t25.5 -117q0 -79 -25.5 -115t-85.5 -36zM987 403q-29 0 -39 -23.5t-10 -78.5q0 -54 10 -78t39 -24
q30 0 40.5 24t10.5 78q0 55 -10 78.5t-41 23.5zM967 1016q49 0 79.5 -24.5t39 -51t8.5 -53.5q0 -43 -34.5 -72.5t-72.5 -34.5q-213 -23 -340 -147q3 8 9 22t25 53.5t39 75.5t50 80.5t59.5 76t66 53.5t71.5 22zM285 909q39 0 78 -21t69.5 -55t58.5 -74.5t48 -81.5t35 -75
t22 -55l8 -21q-117 148 -319 148q-49 0 -88 30t-39 76q0 53 33.5 91t93.5 38zM643 1214q38 -37 48.5 -102t-2.5 -131t-31.5 -126.5t-35.5 -98.5l-18 -39q20 191 -125 330q-35 35 -42 81.5t24 83.5q23 23 53 34t65 3.5t64 -35.5z" />
    <glyph glyph-name="parenright" unicode=")" 
d="M207 403q-13 0 -19 -2v-200q4 -2 19 -2q37 0 50 25t13 77q0 54 -13 78t-50 24zM518 330v-49h-82v-78h96v-49h-155v297h155v-52h-96v-69h82zM203 150q-47 0 -74 4v292q61 9 76 9q67 0 96 -37.5t29 -116.5t-29.5 -115t-97.5 -36zM586 451h80l39 -164l38 164h82
q3 -45 13 -297h-60q0 108 -6 213l-41 -168h-55l-41 168h-2q-4 -140 -4 -213h-58q3 156 15 297zM987 150q-60 0 -84 35.5t-24 115.5q0 81 24 117.5t84 36.5t85.5 -37t25.5 -117q0 -79 -25.5 -115t-85.5 -36zM987 403q-29 0 -39 -23.5t-10 -78.5q0 -54 10 -78t39 -24
q30 0 40.5 24t10.5 78q0 55 -10 78.5t-41 23.5zM967 1016q49 0 79.5 -24.5t39 -51t8.5 -53.5q0 -43 -34.5 -72.5t-72.5 -34.5q-213 -23 -340 -147q3 8 9 22t25 53.5t39 75.5t50 80.5t59.5 76t66 53.5t71.5 22zM285 909q39 0 78 -21t69.5 -55t58.5 -74.5t48 -81.5t35 -75
t22 -55l8 -21q-117 148 -319 148q-49 0 -88 30t-39 76q0 53 33.5 91t93.5 38zM643 1214q38 -37 48.5 -102t-2.5 -131t-31.5 -126.5t-35.5 -98.5l-18 -39q20 191 -125 330q-35 35 -42 81.5t24 83.5q23 23 53 34t65 3.5t64 -35.5z" />
    <glyph glyph-name="asterisk" unicode="*" 
d="M207 403q-13 0 -19 -2v-200q4 -2 19 -2q37 0 50 25t13 77q0 54 -13 78t-50 24zM518 330v-49h-82v-78h96v-49h-155v297h155v-52h-96v-69h82zM203 150q-47 0 -74 4v292q61 9 76 9q67 0 96 -37.5t29 -116.5t-29.5 -115t-97.5 -36zM586 451h80l39 -164l38 164h82
q3 -45 13 -297h-60q0 108 -6 213l-41 -168h-55l-41 168h-2q-4 -140 -4 -213h-58q3 156 15 297zM987 150q-60 0 -84 35.5t-24 115.5q0 81 24 117.5t84 36.5t85.5 -37t25.5 -117q0 -79 -25.5 -115t-85.5 -36zM987 403q-29 0 -39 -23.5t-10 -78.5q0 -54 10 -78t39 -24
q30 0 40.5 24t10.5 78q0 55 -10 78.5t-41 23.5zM967 1016q49 0 79.5 -24.5t39 -51t8.5 -53.5q0 -43 -34.5 -72.5t-72.5 -34.5q-213 -23 -340 -147q3 8 9 22t25 53.5t39 75.5t50 80.5t59.5 76t66 53.5t71.5 22zM285 909q39 0 78 -21t69.5 -55t58.5 -74.5t48 -81.5t35 -75
t22 -55l8 -21q-117 148 -319 148q-49 0 -88 30t-39 76q0 53 33.5 91t93.5 38zM643 1214q38 -37 48.5 -102t-2.5 -131t-31.5 -126.5t-35.5 -98.5l-18 -39q20 191 -125 330q-35 35 -42 81.5t24 83.5q23 23 53 34t65 3.5t64 -35.5z" />
    <glyph glyph-name="plus" unicode="+" 
d="M207 403q-13 0 -19 -2v-200q4 -2 19 -2q37 0 50 25t13 77q0 54 -13 78t-50 24zM518 330v-49h-82v-78h96v-49h-155v297h155v-52h-96v-69h82zM203 150q-47 0 -74 4v292q61 9 76 9q67 0 96 -37.5t29 -116.5t-29.5 -115t-97.5 -36zM586 451h80l39 -164l38 164h82
q3 -45 13 -297h-60q0 108 -6 213l-41 -168h-55l-41 168h-2q-4 -140 -4 -213h-58q3 156 15 297zM987 150q-60 0 -84 35.5t-24 115.5q0 81 24 117.5t84 36.5t85.5 -37t25.5 -117q0 -79 -25.5 -115t-85.5 -36zM987 403q-29 0 -39 -23.5t-10 -78.5q0 -54 10 -78t39 -24
q30 0 40.5 24t10.5 78q0 55 -10 78.5t-41 23.5zM967 1016q49 0 79.5 -24.5t39 -51t8.5 -53.5q0 -43 -34.5 -72.5t-72.5 -34.5q-213 -23 -340 -147q3 8 9 22t25 53.5t39 75.5t50 80.5t59.5 76t66 53.5t71.5 22zM285 909q39 0 78 -21t69.5 -55t58.5 -74.5t48 -81.5t35 -75
t22 -55l8 -21q-117 148 -319 148q-49 0 -88 30t-39 76q0 53 33.5 91t93.5 38zM643 1214q38 -37 48.5 -102t-2.5 -131t-31.5 -126.5t-35.5 -98.5l-18 -39q20 191 -125 330q-35 35 -42 81.5t24 83.5q23 23 53 34t65 3.5t64 -35.5z" />
    <glyph glyph-name="comma" unicode="," horiz-adv-x="509" 
d="M55 -233q94 51 126 100.5t32 107.5q0 68 -28.5 107.5t-80.5 48.5l-6 29q15 8 183 82q45 -24 73.5 -72.5t28.5 -103.5q0 -102 -77.5 -180.5t-237.5 -149.5z" />
    <glyph glyph-name="hyphen" unicode="-" 
d="M207 403q-13 0 -19 -2v-200q4 -2 19 -2q37 0 50 25t13 77q0 54 -13 78t-50 24zM518 330v-49h-82v-78h96v-49h-155v297h155v-52h-96v-69h82zM203 150q-47 0 -74 4v292q61 9 76 9q67 0 96 -37.5t29 -116.5t-29.5 -115t-97.5 -36zM586 451h80l39 -164l38 164h82
q3 -45 13 -297h-60q0 108 -6 213l-41 -168h-55l-41 168h-2q-4 -140 -4 -213h-58q3 156 15 297zM987 150q-60 0 -84 35.5t-24 115.5q0 81 24 117.5t84 36.5t85.5 -37t25.5 -117q0 -79 -25.5 -115t-85.5 -36zM987 403q-29 0 -39 -23.5t-10 -78.5q0 -54 10 -78t39 -24
q30 0 40.5 24t10.5 78q0 55 -10 78.5t-41 23.5zM967 1016q49 0 79.5 -24.5t39 -51t8.5 -53.5q0 -43 -34.5 -72.5t-72.5 -34.5q-213 -23 -340 -147q3 8 9 22t25 53.5t39 75.5t50 80.5t59.5 76t66 53.5t71.5 22zM285 909q39 0 78 -21t69.5 -55t58.5 -74.5t48 -81.5t35 -75
t22 -55l8 -21q-117 148 -319 148q-49 0 -88 30t-39 76q0 53 33.5 91t93.5 38zM643 1214q38 -37 48.5 -102t-2.5 -131t-31.5 -126.5t-35.5 -98.5l-18 -39q20 191 -125 330q-35 35 -42 81.5t24 83.5q23 23 53 34t65 3.5t64 -35.5z" />
    <glyph glyph-name="period" unicode="." horiz-adv-x="507" 
d="M254 -16q-52 0 -89.5 37t-37.5 90t37.5 90t89.5 37t89.5 -37t37.5 -90t-37.5 -90t-89.5 -37z" />
    <glyph glyph-name="slash" unicode="/" 
d="M207 403q-13 0 -19 -2v-200q4 -2 19 -2q37 0 50 25t13 77q0 54 -13 78t-50 24zM518 330v-49h-82v-78h96v-49h-155v297h155v-52h-96v-69h82zM203 150q-47 0 -74 4v292q61 9 76 9q67 0 96 -37.5t29 -116.5t-29.5 -115t-97.5 -36zM586 451h80l39 -164l38 164h82
q3 -45 13 -297h-60q0 108 -6 213l-41 -168h-55l-41 168h-2q-4 -140 -4 -213h-58q3 156 15 297zM987 150q-60 0 -84 35.5t-24 115.5q0 81 24 117.5t84 36.5t85.5 -37t25.5 -117q0 -79 -25.5 -115t-85.5 -36zM987 403q-29 0 -39 -23.5t-10 -78.5q0 -54 10 -78t39 -24
q30 0 40.5 24t10.5 78q0 55 -10 78.5t-41 23.5zM967 1016q49 0 79.5 -24.5t39 -51t8.5 -53.5q0 -43 -34.5 -72.5t-72.5 -34.5q-213 -23 -340 -147q3 8 9 22t25 53.5t39 75.5t50 80.5t59.5 76t66 53.5t71.5 22zM285 909q39 0 78 -21t69.5 -55t58.5 -74.5t48 -81.5t35 -75
t22 -55l8 -21q-117 148 -319 148q-49 0 -88 30t-39 76q0 53 33.5 91t93.5 38zM643 1214q38 -37 48.5 -102t-2.5 -131t-31.5 -126.5t-35.5 -98.5l-18 -39q20 191 -125 330q-35 35 -42 81.5t24 83.5q23 23 53 34t65 3.5t64 -35.5z" />
    <glyph glyph-name="zero" unicode="0" horiz-adv-x="1331" 
d="M666 -27q-113 0 -213 51t-174.5 143t-118 231.5t-43.5 306.5q0 166 43.5 305t118 231t174.5 142.5t213 50.5q112 0 211.5 -50.5t173.5 -142.5t117.5 -231t43.5 -305q0 -167 -43.5 -306.5t-117.5 -231.5t-173.5 -143t-211.5 -51zM666 16q292 0 292 689q0 686 -292 686
q-295 0 -295 -686q0 -689 295 -689z" />
    <glyph glyph-name="one" unicode="1" horiz-adv-x="823" 
d="M80 0v29q252 45 252 256v819q0 107 -56.5 147.5t-195.5 40.5v29q236 43 450 115v-1151q0 -62 9.5 -101.5t35.5 -72.5t73.5 -52t123.5 -30v-29q-161 8 -348 8q-185 0 -344 -8z" />
    <glyph glyph-name="two" unicode="2" horiz-adv-x="1130" 
d="M989 395h27q-11 -214 -31 -395q-203 6 -473 6q-213 0 -453 -6v29l394 475q58 70 95 121.5t81.5 129.5t67 163t22.5 176q0 141 -52 219t-143 78q-57 0 -111.5 -35t-101 -96.5t-83.5 -130t-70 -150.5h-31q-4 106 -4 158q0 59 4 149q63 69 163.5 108.5t225.5 39.5
q198 0 330.5 -96.5t132.5 -256.5q0 -63 -25 -129t-59.5 -120.5t-97 -122.5t-110.5 -114t-126 -116l-319 -299q22 0 109.5 -1t148.5 -1q160 0 221 4q111 8 166.5 50.5t101.5 162.5z" />
    <glyph glyph-name="three" unicode="3" horiz-adv-x="1099" 
d="M469 -25q-113 0 -209 28t-154 73q-10 170 -4 317h27q34 -90 66 -153.5t72.5 -116.5t90 -79t109.5 -26q122 0 206.5 93.5t84.5 259.5q0 170 -93 264t-253 94h-66v49h72q119 0 198.5 85.5t79.5 240.5q0 136 -62.5 211.5t-152.5 75.5q-93 0 -182 -105t-158 -274h-28
q-7 151 0 291q64 59 158 95t204 36q87 0 169 -21t150 -61.5t109 -106.5t41 -149q0 -122 -87 -212.5t-226 -123.5q186 -37 279.5 -137t93.5 -236q0 -177 -144 -294.5t-391 -117.5z" />
    <glyph glyph-name="four" unicode="4" 
d="M207 403q-13 0 -19 -2v-200q4 -2 19 -2q37 0 50 25t13 77q0 54 -13 78t-50 24zM518 330v-49h-82v-78h96v-49h-155v297h155v-52h-96v-69h82zM203 150q-47 0 -74 4v292q61 9 76 9q67 0 96 -37.5t29 -116.5t-29.5 -115t-97.5 -36zM586 451h80l39 -164l38 164h82
q3 -45 13 -297h-60q0 108 -6 213l-41 -168h-55l-41 168h-2q-4 -140 -4 -213h-58q3 156 15 297zM987 150q-60 0 -84 35.5t-24 115.5q0 81 24 117.5t84 36.5t85.5 -37t25.5 -117q0 -79 -25.5 -115t-85.5 -36zM987 403q-29 0 -39 -23.5t-10 -78.5q0 -54 10 -78t39 -24
q30 0 40.5 24t10.5 78q0 55 -10 78.5t-41 23.5zM967 1016q49 0 79.5 -24.5t39 -51t8.5 -53.5q0 -43 -34.5 -72.5t-72.5 -34.5q-213 -23 -340 -147q3 8 9 22t25 53.5t39 75.5t50 80.5t59.5 76t66 53.5t71.5 22zM285 909q39 0 78 -21t69.5 -55t58.5 -74.5t48 -81.5t35 -75
t22 -55l8 -21q-117 148 -319 148q-49 0 -88 30t-39 76q0 53 33.5 91t93.5 38zM643 1214q38 -37 48.5 -102t-2.5 -131t-31.5 -126.5t-35.5 -98.5l-18 -39q20 191 -125 330q-35 35 -42 81.5t24 83.5q23 23 53 34t65 3.5t64 -35.5z" />
    <glyph glyph-name="five" unicode="5" horiz-adv-x="1118" 
d="M526 907q97 0 183.5 -29t154.5 -84.5t108 -144.5t40 -200q0 -215 -141.5 -344.5t-383.5 -129.5q-215 0 -360 101q-8 200 -6 317h31q31 -89 61 -151t70 -116t91 -81t113 -27q120 0 194.5 107t74.5 311q0 203 -76.5 310.5t-208.5 107.5q-80 0 -151 -39.5t-115 -116.5h-35
l20 707h484q102 0 163 19t95 69h26q-18 -138 -45 -270h-673l-13 -424q108 108 299 108z" />
    <glyph glyph-name="six" unicode="6" horiz-adv-x="1220" 
d="M682 868q86 0 165 -27.5t141 -79t99 -134t37 -183.5q0 -204 -138.5 -337.5t-362.5 -133.5q-249 0 -377.5 175t-128.5 507q0 192 42.5 342.5t117.5 245t174 143t217 48.5q103 0 205.5 -33t160.5 -78q8 -140 2 -303h-30q-76 181 -164 277t-197 96q-150 0 -223 -181
t-76 -548q41 91 124 147.5t212 56.5zM618 14q121 0 193 100.5t72 295.5q0 197 -74 298t-193 101q-118 0 -192 -102t-74 -295q0 -195 73.5 -296.5t194.5 -101.5z" />
    <glyph glyph-name="seven" unicode="7" horiz-adv-x="1048" 
d="M131 1411q446 -12 895 0v-31q-142 -278 -244.5 -501.5t-163 -388t-91.5 -267.5t-60 -223h-289l-4 29l709 1200h-434q-100 0 -161 -19t-101 -59t-81 -119h-28z" />
    <glyph glyph-name="eight" unicode="8" horiz-adv-x="1191" 
d="M596 -27q-223 0 -364.5 109.5t-141.5 290.5q0 142 97.5 249t250.5 146q-125 36 -209 122.5t-84 201.5q0 96 60 174.5t163.5 123t227.5 44.5q123 0 226 -42.5t165 -122t62 -179.5q0 -115 -81.5 -199t-211.5 -123q153 -41 249.5 -147.5t96.5 -247.5q0 -183 -142 -291.5
t-364 -108.5zM596 786q83 0 151 90.5t68 225.5q0 132 -60.5 211.5t-156.5 79.5q-98 0 -158.5 -79.5t-60.5 -211.5q0 -135 68 -225.5t149 -90.5zM598 14q117 0 191.5 96.5t74.5 258.5q0 164 -81.5 271.5t-184.5 107.5q-105 0 -187.5 -107.5t-82.5 -271.5q0 -161 75 -258
t195 -97z" />
    <glyph glyph-name="nine" unicode="9" horiz-adv-x="1212" 
d="M578 1434q237 0 377.5 -175t140.5 -522q0 -363 -151.5 -563.5t-399.5 -200.5q-98 0 -199 29t-147 64q-5 42 -6 94t0.5 128.5t1.5 106.5h30q29 -73 52.5 -123t55 -102t63 -83.5t73 -51t88.5 -19.5q79 0 138.5 49t95 138t53 204t18.5 257v34q-60 -72 -147.5 -113.5
t-188.5 -41.5q-182 0 -304 128.5t-122 321.5q0 199 135.5 320t342.5 121zM588 608q51 0 98 24.5t86 72t62.5 127t23.5 180.5q0 186 -76 284.5t-192 98.5t-186 -96.5t-70 -284.5q0 -191 72.5 -298.5t181.5 -107.5z" />
    <glyph glyph-name="colon" unicode=":" horiz-adv-x="507" 
d="M254 727q-52 0 -89.5 37.5t-37.5 89.5t37.5 89.5t89.5 37.5t89.5 -37.5t37.5 -89.5t-37.5 -89.5t-89.5 -37.5zM254 -16q-52 0 -89.5 37t-37.5 90t37.5 90t89.5 37t89.5 -37t37.5 -90t-37.5 -90t-89.5 -37z" />
    <glyph glyph-name="semicolon" unicode=";" horiz-adv-x="509" 
d="M250 725q-52 0 -89.5 37.5t-37.5 89.5t37.5 89.5t89.5 37.5t89.5 -37.5t37.5 -89.5t-37.5 -89.5t-89.5 -37.5zM55 -233q94 51 126 100.5t32 107.5q0 68 -28.5 107.5t-80.5 48.5l-6 29q15 8 183 82q45 -24 73.5 -72.5t28.5 -103.5q0 -102 -77.5 -180.5t-237.5 -149.5z" />
    <glyph glyph-name="less" unicode="&#x3c;" 
d="M207 403q-13 0 -19 -2v-200q4 -2 19 -2q37 0 50 25t13 77q0 54 -13 78t-50 24zM518 330v-49h-82v-78h96v-49h-155v297h155v-52h-96v-69h82zM203 150q-47 0 -74 4v292q61 9 76 9q67 0 96 -37.5t29 -116.5t-29.5 -115t-97.5 -36zM586 451h80l39 -164l38 164h82
q3 -45 13 -297h-60q0 108 -6 213l-41 -168h-55l-41 168h-2q-4 -140 -4 -213h-58q3 156 15 297zM987 150q-60 0 -84 35.5t-24 115.5q0 81 24 117.5t84 36.5t85.5 -37t25.5 -117q0 -79 -25.5 -115t-85.5 -36zM987 403q-29 0 -39 -23.5t-10 -78.5q0 -54 10 -78t39 -24
q30 0 40.5 24t10.5 78q0 55 -10 78.5t-41 23.5zM967 1016q49 0 79.5 -24.5t39 -51t8.5 -53.5q0 -43 -34.5 -72.5t-72.5 -34.5q-213 -23 -340 -147q3 8 9 22t25 53.5t39 75.5t50 80.5t59.5 76t66 53.5t71.5 22zM285 909q39 0 78 -21t69.5 -55t58.5 -74.5t48 -81.5t35 -75
t22 -55l8 -21q-117 148 -319 148q-49 0 -88 30t-39 76q0 53 33.5 91t93.5 38zM643 1214q38 -37 48.5 -102t-2.5 -131t-31.5 -126.5t-35.5 -98.5l-18 -39q20 191 -125 330q-35 35 -42 81.5t24 83.5q23 23 53 34t65 3.5t64 -35.5z" />
    <glyph glyph-name="equal" unicode="=" 
d="M207 403q-13 0 -19 -2v-200q4 -2 19 -2q37 0 50 25t13 77q0 54 -13 78t-50 24zM518 330v-49h-82v-78h96v-49h-155v297h155v-52h-96v-69h82zM203 150q-47 0 -74 4v292q61 9 76 9q67 0 96 -37.5t29 -116.5t-29.5 -115t-97.5 -36zM586 451h80l39 -164l38 164h82
q3 -45 13 -297h-60q0 108 -6 213l-41 -168h-55l-41 168h-2q-4 -140 -4 -213h-58q3 156 15 297zM987 150q-60 0 -84 35.5t-24 115.5q0 81 24 117.5t84 36.5t85.5 -37t25.5 -117q0 -79 -25.5 -115t-85.5 -36zM987 403q-29 0 -39 -23.5t-10 -78.5q0 -54 10 -78t39 -24
q30 0 40.5 24t10.5 78q0 55 -10 78.5t-41 23.5zM967 1016q49 0 79.5 -24.5t39 -51t8.5 -53.5q0 -43 -34.5 -72.5t-72.5 -34.5q-213 -23 -340 -147q3 8 9 22t25 53.5t39 75.5t50 80.5t59.5 76t66 53.5t71.5 22zM285 909q39 0 78 -21t69.5 -55t58.5 -74.5t48 -81.5t35 -75
t22 -55l8 -21q-117 148 -319 148q-49 0 -88 30t-39 76q0 53 33.5 91t93.5 38zM643 1214q38 -37 48.5 -102t-2.5 -131t-31.5 -126.5t-35.5 -98.5l-18 -39q20 191 -125 330q-35 35 -42 81.5t24 83.5q23 23 53 34t65 3.5t64 -35.5z" />
    <glyph glyph-name="greater" unicode="&#x3e;" 
d="M207 403q-13 0 -19 -2v-200q4 -2 19 -2q37 0 50 25t13 77q0 54 -13 78t-50 24zM518 330v-49h-82v-78h96v-49h-155v297h155v-52h-96v-69h82zM203 150q-47 0 -74 4v292q61 9 76 9q67 0 96 -37.5t29 -116.5t-29.5 -115t-97.5 -36zM586 451h80l39 -164l38 164h82
q3 -45 13 -297h-60q0 108 -6 213l-41 -168h-55l-41 168h-2q-4 -140 -4 -213h-58q3 156 15 297zM987 150q-60 0 -84 35.5t-24 115.5q0 81 24 117.5t84 36.5t85.5 -37t25.5 -117q0 -79 -25.5 -115t-85.5 -36zM987 403q-29 0 -39 -23.5t-10 -78.5q0 -54 10 -78t39 -24
q30 0 40.5 24t10.5 78q0 55 -10 78.5t-41 23.5zM967 1016q49 0 79.5 -24.5t39 -51t8.5 -53.5q0 -43 -34.5 -72.5t-72.5 -34.5q-213 -23 -340 -147q3 8 9 22t25 53.5t39 75.5t50 80.5t59.5 76t66 53.5t71.5 22zM285 909q39 0 78 -21t69.5 -55t58.5 -74.5t48 -81.5t35 -75
t22 -55l8 -21q-117 148 -319 148q-49 0 -88 30t-39 76q0 53 33.5 91t93.5 38zM643 1214q38 -37 48.5 -102t-2.5 -131t-31.5 -126.5t-35.5 -98.5l-18 -39q20 191 -125 330q-35 35 -42 81.5t24 83.5q23 23 53 34t65 3.5t64 -35.5z" />
    <glyph glyph-name="question" unicode="?" horiz-adv-x="974" 
d="M332 393v135q0 72 24 135.5t59.5 107t77 91t77 89.5t59.5 102t24 127q0 112 -46.5 173.5t-125.5 61.5q-51 0 -97 -25t-79.5 -62t-66.5 -94.5t-54 -106.5t-45 -113h-30q-11 150 -11 321q143 123 379 123q187 0 296.5 -84.5t109.5 -234.5q0 -72 -27 -132t-70 -102
t-95 -79.5t-104 -74t-95 -75t-70 -93t-27 -118.5v-72h-63zM377 -16q-53 0 -90 37t-37 90t37 90t90 37t90 -37t37 -90t-37 -90t-90 -37z" />
    <glyph glyph-name="at" unicode="@" 
d="M207 403q-13 0 -19 -2v-200q4 -2 19 -2q37 0 50 25t13 77q0 54 -13 78t-50 24zM518 330v-49h-82v-78h96v-49h-155v297h155v-52h-96v-69h82zM203 150q-47 0 -74 4v292q61 9 76 9q67 0 96 -37.5t29 -116.5t-29.5 -115t-97.5 -36zM586 451h80l39 -164l38 164h82
q3 -45 13 -297h-60q0 108 -6 213l-41 -168h-55l-41 168h-2q-4 -140 -4 -213h-58q3 156 15 297zM987 150q-60 0 -84 35.5t-24 115.5q0 81 24 117.5t84 36.5t85.5 -37t25.5 -117q0 -79 -25.5 -115t-85.5 -36zM987 403q-29 0 -39 -23.5t-10 -78.5q0 -54 10 -78t39 -24
q30 0 40.5 24t10.5 78q0 55 -10 78.5t-41 23.5zM967 1016q49 0 79.5 -24.5t39 -51t8.5 -53.5q0 -43 -34.5 -72.5t-72.5 -34.5q-213 -23 -340 -147q3 8 9 22t25 53.5t39 75.5t50 80.5t59.5 76t66 53.5t71.5 22zM285 909q39 0 78 -21t69.5 -55t58.5 -74.5t48 -81.5t35 -75
t22 -55l8 -21q-117 148 -319 148q-49 0 -88 30t-39 76q0 53 33.5 91t93.5 38zM643 1214q38 -37 48.5 -102t-2.5 -131t-31.5 -126.5t-35.5 -98.5l-18 -39q20 191 -125 330q-35 35 -42 81.5t24 83.5q23 23 53 34t65 3.5t64 -35.5z" />
    <glyph glyph-name="A" unicode="A" horiz-adv-x="1480" 
d="M1221 373q26 -61 41.5 -95t42 -82t49.5 -76t56.5 -53.5t70.5 -37.5v-29q-147 10 -303 10q-151 0 -308 -10v29q64 16 99 51t41 86.5t-6 112t-43 139.5l-25 63h-569l-19 -43q-33 -77 -46 -143t-4.5 -121t45.5 -92.5t101 -52.5v-29q-120 10 -239 10q-123 0 -205 -10v29
q70 28 129.5 112.5t120.5 227.5l477 1093h31zM389 532h526l-251 633z" />
    <glyph glyph-name="B" unicode="B" horiz-adv-x="1345" 
d="M872 762q189 -39 278 -135t89 -228q0 -175 -151.5 -287t-440.5 -112h-575v29q102 24 146 122.5t44 286.5v592q0 177 -43 265t-141 110v29h637q63 0 126 -13t123 -41.5t105.5 -68t73.5 -98t28 -126.5q0 -118 -81 -204.5t-218 -120.5zM655 1389q-117 0 -188 -5v-604h201
q109 0 182.5 85t73.5 229q0 138 -71 216.5t-198 78.5zM885 117q98 88 98 272q0 165 -82 252.5t-237 87.5h-197v-496q0 -111 31 -153q16 -20 47.5 -26.5t87.5 -6.5q174 0 252 70z" />
    <glyph glyph-name="C" unicode="C" horiz-adv-x="1458" 
d="M821 -25q-155 0 -290.5 56t-233 154t-153.5 236t-56 296q0 210 94 379.5t261.5 265.5t375.5 96q114 0 248 -31.5t229 -89.5q10 -220 7 -409h-31q-24 77 -70.5 159.5t-109.5 157t-144.5 122.5t-163.5 48q-187 0 -308.5 -186t-121.5 -514q0 -326 126.5 -511.5t326.5 -185.5
q74 0 150.5 41t137.5 106.5t108 142t71 151.5h31q3 -168 -7 -365q-93 -59 -228 -89t-249 -30z" />
    <glyph glyph-name="D" unicode="D" horiz-adv-x="1560" 
d="M72 0v29q100 20 145 119.5t45 289.5v557q0 208 -37 298t-147 112v29q164 -4 254 -4q81 0 212.5 2t168.5 2q162 0 301 -50t240 -142t158.5 -230t57.5 -305q0 -157 -57.5 -291t-155.5 -224.5t-229 -141t-276 -50.5q-63 0 -218 2t-237 2q-155 0 -225 -4zM764 47
q90 2 167.5 41.5t139.5 117t97.5 207.5t35.5 300q0 338 -132 505.5t-374 167.5q-40 0 -119.5 -1t-109.5 -1v-1046q0 -143 33.5 -213t105.5 -76q74 -5 156 -2z" />
    <glyph glyph-name="E" unicode="E" horiz-adv-x="1271" 
d="M1114 395h31q0 -195 -12 -395q-271 8 -535 8q-266 0 -526 -8v29q100 20 145 119.5t45 289.5v557q0 198 -37.5 291.5t-146.5 118.5v29q236 -7 403 -7q155 0 613 7q9 -190 6 -381h-29q-66 172 -164 250.5t-250 78.5q-129 0 -188 -4v-604h201q84 0 149 67t88 160h31
q-4 -132 -4 -245q0 -186 4 -256h-31q-23 93 -88 158t-149 65h-201v-309q0 -361 193 -361q75 0 113.5 5.5t82.5 25.5q81 34 149.5 119.5t106.5 191.5z" />
    <glyph glyph-name="F" unicode="F" horiz-adv-x="1210" 
d="M1083 1434q7 -222 7 -381h-31q-64 170 -162.5 249.5t-241.5 79.5q-97 0 -186 -6v-637h184q84 0 149.5 67.5t88.5 162.5h31q-4 -136 -4 -252t4 -252h-31q-23 94 -88.5 159.5t-149.5 65.5h-184v-252q0 -206 57 -296.5t199 -112.5v-29q-159 8 -332 8q-170 0 -321 -8v29
q100 20 145 120t45 289v557q0 202 -39 295.5t-145 114.5v29q240 -7 403 -7q144 0 602 7z" />
    <glyph glyph-name="G" unicode="G" horiz-adv-x="1564" 
d="M840 -25q-161 0 -301 56.5t-239 155t-155.5 236.5t-56.5 296q0 210 94 378.5t263.5 264.5t383.5 96q132 0 268 -36.5t238 -102.5q9 -203 6 -406h-30q-22 76 -74 161.5t-121.5 162t-160 126.5t-177.5 50q-183 0 -302.5 -188.5t-119.5 -517.5q0 -327 128 -508t354 -181
q86 0 168 31.5t139 85.5v162q0 134 -78.5 216.5t-198.5 100.5v29h650v-29q-164 -36 -164 -252v-221q-105 -75 -241.5 -120.5t-272.5 -45.5z" />
    <glyph glyph-name="H" unicode="H" horiz-adv-x="1609" 
d="M1348 416q0 -175 45 -270.5t145 -116.5v-29q-139 8 -299 8q-157 0 -293 -8v29q110 20 153.5 104.5t43.5 261.5v328h-676v-328q0 -177 43.5 -261.5t153.5 -104.5v-29q-136 8 -293 8q-158 0 -299 -8v29q100 21 145 116.5t45 270.5v612q0 177 -43 267t-141 110v29
q234 -9 293 -9q61 0 286 9v-29q-108 -21 -149 -100.5t-41 -251.5v-279h676v279q0 173 -41.5 252t-149.5 100v29q225 -9 287 -9q63 0 293 9v-29q-97 -20 -140.5 -110.5t-43.5 -266.5v-612z" />
    <glyph glyph-name="I" unicode="I" horiz-adv-x="724" 
d="M72 0v29q100 20 145 120t45 289v557q0 205 -40.5 296.5t-143.5 113.5v29q153 -9 284 -9q132 0 285 9v-29q-102 -22 -143 -114t-41 -296v-557q0 -189 45 -289t145 -120v-29q-133 8 -291 8q-151 0 -290 -8z" />
    <glyph glyph-name="J" unicode="J" horiz-adv-x="727" 
d="M-33 -375l-12 25q161 91 242.5 283.5t81.5 449.5v612q0 54 -2 92.5t-8 86.5t-20 82.5t-35.5 67t-55.5 53t-80 28.5v29q229 -9 293 -9q57 0 295 9v-29q-41 -8 -72.5 -27t-51 -49.5t-32.5 -64t-19 -81t-8 -89t-2 -99.5v-624q0 -146 -25 -257t-83.5 -205t-158.5 -164
t-247 -120z" />
    <glyph glyph-name="K" unicode="K" horiz-adv-x="1482" 
d="M1174 303q155 -221 307 -274v-29q-91 6 -205 6q-116 0 -195 -6q-44 103 -104 193l-367 538l-147 -153v-140q0 -366 190 -409v-29q-133 8 -286 8q-154 0 -295 -8v29q100 20 145 120t45 289v572q0 194 -41 284.5t-143 110.5v29q144 -9 282 -9q129 0 285 9v-29
q-99 -20 -140.5 -111t-41.5 -284v-357l373 385q161 172 161 256q0 41 -33.5 72.5t-95.5 38.5v29q137 -7 275 -7q146 0 235 7v-29q-181 -62 -297 -184l-319 -332z" />
    <glyph glyph-name="L" unicode="L" horiz-adv-x="1191" 
d="M72 0v29q100 20 146 119.5t46 289.5v557q0 202 -38 295.5t-146 114.5v29q147 -9 293 -9q144 0 291 9v-29q-110 -21 -152.5 -113.5t-42.5 -296.5v-604q0 -46 2 -79t9 -75.5t22.5 -72t39.5 -56t63.5 -40t90.5 -13.5q79 0 126.5 15t99.5 57q52 45 106 119.5t82 154.5h29
q0 -153 -11 -401q-260 8 -524 8q-269 0 -532 -8z" />
    <glyph glyph-name="M" unicode="M" horiz-adv-x="1918" 
d="M1659 438q0 -186 45.5 -286.5t142.5 -122.5v-29q-139 8 -293 8q-151 0 -258 -8v29q88 20 126 112t38 269v841l-528 -1259h-31l-579 1202v-735q0 -389 196 -430v-29q-107 8 -227 8q-118 0 -219 -8v29q194 38 194 430v547q0 85 -6.5 144t-24.5 116t-56 91.5t-97 47.5v29
q107 -7 194 -7q86 0 175 7l542 -1147l473 1147q100 -7 179 -7q77 0 196 7v-29q-58 -12 -96 -47.5t-56 -95.5t-24 -120t-6 -147v-557z" />
    <glyph glyph-name="N" unicode="N" horiz-adv-x="1548" 
d="M1274 1425q52 0 219 9v-29q-190 -41 -190 -410v-1009h-52l-929 1185v-716q0 -190 47.5 -296.5t154.5 -129.5v-29q-101 8 -229 8q-124 0 -223 -8v29q194 38 194 426v520q0 87 -6.5 151t-25.5 127t-58 101.5t-98 50.5v29q110 -7 174 -7q74 0 149 7l848 -1086v647
q0 368 -205 410v29q189 -9 230 -9z" />
    <glyph glyph-name="O" unicode="O" horiz-adv-x="1566" 
d="M782 -25q-139 0 -264 50.5t-221 142.5t-152.5 235t-56.5 316q0 171 56.5 312.5t152.5 233.5t221 142.5t264 50.5t264.5 -50.5t221.5 -142.5t152.5 -233.5t56.5 -312.5q0 -139 -37 -259.5t-101.5 -208.5t-152 -150.5t-190.5 -94t-214 -31.5zM782 18q92 0 168.5 41t135 124
t91.5 219.5t33 316.5q0 178 -33 313.5t-91.5 218t-135 123.5t-168.5 41t-168 -41t-134.5 -123.5t-91 -218t-32.5 -313.5q0 -180 32.5 -316.5t91 -219.5t134.5 -124t168 -41z" />
    <glyph glyph-name="P" unicode="P" horiz-adv-x="1228" 
d="M612 623h-145v-177q0 -209 54.5 -302t185.5 -115v-29q-145 8 -316 8q-168 0 -319 -8v29q100 20 145 119.5t45 289.5v598q0 175 -42 261t-142 108v29h540q87 0 167 -16t149 -48.5t120 -79t80 -111t29 -141.5q0 -182 -151.5 -298.5t-399.5 -116.5zM600 1389q-26 0 -133 -5
v-714h121q154 0 240.5 101t86.5 273q0 167 -84.5 256t-230.5 89z" />
    <glyph glyph-name="Q" unicode="Q" horiz-adv-x="1566" 
d="M1505 -186l21 -23q-127 -160 -262 -293q-166 59 -309 191.5t-203 285.5q-135 6 -254.5 59t-211 145.5t-145 232t-53.5 307.5q0 171 56.5 312.5t152.5 233.5t221 142.5t264 50.5t264.5 -50.5t221.5 -142.5t152.5 -233.5t56.5 -312.5q0 -169 -54.5 -310t-147.5 -233.5
t-214 -144.5t-256 -56q62 -118 170.5 -181.5t253.5 -63.5q140 0 276 84zM356 719q0 -180 32.5 -316.5t91 -219.5t134.5 -124t168 -41t168.5 41t135 124t91.5 219.5t33 316.5q0 178 -33 313.5t-91.5 218t-135 123.5t-168.5 41t-168 -41t-134.5 -123.5t-91 -218t-32.5 -313.5z
" />
    <glyph glyph-name="R" unicode="R" horiz-adv-x="1419" 
d="M1112 352q172 -280 324 -323v-29q-132 4 -197 4q-77 0 -195 -4q-15 49 -52 127.5t-68 128.5l-156 252q-62 100 -100 134.5t-111 35.5h-90v-240q0 -52 2.5 -92.5t9.5 -87.5t21 -82t35 -66.5t54.5 -52t76.5 -28.5v-29q-131 8 -295 8q-163 0 -299 -8v29q100 18 145 119
t45 290v592q0 181 -41.5 267t-142.5 108v29h575q143 0 261 -41t193 -128t75 -206q0 -113 -84.5 -204.5t-214.5 -139.5zM467 725h176q138 0 212.5 93.5t74.5 254.5q0 148 -78.5 232t-208.5 84q-43 0 -176 -5v-659z" />
    <glyph glyph-name="S" unicode="S" horiz-adv-x="1114" 
d="M500 -23q-120 0 -228.5 26.5t-167.5 66.5q-12 173 -12 362h31q39 -92 77 -160t88.5 -129t112.5 -93t134 -32q114 0 180.5 73.5t66.5 180.5q0 61 -22.5 113t-61 90.5t-88.5 73t-105 66t-109.5 63.5t-104.5 70.5t-88.5 82.5t-61 105t-22.5 133q0 179 129.5 284t326.5 105
q192 0 353 -92q9 -166 6 -342h-31q-111 207 -194 299t-187 92q-95 0 -153 -62.5t-58 -168.5q0 -81 38.5 -147.5t100 -113t135.5 -89.5t148.5 -87.5t136 -94.5t100 -122.5t38.5 -160.5q0 -171 -135 -281.5t-373 -110.5z" />
    <glyph glyph-name="T" unicode="T" horiz-adv-x="1314" 
d="M1219 1434l28 -383h-28q-36 73 -73 127.5t-87 104t-113.5 75.5t-138.5 26h-43l2 -956q2 -187 48.5 -282.5t164.5 -116.5v-29q-148 8 -322 8q-173 0 -321 -8v29q118 23 165.5 117.5t47.5 281.5l2 956h-43q-75 0 -138.5 -26t-113.5 -75.5t-87 -104t-73 -127.5h-28l28 383
h1123z" />
    <glyph glyph-name="U" unicode="U" horiz-adv-x="1619" 
d="M1348 485q0 -208 41.5 -306.5t164.5 -129.5v-29q-198 -3 -370 -36q-39 115 -39 280q0 65 10 137q-19 -64 -47 -122.5t-71.5 -115t-96.5 -97.5t-126 -66t-155 -25q-195 0 -311 125q-110 121 -110 414v481q0 199 -38.5 291t-140.5 119v29q120 -9 260 -9q146 0 269 9v-29
q-83 -22 -114.5 -92.5t-31.5 -229.5v-583q0 -271 74 -359q77 -92 207 -92q95 0 177 57.5t133.5 145.5t80.5 187.5t29 189.5v454q0 136 -38.5 215.5t-125.5 106.5v29q138 -9 276 -9q125 0 275 9v-29q-104 -26 -143 -115t-39 -297v-508z" />
    <glyph glyph-name="V" unicode="V" horiz-adv-x="1492" 
d="M1276 1427q134 0 223 7v-29q-144 -48 -258 -324l-459 -1112h-30l-473 1049q-33 73 -52 114t-49 95.5t-53.5 84.5t-55.5 56.5t-65 36.5v29q157 -7 303 -7q142 0 303 7v-29q-151 -40 -151 -176q0 -82 53 -201l336 -758l293 723q53 127 53 221q0 157 -168 191v29
q122 -7 250 -7z" />
    <glyph glyph-name="W" unicode="W" horiz-adv-x="2263" 
d="M2044 1427q139 0 225 7v-29q-153 -51 -258 -324l-422 -1110h-30l-418 1014l-377 -1014h-31l-454 1049q-93 207 -130 265q-56 88 -129 115q-8 3 -16 5v29q157 -7 301 -7q143 0 301 7v-29q-149 -42 -149 -184q0 -77 41 -170l325 -764l285 782l-25 57q-58 142 -98 200
t-113 79v29q168 -7 289 -7q123 0 291 7v-29q-72 -18 -107.5 -66.5t-35.5 -119.5t39 -166l309 -764l254 704q47 136 47 224q0 76 -38.5 123t-123.5 65v29q115 -7 248 -7z" />
    <glyph glyph-name="X" unicode="X" horiz-adv-x="1499" 
d="M1161 319q82 -119 169 -197t151 -93v-29q-117 8 -316 8q-196 0 -329 -8v29q82 17 110.5 62.5t7 117.5t-91.5 176l-188 277l-228 -332q-74 -104 -69 -188t92 -113v-29q-88 8 -229 8q-144 0 -217 -8v29q89 34 186 115.5t170 185.5l260 381l-285 417q-161 232 -301 277v29
q161 -7 307 -7q144 0 302 7v-29q-108 -26 -121 -93.5t69 -187.5l189 -276l184 256q64 88 82 149t-8.5 98t-98.5 54v29q103 -7 218 -7q119 0 215 7v-29q-76 -21 -166.5 -97.5t-169.5 -189.5l-221 -319z" />
    <glyph glyph-name="Y" unicode="Y" horiz-adv-x="1372" 
d="M1155 1427q136 0 225 7v-29q-64 -23 -118 -76.5t-125 -165.5l-349 -528v-197q0 -187 45 -287.5t144 -121.5v-29q-139 8 -291 8t-285 -8v29q99 21 144 121.5t45 287.5v158l-361 578q-69 113 -117 163t-102 68v29q225 -9 295 -9q132 0 285 9v-29q-133 -41 -133 -143
q0 -79 73 -201l234 -369l227 357q66 107 66 188q0 63 -36.5 107t-105.5 61v29q116 -7 240 -7z" />
    <glyph glyph-name="Z" unicode="Z" horiz-adv-x="1314" 
d="M1174 416h30q-4 -279 -10 -416q-298 6 -561 6q-255 0 -531 -6v29l818 1345q-172 4 -308 4q-154 0 -255 -79t-160 -252h-31q4 258 10 387q438 -7 600 -7q184 0 410 7v-29l-809 -1346q66 -2 192 -2q152 0 228 4q123 3 225.5 103.5t151.5 251.5z" />
    <glyph glyph-name="bracketleft" unicode="[" 
d="M207 403q-13 0 -19 -2v-200q4 -2 19 -2q37 0 50 25t13 77q0 54 -13 78t-50 24zM518 330v-49h-82v-78h96v-49h-155v297h155v-52h-96v-69h82zM203 150q-47 0 -74 4v292q61 9 76 9q67 0 96 -37.5t29 -116.5t-29.5 -115t-97.5 -36zM586 451h80l39 -164l38 164h82
q3 -45 13 -297h-60q0 108 -6 213l-41 -168h-55l-41 168h-2q-4 -140 -4 -213h-58q3 156 15 297zM987 150q-60 0 -84 35.5t-24 115.5q0 81 24 117.5t84 36.5t85.5 -37t25.5 -117q0 -79 -25.5 -115t-85.5 -36zM987 403q-29 0 -39 -23.5t-10 -78.5q0 -54 10 -78t39 -24
q30 0 40.5 24t10.5 78q0 55 -10 78.5t-41 23.5zM967 1016q49 0 79.5 -24.5t39 -51t8.5 -53.5q0 -43 -34.5 -72.5t-72.5 -34.5q-213 -23 -340 -147q3 8 9 22t25 53.5t39 75.5t50 80.5t59.5 76t66 53.5t71.5 22zM285 909q39 0 78 -21t69.5 -55t58.5 -74.5t48 -81.5t35 -75
t22 -55l8 -21q-117 148 -319 148q-49 0 -88 30t-39 76q0 53 33.5 91t93.5 38zM643 1214q38 -37 48.5 -102t-2.5 -131t-31.5 -126.5t-35.5 -98.5l-18 -39q20 191 -125 330q-35 35 -42 81.5t24 83.5q23 23 53 34t65 3.5t64 -35.5z" />
    <glyph glyph-name="backslash" unicode="\" 
d="M207 403q-13 0 -19 -2v-200q4 -2 19 -2q37 0 50 25t13 77q0 54 -13 78t-50 24zM518 330v-49h-82v-78h96v-49h-155v297h155v-52h-96v-69h82zM203 150q-47 0 -74 4v292q61 9 76 9q67 0 96 -37.5t29 -116.5t-29.5 -115t-97.5 -36zM586 451h80l39 -164l38 164h82
q3 -45 13 -297h-60q0 108 -6 213l-41 -168h-55l-41 168h-2q-4 -140 -4 -213h-58q3 156 15 297zM987 150q-60 0 -84 35.5t-24 115.5q0 81 24 117.5t84 36.5t85.5 -37t25.5 -117q0 -79 -25.5 -115t-85.5 -36zM987 403q-29 0 -39 -23.5t-10 -78.5q0 -54 10 -78t39 -24
q30 0 40.5 24t10.5 78q0 55 -10 78.5t-41 23.5zM967 1016q49 0 79.5 -24.5t39 -51t8.5 -53.5q0 -43 -34.5 -72.5t-72.5 -34.5q-213 -23 -340 -147q3 8 9 22t25 53.5t39 75.5t50 80.5t59.5 76t66 53.5t71.5 22zM285 909q39 0 78 -21t69.5 -55t58.5 -74.5t48 -81.5t35 -75
t22 -55l8 -21q-117 148 -319 148q-49 0 -88 30t-39 76q0 53 33.5 91t93.5 38zM643 1214q38 -37 48.5 -102t-2.5 -131t-31.5 -126.5t-35.5 -98.5l-18 -39q20 191 -125 330q-35 35 -42 81.5t24 83.5q23 23 53 34t65 3.5t64 -35.5z" />
    <glyph glyph-name="bracketright" unicode="]" 
d="M207 403q-13 0 -19 -2v-200q4 -2 19 -2q37 0 50 25t13 77q0 54 -13 78t-50 24zM518 330v-49h-82v-78h96v-49h-155v297h155v-52h-96v-69h82zM203 150q-47 0 -74 4v292q61 9 76 9q67 0 96 -37.5t29 -116.5t-29.5 -115t-97.5 -36zM586 451h80l39 -164l38 164h82
q3 -45 13 -297h-60q0 108 -6 213l-41 -168h-55l-41 168h-2q-4 -140 -4 -213h-58q3 156 15 297zM987 150q-60 0 -84 35.5t-24 115.5q0 81 24 117.5t84 36.5t85.5 -37t25.5 -117q0 -79 -25.5 -115t-85.5 -36zM987 403q-29 0 -39 -23.5t-10 -78.5q0 -54 10 -78t39 -24
q30 0 40.5 24t10.5 78q0 55 -10 78.5t-41 23.5zM967 1016q49 0 79.5 -24.5t39 -51t8.5 -53.5q0 -43 -34.5 -72.5t-72.5 -34.5q-213 -23 -340 -147q3 8 9 22t25 53.5t39 75.5t50 80.5t59.5 76t66 53.5t71.5 22zM285 909q39 0 78 -21t69.5 -55t58.5 -74.5t48 -81.5t35 -75
t22 -55l8 -21q-117 148 -319 148q-49 0 -88 30t-39 76q0 53 33.5 91t93.5 38zM643 1214q38 -37 48.5 -102t-2.5 -131t-31.5 -126.5t-35.5 -98.5l-18 -39q20 191 -125 330q-35 35 -42 81.5t24 83.5q23 23 53 34t65 3.5t64 -35.5z" />
    <glyph glyph-name="asciicircum" unicode="^" 
d="M207 403q-13 0 -19 -2v-200q4 -2 19 -2q37 0 50 25t13 77q0 54 -13 78t-50 24zM518 330v-49h-82v-78h96v-49h-155v297h155v-52h-96v-69h82zM203 150q-47 0 -74 4v292q61 9 76 9q67 0 96 -37.5t29 -116.5t-29.5 -115t-97.5 -36zM586 451h80l39 -164l38 164h82
q3 -45 13 -297h-60q0 108 -6 213l-41 -168h-55l-41 168h-2q-4 -140 -4 -213h-58q3 156 15 297zM987 150q-60 0 -84 35.5t-24 115.5q0 81 24 117.5t84 36.5t85.5 -37t25.5 -117q0 -79 -25.5 -115t-85.5 -36zM987 403q-29 0 -39 -23.5t-10 -78.5q0 -54 10 -78t39 -24
q30 0 40.5 24t10.5 78q0 55 -10 78.5t-41 23.5zM967 1016q49 0 79.5 -24.5t39 -51t8.5 -53.5q0 -43 -34.5 -72.5t-72.5 -34.5q-213 -23 -340 -147q3 8 9 22t25 53.5t39 75.5t50 80.5t59.5 76t66 53.5t71.5 22zM285 909q39 0 78 -21t69.5 -55t58.5 -74.5t48 -81.5t35 -75
t22 -55l8 -21q-117 148 -319 148q-49 0 -88 30t-39 76q0 53 33.5 91t93.5 38zM643 1214q38 -37 48.5 -102t-2.5 -131t-31.5 -126.5t-35.5 -98.5l-18 -39q20 191 -125 330q-35 35 -42 81.5t24 83.5q23 23 53 34t65 3.5t64 -35.5z" />
    <glyph glyph-name="underscore" unicode="_" 
d="M207 403q-13 0 -19 -2v-200q4 -2 19 -2q37 0 50 25t13 77q0 54 -13 78t-50 24zM518 330v-49h-82v-78h96v-49h-155v297h155v-52h-96v-69h82zM203 150q-47 0 -74 4v292q61 9 76 9q67 0 96 -37.5t29 -116.5t-29.5 -115t-97.5 -36zM586 451h80l39 -164l38 164h82
q3 -45 13 -297h-60q0 108 -6 213l-41 -168h-55l-41 168h-2q-4 -140 -4 -213h-58q3 156 15 297zM987 150q-60 0 -84 35.5t-24 115.5q0 81 24 117.5t84 36.5t85.5 -37t25.5 -117q0 -79 -25.5 -115t-85.5 -36zM987 403q-29 0 -39 -23.5t-10 -78.5q0 -54 10 -78t39 -24
q30 0 40.5 24t10.5 78q0 55 -10 78.5t-41 23.5zM967 1016q49 0 79.5 -24.5t39 -51t8.5 -53.5q0 -43 -34.5 -72.5t-72.5 -34.5q-213 -23 -340 -147q3 8 9 22t25 53.5t39 75.5t50 80.5t59.5 76t66 53.5t71.5 22zM285 909q39 0 78 -21t69.5 -55t58.5 -74.5t48 -81.5t35 -75
t22 -55l8 -21q-117 148 -319 148q-49 0 -88 30t-39 76q0 53 33.5 91t93.5 38zM643 1214q38 -37 48.5 -102t-2.5 -131t-31.5 -126.5t-35.5 -98.5l-18 -39q20 191 -125 330q-35 35 -42 81.5t24 83.5q23 23 53 34t65 3.5t64 -35.5z" />
    <glyph glyph-name="grave" unicode="`" 
d="M207 403q-13 0 -19 -2v-200q4 -2 19 -2q37 0 50 25t13 77q0 54 -13 78t-50 24zM518 330v-49h-82v-78h96v-49h-155v297h155v-52h-96v-69h82zM203 150q-47 0 -74 4v292q61 9 76 9q67 0 96 -37.5t29 -116.5t-29.5 -115t-97.5 -36zM586 451h80l39 -164l38 164h82
q3 -45 13 -297h-60q0 108 -6 213l-41 -168h-55l-41 168h-2q-4 -140 -4 -213h-58q3 156 15 297zM987 150q-60 0 -84 35.5t-24 115.5q0 81 24 117.5t84 36.5t85.5 -37t25.5 -117q0 -79 -25.5 -115t-85.5 -36zM987 403q-29 0 -39 -23.5t-10 -78.5q0 -54 10 -78t39 -24
q30 0 40.5 24t10.5 78q0 55 -10 78.5t-41 23.5zM967 1016q49 0 79.5 -24.5t39 -51t8.5 -53.5q0 -43 -34.5 -72.5t-72.5 -34.5q-213 -23 -340 -147q3 8 9 22t25 53.5t39 75.5t50 80.5t59.5 76t66 53.5t71.5 22zM285 909q39 0 78 -21t69.5 -55t58.5 -74.5t48 -81.5t35 -75
t22 -55l8 -21q-117 148 -319 148q-49 0 -88 30t-39 76q0 53 33.5 91t93.5 38zM643 1214q38 -37 48.5 -102t-2.5 -131t-31.5 -126.5t-35.5 -98.5l-18 -39q20 191 -125 330q-35 35 -42 81.5t24 83.5q23 23 53 34t65 3.5t64 -35.5z" />
    <glyph glyph-name="a" unicode="a" horiz-adv-x="1021" 
d="M844 313q0 -138 31 -199.5t116 -84.5v-29q-227 0 -323 -14q-23 87 -23 161q0 41 6 78q-40 -112 -128 -180t-197 -68q-111 0 -191 63.5t-80 180.5q0 298 582 340v127q0 143 -44 219t-130 76q-55 0 -95 -30t-62 -82t-32.5 -111.5t-11.5 -128.5l-26 -8q-72 75 -144 180
q44 100 143.5 157.5t245.5 57.5q174 0 268.5 -92.5t94.5 -263.5v-349zM401 45q58 0 114.5 50.5t89 121t32.5 131.5v172q-196 -14 -278.5 -71.5t-82.5 -202.5q0 -96 31.5 -148.5t93.5 -52.5z" />
    <glyph glyph-name="b" unicode="b" horiz-adv-x="1148" 
d="M668 1018q79 0 150 -31t127.5 -90t90 -155.5t33.5 -217.5q0 -130 -38.5 -236.5t-103.5 -173t-146 -102t-169 -35.5q-90 0 -169.5 37t-129.5 99q-79 -66 -207 -138l-18 23q52 65 76 136.5t24 174.5v889q0 120 -37 179t-118 73v29q184 0 356 26v-516q0 -77 -12 -129
q42 73 119.5 115.5t171.5 42.5zM600 16q117 0 176.5 127t59.5 355q0 233 -60 346.5t-166 113.5q-66 0 -128.5 -41t-92.5 -110v-451q0 -153 55 -246.5t156 -93.5z" />
    <glyph glyph-name="c" unicode="c" horiz-adv-x="1021" 
d="M537 -23q-203 0 -330 145.5t-127 375.5q0 231 134 375.5t339 144.5q118 0 210 -45.5t150 -122.5q-29 -102 -82 -238h-30q-46 175 -116 271t-153 96q-95 0 -156 -117.5t-61 -365.5q0 -459 246 -459q45 0 88 13.5t86 43t79 84.5t56 131l45 -8q-31 -149 -133.5 -236.5
t-244.5 -87.5z" />
    <glyph glyph-name="d" unicode="d" horiz-adv-x="1150" 
d="M963 279q0 -112 34 -166.5t119 -83.5v-29q-217 0 -323 -18q-19 84 -19 180v45q-35 -103 -112 -166.5t-181 -63.5q-80 0 -152.5 38t-128 105t-88 166t-32.5 214q0 104 28.5 191.5t75.5 146.5t108 100.5t124.5 60.5t126.5 19q132 0 225 -96q-6 46 -6 90v182q0 67 -5 107
t-21 74t-47 51t-83 24v29q156 0 357 26v-1226zM518 29q100 0 172 107t72 247v479q-79 109 -197 109q-250 0 -250 -473q0 -220 52 -344.5t151 -124.5z" />
    <glyph glyph-name="e" unicode="e" horiz-adv-x="1032" 
d="M586 41q58 0 112.5 22t110 82.5t88.5 153.5l41 -10q-37 -142 -145 -228t-252 -86q-69 0 -134.5 19.5t-125 61.5t-104 102t-71 146.5t-26.5 189.5q0 237 129 380.5t332 143.5q63 0 120 -14.5t111.5 -50t94 -88.5t64 -135.5t25.5 -186.5h-645v-58q0 -96 14.5 -173.5
t45 -140t85.5 -96.5t130 -34zM526 981q-52 0 -93 -35t-66 -93t-39 -125t-17 -140h408q-3 187 -52.5 290t-140.5 103z" />
    <glyph glyph-name="f" unicode="f" horiz-adv-x="724" 
d="M600 1505q173 0 277 -135q-27 -104 -78 -233h-27q-24 75 -58.5 143t-84.5 121t-99 53q-58 0 -84 -68.5t-26 -222.5v-172h229v-43h-229v-624q0 -133 40.5 -200t157.5 -95v-29q-128 8 -282 8q-157 0 -285 -8v29q91 30 124.5 86t33.5 159v674h-141v43h141v53
q0 125 45.5 228.5t136 168t209.5 64.5z" />
    <glyph glyph-name="g" unicode="g" horiz-adv-x="1120" 
d="M1030 1018q-60 0 -105.5 -35t-66.5 -92q92 -95 92 -244q0 -117 -58.5 -202t-150.5 -124.5t-206 -39.5q-127 0 -218 45q-90 -41 -90 -117q0 -37 37 -65.5t115 -28.5h242q209 0 330.5 -85t121.5 -231q0 -109 -71.5 -187t-194 -116.5t-281.5 -38.5q-226 0 -358.5 76
t-132.5 195q0 82 67.5 147.5t176.5 93.5q-78 26 -114 75t-36 108q0 69 44 118t108 76q-166 98 -166 301q0 91 34.5 163t93.5 116t132 67t155 23q183 0 299 -98q16 78 64 158.5t115 129.5q47 -58 122 -190l-18 -23q-32 25 -82 25zM535 317q90 0 139 86t49 240q0 158 -51 247
t-142 89q-89 0 -138.5 -88.5t-49.5 -241.5q0 -155 51 -243.5t142 -88.5zM461 -57q-69 0 -113 8q-59 -34 -89 -90t-30 -119q0 -111 84 -176.5t228 -65.5q149 0 242.5 68.5t93.5 177.5q0 98 -81 147.5t-233 49.5h-102z" />
    <glyph glyph-name="h" unicode="h" horiz-adv-x="1206" 
d="M1026 319q0 -144 31.5 -207.5t111.5 -82.5v-31q-109 8 -243 8q-135 0 -250 -8v31q87 17 113 75.5t26 214.5v371q0 37 -1.5 64.5t-10 65.5t-23 62.5t-43 42t-67.5 17.5q-103 0 -187 -109t-84 -229v-289q0 -156 26.5 -212t119.5 -74v-31q-115 8 -252 8q-141 0 -256 -8v31
q56 17 88 44t51 86t19 156v879q0 121 -37 182t-121 74v29q189 0 362 26v-594q0 -86 -16 -161q46 117 144 191.5t221 74.5q129 0 203.5 -82.5t74.5 -243.5v-371z" />
    <glyph glyph-name="i" unicode="i" horiz-adv-x="608" 
d="M291 1188q-54 0 -91.5 37t-37.5 90q0 51 37.5 87t91.5 36q53 0 90 -36t37 -87q0 -53 -37 -90t-90 -37zM51 0v29q69 17 113.5 77t44.5 170v429q0 108 -41 172.5t-117 78.5v29q189 0 357 23v-732q0 -212 155 -247v-29q-109 8 -256 8t-256 -8z" />
    <glyph glyph-name="j" unicode="j" horiz-adv-x="585" 
d="M291 1188q-54 0 -91.5 37t-37.5 90q0 51 37.5 87t91.5 36q53 0 90 -36t37 -87q0 -53 -37 -90t-90 -37zM-141 -532q-55 164 -80 319l31 10q58 -90 125.5 -156.5t125.5 -66.5q70 0 109 90t39 273v739q0 252 -178 280v29q209 0 383 23v-967q0 -113 -30 -207.5t-82 -160.5
t-123 -112.5t-151.5 -69t-168.5 -23.5z" />
    <glyph glyph-name="k" unicode="k" horiz-adv-x="1153" 
d="M881 305q68 -115 130 -182.5t152 -95.5v-27q-95 6 -196 6q-107 0 -172 -6q-25 95 -86 199l-193 331l-121 -110v-144q0 -131 33.5 -181.5t126.5 -65.5v-29q-115 8 -260 8q-143 0 -258 -8v29q158 32 158 247v922q0 113 -35 175t-123 75v31q192 0 358 26v-1030l183 170
q116 106 116 193q0 95 -116 127v28q160 -8 249 -8q96 0 248 8v-28q-132 -39 -256 -156l-155 -141z" />
    <glyph glyph-name="l" unicode="l" horiz-adv-x="589" 
d="M37 0v29q158 29 158 247v922q0 114 -36 175.5t-122 74.5v31q190 0 362 26v-1229q0 -124 31.5 -178.5t124.5 -68.5v-29q-120 8 -260 8q-141 0 -258 -8z" />
    <glyph glyph-name="m" unicode="m" horiz-adv-x="1789" 
d="M1604 279q0 -50 5.5 -86t20 -71t45 -58.5t76.5 -34.5v-29q-127 10 -240 10q-111 0 -254 -10v29q81 21 108.5 77.5t27.5 169.5v400q0 55 -4.5 96t-16 81.5t-36.5 62.5t-62 22q-88 0 -167 -96t-91 -207v-356q0 -49 5 -86t18 -71.5t38.5 -58t63.5 -34.5v-29q-127 10 -230 10
q-100 0 -237 -10v29q80 20 105.5 77.5t25.5 169.5v414q0 50 -4 87t-15.5 77t-38 62t-65.5 22q-66 0 -128.5 -52t-100 -132.5t-37.5 -161.5v-330q0 -117 24 -163.5t105 -69.5v-29q-112 8 -246 8q-131 0 -246 -8v29q86 27 122 83t36 177v416q0 54 -5.5 92t-21 74t-47.5 57
t-82 28v29q245 4 369 23v-103q0 -69 -16 -147q47 116 144 188t216 72q207 0 242 -246q48 109 143.5 177.5t204.5 68.5q115 0 180.5 -86t65.5 -264v-389z" />
    <glyph glyph-name="n" unicode="n" horiz-adv-x="1222" 
d="M1044 279q0 -40 2 -66.5t10 -60t22.5 -55t41.5 -40.5t66 -28v-29q-109 8 -248 8q-137 0 -244 -8v29q43 11 71 32t42 55t19 71t5 92v401q0 31 -1 54t-5 56t-13.5 56.5t-24 46t-39 34t-56.5 11.5q-68 0 -133.5 -53t-104 -129.5t-38.5 -145.5v-336q0 -46 3 -78t11.5 -63
t23.5 -51t41 -34t62 -19v-29q-112 8 -252 8t-252 -8v29q82 28 120 81t38 164v428q0 119 -35 180t-123 74v29q205 0 367 23v-95q0 -77 -19 -178q47 125 147 204t226 79q270 0 270 -354v-385z" />
    <glyph glyph-name="o" unicode="o" horiz-adv-x="1099" 
d="M551 -23q-206 0 -338.5 142t-132.5 377q0 238 132.5 380t338.5 142q205 0 338 -142.5t133 -379.5q0 -235 -133 -377t-338 -142zM551 12q108 0 170.5 120t62.5 364q0 246 -62.5 365.5t-170.5 119.5q-110 0 -173 -119t-63 -366q0 -244 63.5 -364t172.5 -120z" />
    <glyph glyph-name="p" unicode="p" horiz-adv-x="1165" 
d="M696 1018q76 0 145 -31t124.5 -90.5t88.5 -156t33 -216.5q0 -130 -39 -236.5t-104 -173t-146.5 -102t-170.5 -35.5q-131 0 -221 74v-270q0 -107 44.5 -174.5t149.5 -91.5v-29q-184 8 -276 8q-87 0 -275 -8v29q80 29 119 79.5t39 151.5v952q0 125 -37 184t-121 74v29
q238 3 365 23v-64q0 -42 -15 -100q45 78 123 126t174 48zM614 18q119 0 177.5 126.5t58.5 357.5q0 232 -58.5 341t-156.5 109q-74 0 -137.5 -52.5t-91.5 -137.5v-414q0 -148 53 -239t155 -91z" />
    <glyph glyph-name="q" unicode="q" horiz-adv-x="1163" 
d="M1200 -391q-213 -82 -426 -146v725q-40 -97 -116 -154t-177 -57q-167 0 -284 149.5t-117 371.5q0 105 29.5 193.5t77.5 147.5t111 100.5t129.5 60t133.5 18.5q148 0 268 -88q63 35 209 88l13 -23q-86 -80 -86 -272v-885q0 -112 28 -160.5t101 -48.5q55 0 98 11zM526 31
q99 0 169.5 105.5t70.5 246.5v444q-82 150 -209 150q-119 0 -180.5 -127.5t-61.5 -353.5q0 -212 53.5 -338.5t157.5 -126.5z" />
    <glyph glyph-name="r" unicode="r" horiz-adv-x="911" 
d="M711 1018q54 0 99.5 -26.5t74.5 -69.5q-25 -128 -64 -265h-33q-23 112 -72 174t-108 62q-77 0 -138.5 -98.5t-61.5 -229.5v-256q0 -126 39.5 -188.5t156.5 -91.5v-29q-125 8 -276 8q-150 0 -275 -8v29q54 23 84.5 47.5t51 73.5t20.5 124v435q0 52 -6 90t-22 73t-48 56
t-80 28v29q223 0 359 21v-93q0 -101 -19 -194q43 131 135 215t183 84z" />
    <glyph glyph-name="s" unicode="s" horiz-adv-x="888" 
d="M401 -23q-89 0 -172 21.5t-135 62.5q-4 150 4 256h31q67 -145 139 -223t156 -78q75 0 118.5 48t41.5 122q-1 58 -28 103.5t-68.5 75t-91.5 56t-99.5 54.5t-91 61t-67 84t-25.5 117q0 72 30 128t79.5 87.5t106 47.5t117.5 16q67 0 146 -19t141 -59q-3 -143 -14 -254h-31
q-139 295 -272 295q-59 0 -94 -41.5t-35 -108.5q0 -58 27.5 -102.5t71 -74t96.5 -55t106.5 -53.5t97 -61.5t71 -87.5t27.5 -123q0 -138 -102 -216.5t-281 -78.5z" />
    <glyph glyph-name="t" unicode="t" horiz-adv-x="727" 
d="M662 190l30 -16q-49 -94 -128.5 -145.5t-170.5 -51.5q-103 0 -149.5 73.5t-46.5 217.5v662h-158v28q106 21 204 138.5t132 246.5h33v-358h235v-45h-240v-666q0 -121 18.5 -172t65.5 -51q41 0 90 39.5t85 99.5z" />
    <glyph glyph-name="u" unicode="u" horiz-adv-x="1171" 
d="M963 362q0 -152 35.5 -233t125.5 -92v-29q-202 -3 -321 -24q-27 89 -27 166q0 43 8 98q-46 -124 -133.5 -197.5t-208.5 -73.5q-140 0 -211 89.5t-71 263.5v401q0 109 -34.5 158.5t-98.5 66.5v29q189 0 333 23v-662q0 -301 150 -301q88 0 169.5 99t82.5 221v337
q0 121 -33.5 184t-105.5 72v29q206 0 340 21v-646z" />
    <glyph glyph-name="v" unicode="v" horiz-adv-x="1087" 
d="M918 985q70 0 172 8v-28q-61 -17 -106 -80.5t-93 -173.5l-318 -740h-36l-344 740q-31 68 -54 111.5t-63.5 89t-81.5 53.5v28q144 -8 235 -8q81 0 289 8v-28q-133 -23 -133 -134q0 -59 37 -141l215 -465l192 461q29 73 29 123q0 64 -37 105.5t-108 50.5v28q148 -8 205 -8z
" />
    <glyph glyph-name="w" unicode="w" horiz-adv-x="1650" 
d="M1473 985q66 0 180 8v-28q-56 -14 -112.5 -87t-94.5 -173l-279 -734h-34l-314 736l-307 -736h-35l-270 701q-53 135 -100.5 209t-110.5 84v28q164 -8 252 -8q80 0 272 8v-28q-71 -13 -103 -45.5t-32 -85.5q0 -62 35 -146l164 -430l301 735h30l318 -733l147 402
q27 76 27 131q0 69 -35.5 115.5t-103.5 56.5v28q148 -8 205 -8z" />
    <glyph glyph-name="x" unicode="x" horiz-adv-x="1138" 
d="M913 190q55 -69 100 -110.5t95 -50.5v-29q-96 8 -244 8q-153 0 -284 -8v29q98 25 98 94q0 65 -84 178l-100 133l-115 -143q-64 -82 -64 -148q0 -45 29 -76t84 -38v-29q-111 6 -211 6q-97 0 -192 -6v29q61 20 123 73t149 156l170 213l-248 332q-51 67 -94 108.5t-90 53.5
v28q105 -6 231 -6q128 0 260 6v-28q-80 -20 -80 -91q0 -66 60 -145l90 -121l90 113q51 60 51 131q0 44 -23.5 74t-68.5 39v28q144 -4 203 -4q72 0 174 4v-28q-51 -17 -121.5 -77.5t-140.5 -148.5l-135 -168z" />
    <glyph glyph-name="y" unicode="y" horiz-adv-x="1083" 
d="M924 985q75 0 161 8v-28q-105 -37 -198 -254l-279 -650q-168 -402 -379 -604q-118 135 -229 316l27 22q45 -45 93.5 -69.5t115.5 -24.5q75 0 144 64.5t122 175.5l24 53l-338 704q-74 150 -111.5 203t-92.5 64v28q160 -8 254 -8q84 0 272 8v-28q-135 -23 -135 -136
q0 -47 28 -108l228 -492l186 441q29 69 29 125q0 68 -35.5 114t-101.5 56v28q164 -8 215 -8z" />
    <glyph glyph-name="z" unicode="z" horiz-adv-x="1026" 
d="M897 362q4 -218 -4 -362q-246 4 -387 4q-161 0 -443 -4v27l588 919h-157q-147 0 -218.5 -50t-130.5 -191h-28q-4 141 4 288q250 -4 409 -4q135 0 365 4v-26l-590 -920h203q71 0 126 20.5t97 63t73.5 97.5t61.5 134h31z" />
    <glyph glyph-name="braceleft" unicode="{" 
d="M207 403q-13 0 -19 -2v-200q4 -2 19 -2q37 0 50 25t13 77q0 54 -13 78t-50 24zM518 330v-49h-82v-78h96v-49h-155v297h155v-52h-96v-69h82zM203 150q-47 0 -74 4v292q61 9 76 9q67 0 96 -37.5t29 -116.5t-29.5 -115t-97.5 -36zM586 451h80l39 -164l38 164h82
q3 -45 13 -297h-60q0 108 -6 213l-41 -168h-55l-41 168h-2q-4 -140 -4 -213h-58q3 156 15 297zM987 150q-60 0 -84 35.5t-24 115.5q0 81 24 117.5t84 36.5t85.5 -37t25.5 -117q0 -79 -25.5 -115t-85.5 -36zM987 403q-29 0 -39 -23.5t-10 -78.5q0 -54 10 -78t39 -24
q30 0 40.5 24t10.5 78q0 55 -10 78.5t-41 23.5zM967 1016q49 0 79.5 -24.5t39 -51t8.5 -53.5q0 -43 -34.5 -72.5t-72.5 -34.5q-213 -23 -340 -147q3 8 9 22t25 53.5t39 75.5t50 80.5t59.5 76t66 53.5t71.5 22zM285 909q39 0 78 -21t69.5 -55t58.5 -74.5t48 -81.5t35 -75
t22 -55l8 -21q-117 148 -319 148q-49 0 -88 30t-39 76q0 53 33.5 91t93.5 38zM643 1214q38 -37 48.5 -102t-2.5 -131t-31.5 -126.5t-35.5 -98.5l-18 -39q20 191 -125 330q-35 35 -42 81.5t24 83.5q23 23 53 34t65 3.5t64 -35.5z" />
    <glyph glyph-name="bar" unicode="|" 
d="M207 403q-13 0 -19 -2v-200q4 -2 19 -2q37 0 50 25t13 77q0 54 -13 78t-50 24zM518 330v-49h-82v-78h96v-49h-155v297h155v-52h-96v-69h82zM203 150q-47 0 -74 4v292q61 9 76 9q67 0 96 -37.5t29 -116.5t-29.5 -115t-97.5 -36zM586 451h80l39 -164l38 164h82
q3 -45 13 -297h-60q0 108 -6 213l-41 -168h-55l-41 168h-2q-4 -140 -4 -213h-58q3 156 15 297zM987 150q-60 0 -84 35.5t-24 115.5q0 81 24 117.5t84 36.5t85.5 -37t25.5 -117q0 -79 -25.5 -115t-85.5 -36zM987 403q-29 0 -39 -23.5t-10 -78.5q0 -54 10 -78t39 -24
q30 0 40.5 24t10.5 78q0 55 -10 78.5t-41 23.5zM967 1016q49 0 79.5 -24.5t39 -51t8.5 -53.5q0 -43 -34.5 -72.5t-72.5 -34.5q-213 -23 -340 -147q3 8 9 22t25 53.5t39 75.5t50 80.5t59.5 76t66 53.5t71.5 22zM285 909q39 0 78 -21t69.5 -55t58.5 -74.5t48 -81.5t35 -75
t22 -55l8 -21q-117 148 -319 148q-49 0 -88 30t-39 76q0 53 33.5 91t93.5 38zM643 1214q38 -37 48.5 -102t-2.5 -131t-31.5 -126.5t-35.5 -98.5l-18 -39q20 191 -125 330q-35 35 -42 81.5t24 83.5q23 23 53 34t65 3.5t64 -35.5z" />
    <glyph glyph-name="braceright" unicode="}" 
d="M207 403q-13 0 -19 -2v-200q4 -2 19 -2q37 0 50 25t13 77q0 54 -13 78t-50 24zM518 330v-49h-82v-78h96v-49h-155v297h155v-52h-96v-69h82zM203 150q-47 0 -74 4v292q61 9 76 9q67 0 96 -37.5t29 -116.5t-29.5 -115t-97.5 -36zM586 451h80l39 -164l38 164h82
q3 -45 13 -297h-60q0 108 -6 213l-41 -168h-55l-41 168h-2q-4 -140 -4 -213h-58q3 156 15 297zM987 150q-60 0 -84 35.5t-24 115.5q0 81 24 117.5t84 36.5t85.5 -37t25.5 -117q0 -79 -25.5 -115t-85.5 -36zM987 403q-29 0 -39 -23.5t-10 -78.5q0 -54 10 -78t39 -24
q30 0 40.5 24t10.5 78q0 55 -10 78.5t-41 23.5zM967 1016q49 0 79.5 -24.5t39 -51t8.5 -53.5q0 -43 -34.5 -72.5t-72.5 -34.5q-213 -23 -340 -147q3 8 9 22t25 53.5t39 75.5t50 80.5t59.5 76t66 53.5t71.5 22zM285 909q39 0 78 -21t69.5 -55t58.5 -74.5t48 -81.5t35 -75
t22 -55l8 -21q-117 148 -319 148q-49 0 -88 30t-39 76q0 53 33.5 91t93.5 38zM643 1214q38 -37 48.5 -102t-2.5 -131t-31.5 -126.5t-35.5 -98.5l-18 -39q20 191 -125 330q-35 35 -42 81.5t24 83.5q23 23 53 34t65 3.5t64 -35.5z" />
    <glyph glyph-name="asciitilde" unicode="~" 
d="M207 403q-13 0 -19 -2v-200q4 -2 19 -2q37 0 50 25t13 77q0 54 -13 78t-50 24zM518 330v-49h-82v-78h96v-49h-155v297h155v-52h-96v-69h82zM203 150q-47 0 -74 4v292q61 9 76 9q67 0 96 -37.5t29 -116.5t-29.5 -115t-97.5 -36zM586 451h80l39 -164l38 164h82
q3 -45 13 -297h-60q0 108 -6 213l-41 -168h-55l-41 168h-2q-4 -140 -4 -213h-58q3 156 15 297zM987 150q-60 0 -84 35.5t-24 115.5q0 81 24 117.5t84 36.5t85.5 -37t25.5 -117q0 -79 -25.5 -115t-85.5 -36zM987 403q-29 0 -39 -23.5t-10 -78.5q0 -54 10 -78t39 -24
q30 0 40.5 24t10.5 78q0 55 -10 78.5t-41 23.5zM967 1016q49 0 79.5 -24.5t39 -51t8.5 -53.5q0 -43 -34.5 -72.5t-72.5 -34.5q-213 -23 -340 -147q3 8 9 22t25 53.5t39 75.5t50 80.5t59.5 76t66 53.5t71.5 22zM285 909q39 0 78 -21t69.5 -55t58.5 -74.5t48 -81.5t35 -75
t22 -55l8 -21q-117 148 -319 148q-49 0 -88 30t-39 76q0 53 33.5 91t93.5 38zM643 1214q38 -37 48.5 -102t-2.5 -131t-31.5 -126.5t-35.5 -98.5l-18 -39q20 191 -125 330q-35 35 -42 81.5t24 83.5q23 23 53 34t65 3.5t64 -35.5z" />
    </font>
</defs>
</svg>
